<svg width="51" height="50" viewBox="0 0 51 50" fill="none" xmlns="http://www.w3.org/2000/svg">
<g clip-path="url(#clip0_2016_6074)">
<path d="M48.2611 14.2855C48.0876 13.9201 47.6503 13.7646 47.2853 13.9383C46.9199 14.1118 46.7644 14.5487 46.9379 14.9141C48.4407 18.0773 49.2026 21.4709 49.2026 25.0005C49.2026 31.287 46.7545 37.1971 42.3093 41.6424C37.8642 46.0876 31.954 48.5356 25.6674 48.5356C21.9392 48.5356 18.3738 47.6895 15.0704 46.0209C12.318 44.6304 9.83138 42.6784 7.81224 40.3327L10.702 41.296C11.0857 41.4239 11.5005 41.2165 11.6284 40.8327C11.7564 40.4489 11.549 40.0342 11.1652 39.9062L5.96497 38.1728C5.72415 38.0926 5.45891 38.1426 5.26409 38.3053C5.06927 38.468 4.97249 38.72 5.00833 38.9713L5.87503 45.0382C5.92727 45.4035 6.24056 45.6671 6.59925 45.6671C6.63372 45.6671 6.66858 45.6646 6.70374 45.6596C7.10423 45.6024 7.38245 45.2314 7.32522 44.831L6.84163 41.446C8.96067 43.8659 11.5493 45.8833 14.4101 47.3284C17.9201 49.1014 21.7076 50.0005 25.6674 50.0005C32.3452 50.0005 38.6233 47.4 43.3452 42.6782C48.0669 37.9562 50.6674 31.6782 50.6674 25.0005C50.6674 21.2517 49.8579 17.6468 48.2611 14.2855Z" fill="#1E2C24"/>
<path d="M46.3262 11.0293L45.4595 4.9624C45.4022 4.56191 45.0304 4.28389 44.6309 4.34092C44.2304 4.39814 43.9521 4.76914 44.0094 5.16953L44.4925 8.55117C39.7361 3.10156 32.9461 0 25.667 0C18.9893 0 12.7112 2.60049 7.98926 7.32227C3.26748 12.0442 0.666992 18.3223 0.666992 25C0.666992 28.7488 1.47666 32.3539 3.07334 35.7149C3.19873 35.9789 3.46143 36.1333 3.73545 36.1333C3.84072 36.1333 3.94775 36.1105 4.04922 36.0622C4.41455 35.8887 4.57002 35.4518 4.39648 35.0863C2.89375 31.9233 2.13184 28.5298 2.13184 25C2.13184 18.7135 4.57988 12.8033 9.0251 8.35811C13.4703 3.91289 19.3805 1.46484 25.667 1.46484C32.5865 1.46484 39.0364 4.44277 43.5201 9.66709L40.6325 8.70459C40.2485 8.57646 39.8339 8.78408 39.7061 9.16787C39.5782 9.55166 39.7854 9.96641 40.1692 10.0943L45.3694 11.8277C45.4452 11.8529 45.5233 11.8653 45.601 11.8653C45.7701 11.8653 45.9367 11.8067 46.0704 11.6952C46.2652 11.5325 46.362 11.2806 46.3262 11.0293Z" fill="#1E2C24"/>
<path d="M23.6307 32.8784H16.2631C16.5573 30.3149 18.3789 28.595 20.2979 26.7831C22.2965 24.896 24.3631 22.9446 24.3631 20.0144C24.3631 17.6113 22.2084 15.6562 19.56 15.6562C16.9115 15.6562 14.7568 17.6113 14.7568 20.0144C14.7568 20.4188 15.0848 20.7468 15.4893 20.7468C15.8938 20.7468 16.2217 20.4188 16.2217 20.0144C16.2217 18.419 17.7191 17.1211 19.56 17.1211C21.4008 17.1211 22.8982 18.419 22.8982 20.0144C22.8982 22.3132 21.1466 23.9671 19.2922 25.7181C17.1663 27.7253 14.7568 30.0004 14.7568 33.6108C14.7568 34.0153 15.0848 34.3433 15.4893 34.3433H23.6307C24.0352 34.3433 24.3631 34.0153 24.3631 33.6108C24.3631 33.2063 24.0352 32.8784 23.6307 32.8784Z" fill="#1E2C24"/>
<path d="M35.844 28.1813H35.0108V16.3887C35.0108 15.9842 34.683 15.6562 34.2784 15.6562C33.8738 15.6562 33.546 15.9842 33.546 16.3887V28.1814H27.3327L29.5184 16.5237C29.593 16.1262 29.3311 15.7434 28.9335 15.6688C28.5364 15.5947 28.1534 15.8562 28.0788 16.2537L25.7303 28.7789C25.6902 28.9931 25.7474 29.214 25.8866 29.3816C26.0257 29.5493 26.2323 29.6463 26.4501 29.6463H33.546V33.6108C33.546 34.0152 33.8738 34.3432 34.2784 34.3432C34.683 34.3432 35.0108 34.0152 35.0108 33.6107V29.6462H35.844C36.2486 29.6462 36.5764 29.3183 36.5764 28.9138C36.5764 28.5093 36.2486 28.1813 35.844 28.1813Z" fill="#1E2C24"/>
<path d="M25.667 3.91406C25.2625 3.91406 24.9346 4.24199 24.9346 4.64648V7.77773C24.9346 8.18223 25.2625 8.51016 25.667 8.51016C26.0716 8.51016 26.3994 8.18223 26.3994 7.77773V4.64648C26.3994 4.24199 26.0716 3.91406 25.667 3.91406Z" fill="#1E2C24"/>
<path d="M25.667 41.4902C25.2625 41.4902 24.9346 41.8182 24.9346 42.2227V45.3539C24.9346 45.7584 25.2625 46.0863 25.667 46.0863C26.0716 46.0863 26.3994 45.7584 26.3994 45.3539V42.2227C26.3994 41.8182 26.0716 41.4902 25.667 41.4902Z" fill="#1E2C24"/>
<path d="M46.0209 24.2676H42.8896C42.4851 24.2676 42.1572 24.5955 42.1572 25C42.1572 25.4045 42.4851 25.7324 42.8896 25.7324H46.0209C46.4255 25.7324 46.7533 25.4045 46.7533 25C46.7533 24.5955 46.4255 24.2676 46.0209 24.2676Z" fill="#1E2C24"/>
<path d="M8.44473 24.2676H5.31348C4.90898 24.2676 4.58105 24.5955 4.58105 25C4.58105 25.4045 4.90898 25.7324 5.31348 25.7324H8.44473C8.84922 25.7324 9.17715 25.4045 9.17715 25C9.17715 24.5955 8.84922 24.2676 8.44473 24.2676Z" fill="#1E2C24"/>
</g>
<defs>
<clipPath id="clip0_2016_6074">
<rect width="50" height="50" fill="white" transform="translate(0.666992)"/>
</clipPath>
</defs>
</svg>
