<svg width="73" height="72" viewBox="0 0 73 72" fill="none" xmlns="http://www.w3.org/2000/svg">
<path d="M66.6456 29.4249L37.974 10.0655C37.6441 9.84535 37.2288 9.84535 36.8989 10.0655L24.3278 18.5508V10.9327C24.3278 10.3613 23.8857 9.9004 23.3385 9.9004H15.7074C15.1598 9.9004 14.7181 10.3617 14.7181 10.9327V25.0404L9.05222 28.8667C8.59043 29.1764 8.46524 29.8164 8.76209 30.2913C9.05892 30.7731 9.67228 30.9037 10.1273 30.594L14.7181 27.4972V56.5044L10.0353 56.5048C9.48765 56.5048 9.04595 56.9661 9.04595 57.5371C9.04595 58.1085 9.48807 58.5694 10.0353 58.5694H25.0726C25.6202 58.5694 26.0619 58.1081 26.0619 57.5371C26.0619 56.9657 25.6198 56.5048 25.0726 56.5048H16.6963V26.1624L37.4334 12.1643L58.1769 26.1624V56.5048H49.708C49.1604 56.5048 48.7187 56.9661 48.7187 57.5371C48.7187 58.1085 49.1608 58.5694 49.708 58.5694H64.8386C65.3862 58.5694 65.8279 58.1081 65.8279 57.5371C65.8279 56.9657 65.3858 56.5048 64.8386 56.5048H60.1624V27.5044L65.5774 31.1586C65.7424 31.2687 65.927 31.3237 66.1117 31.3237C66.4349 31.3237 66.7514 31.1586 66.9427 30.8489C67.2396 30.3671 67.1077 29.7341 66.6526 29.4244L66.6456 29.4249ZM16.6967 11.9656H22.3491V19.8869L16.6967 23.6997V11.9656Z" fill="#1E2C24"/>
<path d="M37.288 33.443C33.8449 33.443 31.0419 36.3677 31.0419 39.9534C31.0419 43.5391 33.8449 46.4707 37.288 46.4707C40.7312 46.4707 43.5341 43.546 43.5341 39.9534C43.5341 36.3607 40.7312 33.443 37.288 33.443ZM37.288 44.4061C34.9334 44.4061 33.0206 42.4101 33.0206 39.9534C33.0206 37.4966 34.9335 35.5076 37.288 35.5076C39.6426 35.5076 41.5555 37.5036 41.5555 39.9534C41.5555 42.4032 39.6426 44.4061 37.288 44.4061Z" fill="#1E2C24"/>
<path d="M37.2827 26.1627C29.8295 26.1627 23.762 32.4944 23.762 40.2704C23.762 48.0472 36.049 61.2189 36.571 61.7837C36.7556 61.9833 37.0131 62.1004 37.2832 62.1004C37.5536 62.1004 37.8107 61.9833 37.9953 61.7837C38.5166 61.2193 50.8108 47.8202 50.8108 40.2704C50.8108 32.7208 44.7426 26.1627 37.2836 26.1627H37.2827ZM37.2827 59.5683C33.4967 55.3081 25.7405 45.5008 25.7405 40.2782C25.7405 33.6373 30.9182 28.235 37.2827 28.235C43.6473 28.235 48.8313 33.6375 48.8313 40.2782C48.8313 45.5016 41.0746 55.3086 37.2827 59.5683Z" fill="#1E2C24"/>
</svg>
