<svg width="194" height="48" viewBox="0 0 194 48" fill="none" xmlns="http://www.w3.org/2000/svg">
<g clip-path="url(#clip0_134_6256)">
<path fill-rule="evenodd" clip-rule="evenodd" d="M27.7003 47.7538C28.1423 47.6226 28.4779 47.3682 28.7071 46.9908C28.9363 46.5969 28.9854 46.08 28.8544 45.44L22.5924 22.1785V22.3261H12.1802V22.0554L6.99873 41.0092C6.58945 42.519 6.58126 43.9303 6.97417 45.2431C7.35071 46.5559 8.15291 47.3928 9.38076 47.7538H0C0.62211 47.5733 1.26877 47.2697 1.93999 46.8431C2.59484 46.4164 3.21696 45.8913 3.80633 45.2677C4.3957 44.6605 4.91957 43.9959 5.37797 43.2738C5.81999 42.5354 6.15561 41.7805 6.38481 41.0092L17.0671 1.84615C16.6578 0.894359 15.9375 0.278974 14.9061 0H23.943C23.4846 0.147692 23.149 0.410252 22.9362 0.787688C22.707 1.18153 22.6579 1.69846 22.7889 2.33846L34.3552 45.44C34.7153 46.72 35.5094 47.4913 36.7372 47.7538H27.7003ZM22.4696 21.7108L17.4354 2.95385L12.3276 21.7108H22.4696Z" fill="#775200"/>
<path d="M83.3212 46.9169C82.9774 46.4903 82.8301 45.9979 82.8792 45.44V16.8615C81.7987 18.0431 80.7919 19.2738 79.8587 20.5538C78.9256 21.8174 78.0742 23.1303 77.3048 24.4923V45.44C77.3539 45.9979 77.2066 46.4903 76.8628 46.9169C76.519 47.3436 76.1015 47.6226 75.6104 47.7538H84.5982C84.0907 47.6226 83.665 47.3436 83.3212 46.9169Z" fill="#775200"/>
<path d="M71.4611 46.9171C71.1337 46.4904 70.9699 45.9981 70.9699 45.4402V35.8894C70.2005 37.2515 69.3492 38.5725 68.416 39.8525C67.4828 41.1325 66.476 42.3633 65.3955 43.5448C65.4446 44.1356 65.6411 44.6771 65.9849 45.1694C66.3123 45.6781 66.7543 46.1212 67.3109 46.4986C67.8512 46.8925 68.4406 47.2043 69.0791 47.434C69.7012 47.6638 70.3315 47.7704 70.9699 47.754H72.6889C72.1814 47.6228 71.7721 47.3438 71.4611 46.9171Z" fill="#775200"/>
<path d="M93.2921 12.5538C94.1597 12.882 94.921 13.3989 95.5759 14.1045C96.2307 14.8102 96.7628 15.7373 97.1721 16.8861C97.434 17.6409 97.6141 18.4943 97.7123 19.4461H103.262C103.115 18.1661 102.787 17.0337 102.28 16.0491C101.56 14.6379 100.61 13.5138 99.4313 12.6768C98.2526 11.8235 96.8856 11.2409 95.3303 10.9291C93.7914 10.6173 92.187 10.5681 90.5171 10.7814C87.5539 11.1589 85.0082 12.3404 82.8799 14.3261V10.9291H75.611C76.1022 11.0604 76.5197 11.3476 76.8635 11.7907C77.2073 12.2173 77.3546 12.7014 77.3055 13.243V21.1691C76.1759 22.9414 75.0954 24.7794 74.064 26.683C73.0489 28.603 72.0176 30.5148 70.9698 32.4184V10.9291H63.7009C64.1921 11.0604 64.6095 11.3476 64.9533 11.7907C65.2971 12.2173 65.4445 12.7014 65.3954 13.243V40.7384C63.8892 42.4614 62.2439 43.8563 60.4594 44.923C58.6749 46.0061 56.6203 46.5476 54.2956 46.5476C53.035 46.5476 51.8154 46.203 50.6366 45.5137C49.4415 44.8245 48.3937 43.7661 47.4933 42.3384C46.5929 40.9107 45.8644 39.1137 45.3078 36.9476C44.7675 34.7978 44.4974 32.2378 44.4974 29.2676V10.7814H37.2285C37.7197 10.962 38.1371 11.2737 38.4809 11.7168C38.8247 12.1435 38.9721 12.6112 38.923 13.1199V29.2676C38.923 32.5989 39.3895 35.4296 40.3227 37.7599C41.2395 40.1066 42.4428 42.0184 43.9326 43.4953C45.406 44.9722 47.0431 46.0553 48.844 46.7445C50.6612 47.4173 52.4784 47.7538 54.2956 47.7538C56.2438 47.7538 58.0365 47.3845 59.6736 46.6461C61.3107 45.8912 62.8005 44.8737 64.143 43.5937C65.469 42.3302 66.7132 40.845 67.8756 39.1384C69.038 37.4317 70.1512 35.643 71.2154 33.7722C72.2795 31.9179 73.3354 30.0143 74.3832 28.0614C75.431 26.0922 76.4951 24.2214 77.5756 22.4491L77.6493 22.3261C77.7803 22.0471 77.9112 21.842 78.0422 21.7107C78.1895 21.4809 78.3532 21.2266 78.5333 20.9476C78.5824 20.8655 78.6725 20.7507 78.8034 20.603C78.8526 20.5209 78.8935 20.4307 78.9262 20.3322C78.9753 20.2502 79.049 20.1599 79.1473 20.0614C79.1964 20.0286 79.2618 19.9137 79.3437 19.7168C79.5729 19.5035 79.753 19.2573 79.884 18.9784L80.105 18.7814C80.2851 18.5025 80.4406 18.2973 80.5716 18.1661L80.768 17.9445C80.9481 17.682 81.1282 17.4604 81.3083 17.2799C81.4556 17.0994 81.5866 16.9517 81.7012 16.8368C81.8158 16.722 81.9386 16.5907 82.0695 16.443L82.7571 15.7784C83.7885 14.7773 85 13.9076 86.3916 13.1691C87.7667 12.4471 89.1829 12.0861 90.6399 12.0861C91.5567 12.0861 92.4407 12.242 93.2921 12.5538Z" fill="#775200"/>
<path fill-rule="evenodd" clip-rule="evenodd" d="M125.314 45.4399C125.314 45.9979 125.469 46.4902 125.78 46.9168C126.108 47.3435 126.542 47.6225 127.082 47.7538H125.314C124.266 47.7702 123.235 47.4912 122.22 46.9168C121.205 46.3425 120.492 45.604 120.083 44.7014C118.675 45.7517 117.145 46.5312 115.491 47.0399C113.821 47.565 112.127 47.803 110.408 47.7538C108.23 47.7702 106.209 47.4091 104.342 46.6707C102.492 45.9486 100.863 44.964 99.4553 43.7168C98.0474 42.4532 96.9424 40.9927 96.1402 39.3353C95.3543 37.6779 94.9614 35.9138 94.9614 34.043C94.9614 31.7784 95.3707 29.8173 96.1893 28.1599C97.0078 26.5025 98.072 25.124 99.3817 24.0245C100.691 22.925 102.181 22.1045 103.851 21.563C105.505 21.0214 107.166 20.7507 108.836 20.7507C111.243 20.7507 113.469 21.2594 115.516 22.2768C117.562 23.3107 118.994 24.8286 119.813 26.8307V18.9784C119.813 17.6655 119.527 16.5414 118.954 15.6061C118.381 14.6707 117.628 13.8994 116.694 13.2922C115.778 12.6686 114.738 12.2091 113.576 11.9138C112.413 11.6184 111.243 11.4707 110.064 11.4707C109.065 11.4707 108.116 11.5773 107.215 11.7907C106.299 11.9876 105.488 12.2912 104.784 12.7014C104.08 13.1117 103.515 13.6204 103.09 14.2276C102.664 14.8512 102.451 15.5486 102.451 16.3199H101.837C101.837 15.3681 102.14 14.5066 102.746 13.7353C103.368 12.9476 104.178 12.3076 105.177 11.8153C106.176 11.3066 107.322 10.9209 108.615 10.6584C109.908 10.3794 111.235 10.2399 112.593 10.2399C114.132 10.2399 115.663 10.4122 117.185 10.7568C118.708 11.1014 120.067 11.6348 121.262 12.3568C122.473 13.0789 123.448 13.9897 124.184 15.0891C124.937 16.1722 125.314 17.4686 125.314 18.9784V45.4399ZM119.813 30.1538C119.813 28.8902 119.551 27.7415 119.027 26.7076C118.503 25.6902 117.824 24.8286 116.989 24.123C116.138 23.4173 115.172 22.8676 114.091 22.4738C112.994 22.0963 111.857 21.9076 110.678 21.9076C109.45 21.9076 108.239 22.1291 107.043 22.5722C105.832 23.0317 104.751 23.762 103.802 24.763C102.852 25.764 102.083 27.0276 101.494 28.5538C100.904 30.0799 100.61 31.9097 100.61 34.043C100.61 35.9138 100.871 37.645 101.395 39.2368C101.919 40.8286 102.623 42.2153 103.507 43.3968C104.391 44.5784 105.423 45.4973 106.601 46.1538C107.78 46.8102 109.049 47.1384 110.408 47.1384C111.767 47.1384 113.019 46.7856 114.165 46.0799C115.295 45.3743 116.277 44.4225 117.112 43.2245C117.947 42.0102 118.602 40.6071 119.076 39.0153C119.567 37.4235 119.813 35.7661 119.813 34.043V30.1538Z" fill="#775200"/>
<path d="M161.314 10.9293C160.725 11.0606 160.094 11.3478 159.423 11.7909C158.736 12.2175 158.097 12.7345 157.508 13.3416C156.918 13.9652 156.395 14.6463 155.936 15.3847C155.494 16.1396 155.158 16.9027 154.929 17.6739L146.825 47.7539H141.251L130.962 13.2432C130.683 11.9796 129.914 11.2083 128.653 10.9293H137.641C137.183 11.0606 136.814 11.356 136.536 11.8155C136.307 12.275 136.307 12.7509 136.536 13.2432L146.482 46.597L154.315 17.6739C154.725 16.1806 154.733 14.7611 154.34 13.4155C153.963 12.0698 153.161 11.2411 151.933 10.9293H161.314Z" fill="#775200"/>
<path fill-rule="evenodd" clip-rule="evenodd" d="M166.152 28.8738C166.152 32.0573 166.586 34.765 167.453 36.9968C168.305 39.2122 169.451 41.0255 170.891 42.4368C172.315 43.8481 173.92 44.8738 175.704 45.5138C177.505 46.1538 179.314 46.4738 181.131 46.4738C183.538 46.4738 185.805 45.9733 187.934 44.9722C190.062 43.9712 191.715 42.6091 192.894 40.8861L193.385 41.1568C191.797 43.5691 189.784 45.325 187.344 46.4245C184.921 47.5404 182.376 48.0984 179.707 48.0984C177.333 48.0984 174.992 47.6717 172.684 46.8184C170.375 45.9486 168.313 44.6932 166.495 43.0522C164.678 41.4112 163.213 39.4009 162.1 37.0214C160.987 34.6255 160.454 31.9097 160.504 28.8738C160.553 25.7394 161.109 23.0235 162.173 20.7261C163.238 18.4286 164.621 16.5414 166.324 15.0645C168.026 13.5876 169.942 12.4963 172.07 11.7907C174.198 11.085 176.351 10.7322 178.528 10.7322C180.526 10.7322 182.449 11.0112 184.299 11.5691C186.133 12.1435 187.762 12.964 189.186 14.0307C190.61 15.0974 191.756 16.4184 192.624 17.9938C193.492 19.5527 193.926 21.3332 193.926 23.3353C193.926 25.3045 193.5 27.0276 192.649 28.5045C191.814 29.9814 190.717 31.1958 189.358 32.1476C187.999 33.0994 186.444 33.8132 184.692 34.2891C182.94 34.765 181.164 35.003 179.363 35.003C177.857 35.003 176.4 34.8471 174.992 34.5353C173.584 34.2071 172.283 33.7394 171.088 33.1322C169.876 32.525 168.845 31.7784 167.993 30.8922C167.126 30.0061 166.512 28.964 166.152 27.7661V28.8738ZM166.422 24.5907C166.324 26.002 166.561 27.2656 167.134 28.3814C167.707 29.4973 168.493 30.4163 169.491 31.1384C170.49 31.8604 171.644 32.4184 172.954 32.8122C174.264 33.1897 175.622 33.3784 177.03 33.3784C178.487 33.3784 179.912 33.1732 181.303 32.763C182.679 32.3527 183.915 31.7456 185.011 30.9415C186.092 30.1209 186.96 29.0789 187.614 27.8153C188.286 26.5681 188.621 25.083 188.621 23.3599C188.621 21.4563 188.327 19.7743 187.737 18.3138C187.148 16.8532 186.37 15.6143 185.404 14.5968C184.455 13.563 183.358 12.7917 182.114 12.283C180.87 11.7579 179.584 11.4953 178.258 11.4953C176.998 11.4953 175.721 11.7579 174.427 12.283C173.134 12.8081 171.955 13.604 170.891 14.6707C169.811 15.7373 168.877 17.0912 168.092 18.7322C167.289 20.3568 166.733 22.3097 166.422 24.5907Z" fill="#775200"/>
</g>
<defs>
<clipPath id="clip0_134_6256">
<rect width="194" height="48" fill="white"/>
</clipPath>
</defs>
</svg>
