<svg width="194" height="48" viewBox="0 0 194 48" fill="none" xmlns="http://www.w3.org/2000/svg">
<g clip-path="url(#clip0_2625_2077)">
<path fill-rule="evenodd" clip-rule="evenodd" d="M27.7003 47.7538C28.1423 47.6226 28.4779 47.3682 28.7071 46.9908C28.9363 46.5969 28.9854 46.08 28.8544 45.44L22.5924 22.1785V22.3261H12.1802V22.0554L6.99873 41.0092C6.58945 42.519 6.58126 43.9303 6.97417 45.2431C7.35071 46.5559 8.15291 47.3928 9.38076 47.7538H0C0.62211 47.5733 1.26877 47.2697 1.93999 46.8431C2.59484 46.4164 3.21696 45.8913 3.80633 45.2677C4.3957 44.6605 4.91957 43.9959 5.37797 43.2738C5.81999 42.5354 6.15561 41.7805 6.38481 41.0092L17.0671 1.84615C16.6578 0.894359 15.9375 0.278974 14.9061 0H23.943C23.4846 0.147692 23.149 0.410252 22.9362 0.787688C22.707 1.18153 22.6579 1.69846 22.7889 2.33846L34.3552 45.44C34.7153 46.72 35.5094 47.4913 36.7372 47.7538H27.7003ZM22.4696 21.7108L17.4354 2.95385L12.3276 21.7108H22.4696Z" fill="#334F3E"/>
<path d="M83.3222 46.9167C82.9784 46.49 82.8311 45.9977 82.8802 45.4398V16.8613C81.7997 18.0429 80.7929 19.2736 79.8597 20.5536C78.9265 21.8172 78.0752 23.13 77.3058 24.4921V45.4398C77.3549 45.9977 77.2075 46.49 76.8637 46.9167C76.5199 47.3434 76.1025 47.6224 75.6113 47.7536H84.5992C84.0917 47.6224 83.666 47.3434 83.3222 46.9167Z" fill="#334F3E"/>
<path d="M71.4601 46.9164C71.1327 46.4897 70.969 45.9974 70.969 45.4394V35.8887C70.1995 37.2507 69.3482 38.5717 68.415 39.8517C67.4819 41.1317 66.475 42.3625 65.3945 43.5441C65.4436 44.1348 65.6401 44.6764 65.9839 45.1687C66.3113 45.6774 66.7533 46.1205 67.31 46.4979C67.8502 46.8917 68.4396 47.2036 69.0781 47.4333C69.7002 47.663 70.3305 47.7697 70.969 47.7533H72.688C72.1804 47.622 71.7712 47.343 71.4601 46.9164Z" fill="#334F3E"/>
<path d="M93.2921 12.5547C94.1597 12.8829 94.921 13.3998 95.5759 14.1054C96.2307 14.8111 96.7628 15.7382 97.1721 16.887C97.434 17.6418 97.6141 18.4952 97.7123 19.447H103.262C103.115 18.167 102.787 17.0346 102.28 16.05C101.56 14.6388 100.61 13.5147 99.4313 12.6777C98.2526 11.8244 96.8856 11.2418 95.3303 10.93C93.7914 10.6182 92.187 10.569 90.5171 10.7823C87.5539 11.1598 85.0082 12.3413 82.8799 14.327V10.93H75.611C76.1022 11.0613 76.5197 11.3485 76.8635 11.7916C77.2073 12.2182 77.3546 12.7023 77.3055 13.2439V21.17C76.1759 22.9423 75.0954 24.7803 74.064 26.6839C73.0489 28.6039 72.0176 30.5157 70.9698 32.4193V10.93H63.7009C64.1921 11.0613 64.6095 11.3485 64.9533 11.7916C65.2971 12.2182 65.4445 12.7023 65.3954 13.2439V40.7393C63.8892 42.4623 62.2439 43.8572 60.4594 44.9239C58.6749 46.007 56.6203 46.5485 54.2956 46.5485C53.035 46.5485 51.8154 46.2039 50.6366 45.5146C49.4415 44.8254 48.3937 43.767 47.4933 42.3393C46.5929 40.9116 45.8644 39.1146 45.3078 36.9485C44.7675 34.7987 44.4974 32.2387 44.4974 29.2685V10.7823H37.2285C37.7197 10.9629 38.1371 11.2746 38.4809 11.7177C38.8247 12.1444 38.9721 12.6121 38.923 13.1208V29.2685C38.923 32.5998 39.3895 35.4305 40.3227 37.7608C41.2395 40.1075 42.4428 42.0193 43.9326 43.4962C45.406 44.9731 47.0431 46.0562 48.844 46.7454C50.6612 47.4182 52.4784 47.7547 54.2956 47.7547C56.2438 47.7547 58.0365 47.3854 59.6736 46.647C61.3107 45.8921 62.8005 44.8746 64.143 43.5946C65.469 42.3311 66.7132 40.8459 67.8756 39.1393C69.038 37.4326 70.1512 35.6439 71.2154 33.7731C72.2795 31.9188 73.3354 30.0152 74.3832 28.0623C75.431 26.0931 76.4951 24.2223 77.5756 22.45L77.6493 22.327C77.7803 22.048 77.9112 21.8429 78.0422 21.7116C78.1895 21.4818 78.3532 21.2275 78.5333 20.9485C78.5824 20.8664 78.6725 20.7516 78.8034 20.6039C78.8526 20.5218 78.8935 20.4316 78.9262 20.3331C78.9753 20.2511 79.049 20.1608 79.1473 20.0623C79.1964 20.0295 79.2618 19.9146 79.3437 19.7177C79.5729 19.5044 79.753 19.2582 79.884 18.9793L80.105 18.7823C80.2851 18.5034 80.4406 18.2982 80.5716 18.167L80.768 17.9454C80.9481 17.6829 81.1282 17.4613 81.3083 17.2808C81.4556 17.1003 81.5866 16.9526 81.7012 16.8377C81.8158 16.7229 81.9386 16.5916 82.0695 16.4439L82.7571 15.7793C83.7885 14.7782 85 13.9085 86.3916 13.17C87.7667 12.448 89.1829 12.087 90.6399 12.087C91.5567 12.087 92.4407 12.2429 93.2921 12.5547Z" fill="#334F3E"/>
<path fill-rule="evenodd" clip-rule="evenodd" d="M125.313 45.4402C125.313 45.9982 125.469 46.4905 125.78 46.9172C126.107 47.3438 126.541 47.6228 127.081 47.7541H125.313C124.266 47.7705 123.234 47.4915 122.219 46.9172C121.204 46.3428 120.492 45.6043 120.083 44.7018C118.675 45.752 117.144 46.5315 115.491 47.0402C113.821 47.5654 112.126 47.8033 110.407 47.7541C108.23 47.7705 106.208 47.4095 104.342 46.671C102.492 45.949 100.863 44.9643 99.4549 43.7172C98.0469 42.4536 96.9419 40.9931 96.1397 39.3356C95.3538 37.6782 94.9609 35.9141 94.9609 34.0433C94.9609 31.7787 95.3702 29.8177 96.1888 28.1602C97.0074 26.5028 98.0715 25.1243 99.3812 24.0249C100.691 22.9254 102.181 22.1049 103.851 21.5633C105.504 21.0218 107.166 20.751 108.836 20.751C111.242 20.751 113.469 21.2597 115.515 22.2772C117.562 23.311 118.994 24.829 119.813 26.831V18.9787C119.813 17.6659 119.526 16.5418 118.953 15.6064C118.38 14.671 117.627 13.8997 116.694 13.2925C115.777 12.669 114.737 12.2095 113.575 11.9141C112.413 11.6187 111.242 11.471 110.063 11.471C109.065 11.471 108.115 11.5777 107.215 11.791C106.298 11.9879 105.488 12.2915 104.784 12.7018C104.08 13.112 103.515 13.6208 103.089 14.2279C102.664 14.8515 102.451 15.549 102.451 16.3202H101.837C101.837 15.3684 102.14 14.5069 102.745 13.7356C103.368 12.9479 104.178 12.3079 105.177 11.8156C106.175 11.3069 107.321 10.9213 108.615 10.6587C109.908 10.3797 111.234 10.2402 112.593 10.2402C114.132 10.2402 115.662 10.4125 117.185 10.7572C118.708 11.1018 120.066 11.6351 121.261 12.3572C122.473 13.0792 123.447 13.99 124.184 15.0895C124.937 16.1725 125.313 17.469 125.313 18.9787V45.4402ZM119.813 30.1541C119.813 28.8905 119.551 27.7418 119.027 26.7079C118.503 25.6905 117.823 24.829 116.989 24.1233C116.137 23.4177 115.171 22.8679 114.091 22.4741C112.994 22.0966 111.856 21.9079 110.677 21.9079C109.45 21.9079 108.238 22.1295 107.043 22.5725C105.831 23.032 104.751 23.7623 103.801 24.7633C102.852 25.7643 102.082 27.0279 101.493 28.5541C100.904 30.0802 100.609 31.91 100.609 34.0433C100.609 35.9141 100.871 37.6454 101.395 39.2372C101.919 40.829 102.623 42.2156 103.507 43.3972C104.391 44.5787 105.422 45.4977 106.601 46.1541C107.78 46.8105 109.048 47.1387 110.407 47.1387C111.766 47.1387 113.018 46.7859 114.164 46.0802C115.294 45.3746 116.276 44.4228 117.111 43.2249C117.946 42.0105 118.601 40.6074 119.076 39.0156C119.567 37.4238 119.813 35.7664 119.813 34.0433V30.1541Z" fill="#334F3E"/>
<path d="M161.313 10.9297C160.724 11.061 160.093 11.3481 159.422 11.7912C158.735 12.2179 158.096 12.7348 157.507 13.342C156.917 13.9656 156.394 14.6466 155.935 15.3851C155.493 16.1399 155.157 16.903 154.928 17.6743L146.824 47.7543H141.25L130.961 13.2435C130.682 11.9799 129.913 11.2087 128.652 10.9297H137.64C137.182 11.061 136.813 11.3564 136.535 11.8158C136.306 12.2753 136.306 12.7512 136.535 13.2435L146.481 46.5974L154.314 17.6743C154.724 16.181 154.732 14.7615 154.339 13.4158C153.962 12.0702 153.16 11.2415 151.932 10.9297H161.313Z" fill="#334F3E"/>
<path fill-rule="evenodd" clip-rule="evenodd" d="M166.151 28.874C166.151 32.0576 166.585 34.7652 167.453 36.997C168.304 39.2124 169.45 41.0258 170.891 42.437C172.315 43.8483 173.919 44.874 175.704 45.514C177.505 46.154 179.314 46.474 181.131 46.474C183.538 46.474 185.805 45.9735 187.933 44.9724C190.061 43.9714 191.715 42.6093 192.894 40.8863L193.385 41.157C191.797 43.5694 189.783 45.3252 187.344 46.4247C184.921 47.5406 182.375 48.0986 179.707 48.0986C177.333 48.0986 174.992 47.6719 172.683 46.8186C170.375 45.9488 168.312 44.6934 166.495 43.0524C164.678 41.4114 163.213 39.4011 162.099 37.0217C160.986 34.6258 160.454 31.9099 160.503 28.874C160.552 25.7396 161.109 23.0237 162.173 20.7263C163.237 18.4288 164.62 16.5417 166.323 15.0647C168.026 13.5878 169.941 12.4965 172.069 11.7909C174.198 11.0852 176.351 10.7324 178.528 10.7324C180.525 10.7324 182.449 11.0114 184.299 11.5694C186.132 12.1437 187.761 12.9642 189.186 14.0309C190.61 15.0976 191.756 16.4186 192.624 17.994C193.491 19.5529 193.925 21.3335 193.925 23.3355C193.925 25.3047 193.499 27.0278 192.648 28.5047C191.813 29.9817 190.716 31.196 189.358 32.1478C187.999 33.0996 186.443 33.8134 184.692 34.2893C182.94 34.7652 181.164 35.0032 179.363 35.0032C177.857 35.0032 176.4 34.8473 174.992 34.5355C173.584 34.2073 172.282 33.7396 171.087 33.1324C169.876 32.5252 168.844 31.7786 167.993 30.8924C167.125 30.0063 166.511 28.9642 166.151 27.7663V28.874ZM166.421 24.5909C166.323 26.0022 166.56 27.2658 167.133 28.3817C167.706 29.4976 168.492 30.4165 169.491 31.1386C170.49 31.8606 171.644 32.4186 172.953 32.8124C174.263 33.1899 175.622 33.3786 177.03 33.3786C178.487 33.3786 179.911 33.1734 181.303 32.7632C182.678 32.3529 183.914 31.7458 185.011 30.9417C186.091 30.1211 186.959 29.0791 187.614 27.8155C188.285 26.5683 188.621 25.0832 188.621 23.3601C188.621 21.4565 188.326 19.7745 187.737 18.314C187.147 16.8535 186.37 15.6145 185.404 14.597C184.454 13.5632 183.357 12.7919 182.113 12.2832C180.869 11.7581 179.584 11.4955 178.258 11.4955C176.997 11.4955 175.72 11.7581 174.427 12.2832C173.134 12.8083 171.955 13.6042 170.891 14.6709C169.81 15.7376 168.877 17.0914 168.091 18.7324C167.289 20.357 166.732 22.3099 166.421 24.5909Z" fill="#334F3E"/>
</g>
<defs>
<clipPath id="clip0_2625_2077">
<rect width="194" height="48" fill="white"/>
</clipPath>
</defs>
</svg>
