<svg width="24" height="24" viewBox="0 0 24 24" fill="none" xmlns="http://www.w3.org/2000/svg">
<path d="M5.89594 10.784C6.16261 8.736 7.33061 7.712 9.39994 7.712H14.5999C16.6693 7.712 17.8373 8.736 18.1039 10.784L18.8079 16C18.9466 17.056 18.6639 17.9867 17.9599 18.792C17.2559 19.5973 16.3706 20 15.3039 20H8.69594C7.62928 20 6.74394 19.5973 6.03994 18.792C5.33594 17.9867 5.05328 17.056 5.19194 16L5.89594 10.784ZM6.99994 10.928L6.29594 16.144C6.19994 16.8693 6.39461 17.5093 6.87994 18.064C7.36528 18.6187 7.97061 18.896 8.69594 18.896H15.3039C16.0293 18.896 16.6346 18.6187 17.1199 18.064C17.6053 17.5093 17.7999 16.8693 17.7039 16.144L16.9999 10.928C16.8186 9.53067 16.0186 8.832 14.5999 8.832H9.39994C7.98128 8.832 7.18128 9.53067 6.99994 10.928ZM14.4239 9.76V7.536C14.4239 5.91467 13.6159 5.104 11.9999 5.104C10.3839 5.104 9.57594 5.91467 9.57594 7.536V9.76C9.57594 9.92 9.52261 10.0533 9.41594 10.16C9.30928 10.2667 9.17861 10.32 9.02394 10.32C8.86928 10.32 8.73594 10.2667 8.62394 10.16C8.51194 10.0533 8.45594 9.92 8.45594 9.76V7.536C8.45594 6.55467 8.80261 5.72 9.49594 5.032C10.1893 4.344 11.0239 4 11.9999 4C12.9759 4 13.8106 4.344 14.5039 5.032C15.1973 5.72 15.5439 6.55467 15.5439 7.536V9.76C15.5439 9.92 15.4879 10.0533 15.3759 10.16C15.2639 10.2667 15.1306 10.32 14.9759 10.32C14.8213 10.32 14.6906 10.2667 14.5839 10.16C14.4773 10.0533 14.4239 9.92 14.4239 9.76Z" fill="#334F3E"/>
</svg>
