<svg width="15" height="28" viewBox="0 0 15 28" fill="none" xmlns="http://www.w3.org/2000/svg">
<g clip-path="url(#clip0_3058_12503)">
<path d="M3.21887 10.112C3.21887 12.9149 4.61743 14.3164 7.41454 14.3164C10.2117 14.3164 11.6102 12.9179 11.6102 10.1207C11.6102 7.32363 10.2146 5.92507 7.42334 5.92507C6.01599 5.92507 4.9634 6.27398 4.26559 6.97179C3.56777 7.66961 3.21887 8.71633 3.21887 10.112ZM4.55586 10.112C4.55586 8.2003 5.51168 7.24447 7.42334 7.24447C8.20911 7.24447 8.88347 7.52594 9.44641 8.08888C10.0094 8.65182 10.2908 9.32618 10.2908 10.112C10.2908 12.0236 9.335 12.9794 7.42334 12.9794C6.62584 12.9794 5.94855 12.7009 5.39147 12.1438C4.83439 11.5867 4.55586 10.9095 4.55586 10.112ZM0.580078 18.8903C0.580078 17.7293 1.11956 16.9552 2.19854 16.5682C5.68174 15.325 9.15908 15.325 12.6306 16.5682C13.7213 16.9552 14.2666 17.7293 14.2666 18.8903V20.0514C14.2666 20.7785 13.991 21.3796 13.4398 21.8546C12.8886 22.3295 12.2553 22.5143 11.5399 22.4087L10.6954 22.2856C8.51404 21.9806 6.32678 21.9806 4.13365 22.2856L3.28924 22.4087C2.57383 22.5143 1.94345 22.3295 1.3981 21.8546C0.852753 21.3796 0.580078 20.7785 0.580078 20.0514V18.8903ZM1.89947 18.8903V20.0514C1.89947 20.368 2.02262 20.6319 2.2689 20.843C2.51519 21.0541 2.79666 21.1421 3.11332 21.1069L3.95773 20.9838C6.26814 20.6554 8.57854 20.6554 10.889 20.9838L11.7334 21.1069C12.05 21.1421 12.3286 21.0541 12.569 20.843C12.8094 20.6319 12.9296 20.368 12.9296 20.0514V18.8903C12.9296 18.3508 12.6833 17.9931 12.1908 17.8172C9.01248 16.6796 5.8342 16.6796 2.65593 17.8172C2.15162 17.9931 1.89947 18.3508 1.89947 18.8903Z" fill="#4E3C31"/>
</g>
<defs>
<clipPath id="clip0_3058_12503">
<rect width="14.83" height="28" fill="white" transform="matrix(1 0 0 -1 0 28)"/>
</clipPath>
</defs>
</svg>
