<svg width="18" height="40" viewBox="0 0 18 40" fill="none" xmlns="http://www.w3.org/2000/svg">
<path d="M2.29798 18.6623C2.59117 16.4106 3.87534 15.2847 6.1505 15.2847H11.8677C14.1429 15.2847 15.427 16.4106 15.7202 18.6623L16.4942 24.3971C16.6467 25.5581 16.3359 26.5813 15.5619 27.4668C14.7879 28.3522 13.8145 28.7949 12.6417 28.7949H5.37648C4.20372 28.7949 3.23033 28.3522 2.4563 27.4668C1.68228 26.5813 1.3715 25.5581 1.52396 24.3971L2.29798 18.6623ZM3.51179 18.8206L2.73777 24.5554C2.63222 25.3529 2.84625 26.0565 3.37985 26.6664C3.91346 27.2762 4.579 27.5811 5.37648 27.5811H12.6417C13.4392 27.5811 14.1047 27.2762 14.6383 26.6664C15.172 26.0565 15.386 25.3529 15.2804 24.5554L14.5064 18.8206C14.307 17.2843 13.4275 16.5161 11.8677 16.5161H6.1505C4.59073 16.5161 3.71116 17.2843 3.51179 18.8206ZM11.6742 17.5364V15.0912C11.6742 13.3086 10.7858 12.4173 9.0091 12.4173C7.23237 12.4173 6.344 13.3086 6.344 15.0912V17.5364C6.344 17.7123 6.28537 17.8589 6.16809 17.9762C6.05081 18.0935 5.90715 18.1521 5.7371 18.1521C5.56705 18.1521 5.42045 18.0935 5.29732 17.9762C5.17418 17.8589 5.11261 17.7123 5.11261 17.5364V15.0912C5.11261 14.0123 5.49375 13.0946 6.25605 12.3382C7.01834 11.5817 7.93603 11.2035 9.0091 11.2035C10.0822 11.2035 10.9999 11.5817 11.7622 12.3382C12.5244 13.0946 12.9056 14.0123 12.9056 15.0912V17.5364C12.9056 17.7123 12.844 17.8589 12.7209 17.9762C12.5977 18.0935 12.4511 18.1521 12.2811 18.1521C12.111 18.1521 11.9674 18.0935 11.8501 17.9762C11.7328 17.8589 11.6742 17.7123 11.6742 17.5364Z" fill="white"/>
</svg>
