<svg width="300" height="300" viewBox="0 0 300 300" fill="none" xmlns="http://www.w3.org/2000/svg">
<path d="M108.008 208.889C115.559 208.889 121.68 215.01 121.68 222.561C121.68 230.111 115.559 236.232 108.008 236.232C100.457 236.232 94.3359 230.111 94.3359 222.561C94.3359 215.01 100.457 208.889 108.008 208.889Z" fill="white"/>
<path d="M164.648 208.889C172.199 208.889 178.32 215.01 178.32 222.561C178.32 230.111 172.199 236.232 164.648 236.232C157.098 236.232 150.977 230.111 150.977 222.561C150.977 215.01 157.098 208.889 164.648 208.889Z" fill="white"/>
<path d="M220.312 204.983C227.324 204.983 233.008 199.3 233.008 192.288C233.008 185.277 227.324 179.593 220.312 179.593C213.301 179.593 207.617 185.277 207.617 192.288C207.617 199.3 213.301 204.983 220.312 204.983Z" fill="white"/>
<path d="M83.5938 79.9824C88.9883 79.9824 93.3594 84.3535 93.3594 89.748C93.3594 95.1426 88.9883 99.5137 83.5938 99.5137C78.1992 99.5137 73.8281 95.1426 73.8281 89.748C73.8281 84.3535 78.1992 79.9824 83.5938 79.9824Z" fill="white"/>
<path d="M108.008 216.701C111.242 216.701 113.867 219.326 113.867 222.561C113.867 225.795 111.242 228.42 108.008 228.42C104.773 228.42 102.148 225.795 102.148 222.561C102.148 219.326 104.773 216.701 108.008 216.701Z" fill="#EED9CB"/>
<path d="M164.648 216.701C167.882 216.701 170.508 219.326 170.508 222.561C170.508 225.795 167.882 228.42 164.648 228.42C161.414 228.42 158.789 225.795 158.789 222.561C158.789 219.326 161.414 216.701 164.648 216.701Z" fill="#EED9CB"/>
<path d="M220.312 111.232C224.086 111.232 227.148 114.295 227.148 118.068C227.148 121.842 224.086 124.904 220.312 124.904H205.113L184.18 208.889C180 208.889 83.8363 208.889 79.6875 208.889C75.9328 208.889 72.8516 205.849 72.8516 202.053C72.8516 198.275 75.9141 195.217 79.6875 195.217H173.012L176.418 181.545C176.833 179.879 192.282 117.904 193.945 111.232H220.312Z" fill="#EED9CB"/>
<path d="M82.6172 120.999C82.7223 121.813 90.3613 181.017 90.4297 181.546H176.418L191.512 120.999C187.313 120.999 87.2383 120.999 82.6172 120.999Z" fill="white"/>
<path d="M151.154 65.1934C166.023 65.1934 178.077 77.2472 178.077 92.1164C178.077 106.986 166.023 119.04 151.154 119.04C136.284 119.04 124.23 106.986 124.23 92.1164C124.23 77.2472 136.284 65.1934 151.154 65.1934Z" fill="white"/>
<path d="M164.073 79.1973C165.573 80.7011 165.573 83.1357 164.073 84.6357L156.592 92.1165L164.073 99.5973C164.823 100.347 165.2 101.332 165.2 102.316C165.2 103.301 164.823 104.286 164.073 105.036C162.569 106.536 160.134 106.536 158.634 105.036L151.154 97.555L143.673 105.036C142.923 105.786 141.938 106.163 140.954 106.163C139.969 106.163 138.984 105.786 138.234 105.036C136.734 103.532 136.734 101.097 138.234 99.5973L145.715 92.1165L138.234 84.6357C136.734 83.1357 136.734 80.7011 138.234 79.1973C139.738 77.6973 142.173 77.6973 143.673 79.1973L151.154 86.678L158.634 79.1973C160.134 77.6973 162.569 77.6973 164.073 79.1973Z" fill="#EED9CB"/>
<path d="M140.956 108.085C139.415 108.085 137.966 107.485 136.877 106.395C134.63 104.143 134.631 100.483 136.877 98.2373L142.998 92.1161L136.877 85.995C134.63 83.7488 134.629 80.0896 136.875 77.8384C137.969 76.7477 139.417 76.1484 140.957 76.1484C142.498 76.1484 143.946 76.7481 145.034 77.8369L151.156 83.9581L157.277 77.8369C158.366 76.7481 159.814 76.1484 161.355 76.1484C162.895 76.1484 164.343 76.7477 165.434 77.8354C167.683 80.0896 167.682 83.7488 165.435 85.995L159.314 92.1161L165.435 98.2373C166.525 99.3269 167.126 100.776 167.126 102.316C167.126 103.857 166.525 105.305 165.435 106.395C164.343 107.484 162.895 108.083 161.355 108.083C159.814 108.083 158.366 107.484 157.277 106.395L151.156 100.274L145.035 106.395C143.945 107.485 142.497 108.085 140.956 108.085ZM140.958 79.995C140.443 79.995 139.959 80.1954 139.595 80.5584C138.849 81.3065 138.848 82.5269 139.596 83.2754L147.077 90.7561C147.828 91.5073 147.828 92.725 147.077 93.4757L139.596 100.957C138.848 101.705 138.848 102.925 139.598 103.677C139.96 104.039 140.443 104.239 140.956 104.239C141.469 104.239 141.951 104.038 142.315 103.675L149.796 96.1946C150.547 95.4438 151.764 95.4438 152.516 96.1946L159.996 103.675C160.359 104.038 160.841 104.237 161.354 104.237C161.868 104.237 162.352 104.037 162.716 103.674C163.078 103.312 163.278 102.829 163.278 102.316C163.278 101.803 163.078 101.32 162.715 100.957L155.234 93.4757C154.483 92.7246 154.483 91.5069 155.234 90.7561L162.715 83.2754C163.464 82.5269 163.463 81.3065 162.713 80.555C162.352 80.195 161.868 79.995 161.354 79.995C160.841 79.995 160.359 80.1946 159.996 80.5565L152.516 88.0373C151.764 88.7881 150.547 88.7881 149.796 88.0373L142.315 80.5565C141.953 80.1942 141.471 79.995 140.958 79.995Z" fill="#334F3E"/>
<path d="M151.155 120.962C135.249 120.962 122.309 108.021 122.309 92.1157C122.309 76.2099 135.249 63.2695 151.155 63.2695C167.061 63.2695 180.001 76.2099 180.001 92.1157C180.001 108.021 167.061 120.962 151.155 120.962ZM151.155 67.1157C137.37 67.1157 126.155 78.3307 126.155 92.1157C126.155 105.901 137.37 117.116 151.155 117.116C164.94 117.116 176.155 105.901 176.155 92.1157C176.155 78.3307 164.94 67.1157 151.155 67.1157Z" fill="#334F3E"/>
<path d="M220.312 156.154C221.931 156.154 223.242 154.843 223.242 153.225C223.242 151.607 221.931 150.295 220.312 150.295C218.694 150.295 217.383 151.607 217.383 153.225C217.383 154.843 218.694 156.154 220.312 156.154Z" fill="#334F3E"/>
<path d="M208.594 222.561C210.212 222.561 211.523 221.249 211.523 219.631C211.523 218.013 210.212 216.701 208.594 216.701C206.976 216.701 205.664 218.013 205.664 219.631C205.664 221.249 206.976 222.561 208.594 222.561Z" fill="#334F3E"/>
<path d="M202.734 81.9355C204.352 81.9355 205.664 80.6239 205.664 79.0059C205.664 77.3878 204.352 76.0762 202.734 76.0762C201.116 76.0762 199.805 77.3878 199.805 79.0059C199.805 80.6239 201.116 81.9355 202.734 81.9355Z" fill="#334F3E"/>
<path d="M67.9688 140.529C69.5868 140.529 70.8984 139.218 70.8984 137.6C70.8984 135.982 69.5868 134.67 67.9688 134.67C66.3507 134.67 65.0391 135.982 65.0391 137.6C65.0391 139.218 66.3507 140.529 67.9688 140.529Z" fill="#334F3E"/>
<path d="M67.9688 224.514C69.5868 224.514 70.8984 223.202 70.8984 221.584C70.8984 219.966 69.5868 218.654 67.9688 218.654C66.3507 218.654 65.0391 219.966 65.0391 221.584C65.0391 223.202 66.3507 224.514 67.9688 224.514Z" fill="#334F3E"/>
<path d="M176.418 183.498H90.4297C89.4477 183.498 88.6184 182.769 88.4926 181.795L80.6801 121.248C80.6083 120.691 80.7797 120.13 81.1504 119.708C81.5211 119.287 82.0555 119.045 82.6172 119.045H191.512C192.591 119.045 193.465 119.92 193.465 120.998C193.465 122.077 192.591 122.951 191.512 122.951H84.8383L92.1469 179.592H176.418C177.497 179.592 178.371 180.466 178.371 181.545C178.371 182.624 177.497 183.498 176.418 183.498Z" fill="#334F3E"/>
<path d="M184.18 210.842H79.6875C77.3445 210.842 75.1387 209.929 73.4766 208.272C71.8133 206.609 70.8984 204.401 70.8984 202.053C70.8984 197.207 74.841 193.264 79.6875 193.264H171.486L192.05 110.76C192.267 109.89 193.049 109.279 193.946 109.279H220.312C225.159 109.279 229.102 113.222 229.102 118.068C229.102 122.915 225.159 126.857 220.312 126.857H206.639L186.075 209.361C185.858 210.231 185.076 210.842 184.18 210.842ZM79.6875 197.17C76.9949 197.17 74.8047 199.36 74.8047 202.053C74.8047 203.357 75.3133 204.584 76.2367 205.508C77.1598 206.428 78.3859 206.936 79.6875 206.936H182.654L203.218 124.432C203.435 123.562 204.217 122.951 205.114 122.951H220.312C223.005 122.951 225.195 120.761 225.195 118.068C225.195 115.376 223.005 113.186 220.312 113.186H195.471L174.907 195.689C174.69 196.559 173.908 197.17 173.011 197.17H79.6875Z" fill="#334F3E"/>
<path d="M149.023 144.436H86.5234C85.4449 144.436 84.5703 143.561 84.5703 142.482C84.5703 141.404 85.4449 140.529 86.5234 140.529H149.023C150.102 140.529 150.977 141.404 150.977 142.482C150.977 143.561 150.102 144.436 149.023 144.436Z" fill="#334F3E"/>
<path d="M150.977 158.107H88.4766C87.398 158.107 86.5234 157.233 86.5234 156.154C86.5234 155.075 87.398 154.201 88.4766 154.201H150.977C152.055 154.201 152.93 155.075 152.93 156.154C152.93 157.233 152.055 158.107 150.977 158.107Z" fill="#334F3E"/>
<path d="M164.648 171.779H90.4297C89.3512 171.779 88.4766 170.905 88.4766 169.826C88.4766 168.747 89.3512 167.873 90.4297 167.873H164.648C165.727 167.873 166.602 168.747 166.602 169.826C166.602 170.905 165.727 171.779 164.648 171.779Z" fill="#334F3E"/>
<path d="M105.219 183.498C104.14 183.498 103.266 182.624 103.266 181.545V136.623C103.266 135.545 104.14 134.67 105.219 134.67C106.297 134.67 107.172 135.545 107.172 136.623V181.545C107.172 182.624 106.297 183.498 105.219 183.498Z" fill="#334F3E"/>
<path d="M124.953 183.498C123.875 183.498 123 182.624 123 181.545V136.623C123 135.545 123.875 134.67 124.953 134.67C126.032 134.67 126.906 135.545 126.906 136.623V181.545C126.906 182.624 126.032 183.498 124.953 183.498Z" fill="#334F3E"/>
<path d="M144.953 183.498C143.875 183.498 143 182.624 143 181.545V136.623C143 135.545 143.875 134.67 144.953 134.67C146.032 134.67 146.906 135.545 146.906 136.623V181.545C146.906 182.624 146.032 183.498 144.953 183.498Z" fill="#334F3E"/>
<path d="M108.008 238.186C99.3922 238.186 92.3828 231.176 92.3828 222.561C92.3828 213.945 99.3922 206.936 108.008 206.936C116.623 206.936 123.633 213.945 123.633 222.561C123.633 231.176 116.623 238.186 108.008 238.186ZM108.008 210.842C101.546 210.842 96.2891 216.099 96.2891 222.561C96.2891 229.022 101.546 234.279 108.008 234.279C114.47 234.279 119.727 229.022 119.727 222.561C119.727 216.099 114.47 210.842 108.008 210.842Z" fill="#334F3E"/>
<path d="M108.008 230.373C103.7 230.373 100.195 226.868 100.195 222.561C100.195 218.253 103.7 214.748 108.008 214.748C112.316 214.748 115.82 218.253 115.82 222.561C115.82 226.868 112.316 230.373 108.008 230.373ZM108.008 218.654C105.854 218.654 104.102 220.407 104.102 222.561C104.102 224.714 105.854 226.467 108.008 226.467C110.162 226.467 111.914 224.714 111.914 222.561C111.914 220.407 110.162 218.654 108.008 218.654Z" fill="#334F3E"/>
<path d="M164.648 238.186C156.032 238.186 149.023 231.176 149.023 222.561C149.023 213.945 156.032 206.936 164.648 206.936C173.264 206.936 180.273 213.945 180.273 222.561C180.273 231.176 173.264 238.186 164.648 238.186ZM164.648 210.842C158.187 210.842 152.93 216.099 152.93 222.561C152.93 229.022 158.187 234.279 164.648 234.279C171.11 234.279 176.367 229.022 176.367 222.561C176.367 216.099 171.11 210.842 164.648 210.842Z" fill="#334F3E"/>
<path d="M164.648 230.373C160.341 230.373 156.836 226.868 156.836 222.561C156.836 218.253 160.341 214.748 164.648 214.748C168.956 214.748 172.461 218.253 172.461 222.561C172.461 226.868 168.956 230.373 164.648 230.373ZM164.648 218.654C162.495 218.654 160.742 220.407 160.742 222.561C160.742 224.714 162.495 226.467 164.648 226.467C166.802 226.467 168.555 224.714 168.555 222.561C168.555 220.407 166.802 218.654 164.648 218.654Z" fill="#334F3E"/>
<path d="M184.18 238.186H82.6172C81.5387 238.186 80.6641 237.311 80.6641 236.232C80.6641 235.154 81.5387 234.279 82.6172 234.279H184.18C185.259 234.279 186.133 235.154 186.133 236.232C186.133 237.311 185.259 238.186 184.18 238.186Z" fill="#334F3E"/>
<path d="M220.312 206.936C212.235 206.936 205.664 200.364 205.664 192.287C205.664 184.21 212.235 177.639 220.312 177.639C228.39 177.639 234.961 184.21 234.961 192.287C234.961 200.364 228.39 206.936 220.312 206.936ZM220.312 181.545C214.389 181.545 209.57 186.364 209.57 192.287C209.57 198.21 214.389 203.029 220.312 203.029C226.236 203.029 231.055 198.21 231.055 192.287C231.055 186.364 226.236 181.545 220.312 181.545Z" fill="#334F3E"/>
<path d="M83.5938 101.467C77.132 101.467 71.875 96.2098 71.875 89.748C71.875 83.2863 77.132 78.0293 83.5938 78.0293C90.0555 78.0293 95.3125 83.2863 95.3125 89.748C95.3125 96.2098 90.0555 101.467 83.5938 101.467ZM83.5938 81.9355C79.2859 81.9355 75.7812 85.4402 75.7812 89.748C75.7812 94.0559 79.2859 97.5605 83.5938 97.5605C87.9016 97.5605 91.4062 94.0559 91.4062 89.748C91.4062 85.4402 87.9016 81.9355 83.5938 81.9355Z" fill="#334F3E"/>
</svg>
