<svg width="25" height="24" viewBox="0 0 25 24" fill="none" xmlns="http://www.w3.org/2000/svg">
<path d="M14.5493 17.1538C14.6558 17.0513 14.7141 16.9327 14.7243 16.798C14.7346 16.6635 14.6865 16.543 14.58 16.4365L11.4205 13.05L11.4455 12.975H11.6955C12.6724 12.975 13.4694 12.7257 14.0868 12.227C14.7041 11.7282 15.0538 11.0608 15.1358 10.225H15.6955C15.812 10.225 15.9081 10.1852 15.9838 10.1055C16.0596 10.0257 16.0975 9.92883 16.0975 9.815C16.0975 9.70117 16.0596 9.60608 15.9838 9.52975C15.9081 9.45358 15.812 9.4155 15.6955 9.4155H15.1108C15.0608 9.06283 14.9509 8.742 14.781 8.453C14.6112 8.16383 14.3961 7.91092 14.1358 7.69425H15.6955C15.812 7.69425 15.9081 7.65442 15.9838 7.57475C16.0596 7.49492 16.0975 7.39808 16.0975 7.28425C16.0975 7.17042 16.0596 7.07533 15.9838 6.999C15.9081 6.92267 15.812 6.8845 15.6955 6.8845H9.00328C8.88278 6.8845 8.77986 6.9275 8.69453 7.0135C8.6092 7.09933 8.56653 7.20283 8.56653 7.324C8.56653 7.44517 8.6092 7.54675 8.69453 7.62875C8.77986 7.71092 8.88278 7.752 9.00328 7.752H11.755C12.4064 7.752 12.9433 7.89875 13.3658 8.19225C13.7881 8.48592 14.0493 8.89367 14.1493 9.4155H8.96853C8.85203 9.4155 8.75595 9.45533 8.68028 9.535C8.60445 9.61467 8.56653 9.71142 8.56653 9.82525C8.56653 9.93925 8.60445 10.0343 8.68028 10.1105C8.75595 10.1868 8.85203 10.225 8.96853 10.225H14.1743C14.0999 10.802 13.8474 11.2562 13.4165 11.5875C12.9859 11.9188 12.4263 12.0845 11.7378 12.0845H11.0378C10.8576 12.0845 10.7017 12.1282 10.57 12.2155C10.4384 12.3027 10.3436 12.4187 10.2858 12.5635C10.2281 12.7083 10.2095 12.8542 10.23 13.001C10.2505 13.1478 10.323 13.2917 10.4475 13.4327L13.8513 17.1288C13.9538 17.2353 14.0692 17.2917 14.1975 17.298C14.3257 17.3045 14.4429 17.2564 14.5493 17.1538ZM12.3353 21C11.0908 21 9.9207 20.7638 8.82503 20.2915C7.72953 19.8192 6.77653 19.1782 5.96603 18.3685C5.15553 17.5588 4.51395 16.6067 4.04128 15.512C3.56845 14.4175 3.33203 13.2479 3.33203 12.0033C3.33203 10.7588 3.5682 9.58867 4.04053 8.493C4.51286 7.3975 5.15386 6.4445 5.96353 5.634C6.7732 4.8235 7.72536 4.18192 8.82003 3.70925C9.91453 3.23642 11.0841 3 12.3288 3C13.5733 3 14.7434 3.23617 15.839 3.7085C16.9345 4.18083 17.8875 4.82183 18.698 5.6315C19.5085 6.44117 20.1501 7.39333 20.6228 8.488C21.0956 9.5825 21.332 10.7521 21.332 11.9967C21.332 13.2413 21.0959 14.4113 20.6235 15.507C20.1512 16.6025 19.5102 17.5555 18.7005 18.366C17.8909 19.1765 16.9387 19.8181 15.844 20.2908C14.7495 20.7636 13.5799 21 12.3353 21ZM12.332 20C14.5654 20 16.457 19.225 18.007 17.675C19.557 16.125 20.332 14.2333 20.332 12C20.332 9.76667 19.557 7.875 18.007 6.325C16.457 4.775 14.5654 4 12.332 4C10.0987 4 8.20703 4.775 6.65703 6.325C5.10703 7.875 4.33203 9.76667 4.33203 12C4.33203 14.2333 5.10703 16.125 6.65703 17.675C8.20703 19.225 10.0987 20 12.332 20Z" fill="#0AA44F"/>
</svg>
