<svg width="65" height="38" viewBox="0 0 65 38" fill="none" xmlns="http://www.w3.org/2000/svg">
<path d="M14.2969 30.0859C13.2274 30.0859 12.3574 30.9559 12.3574 32.0254C12.3574 33.0949 13.2274 33.9649 14.2969 33.9649C15.3664 33.9649 16.2364 33.0949 16.2364 32.0254C16.2364 30.9559 15.3664 30.0859 14.2969 30.0859Z" fill="#1E2C24"/>
<path d="M54.378 30.0859C53.3085 30.0859 52.4385 30.9559 52.4385 32.0254C52.4385 33.0949 53.3085 33.9649 54.378 33.9649C55.4475 33.9649 56.3175 33.0949 56.3175 32.0254C56.3175 30.9559 55.4475 30.0859 54.378 30.0859Z" fill="#1E2C24"/>
<path d="M62.3216 17.653L55.1036 15.247L51.73 5.96977C51.3089 4.81164 50.198 4.03352 48.9656 4.03352H40.2846V1.96489C40.2846 0.895391 39.4146 0.0253906 38.3451 0.0253906H2.27251C1.20301 0.0253906 0.333008 0.895515 0.333008 1.96502V29.0195C0.333008 30.089 1.20301 30.959 2.27251 30.959H8.44676C8.38376 31.3053 8.34913 31.6614 8.34913 32.0255C8.34913 35.305 11.0173 37.9731 14.2968 37.9731C17.5763 37.9731 20.2444 35.305 20.2444 32.0255C20.2444 31.6613 20.2098 31.3053 20.1468 30.959H48.5276C48.4646 31.3053 48.43 31.6614 48.43 32.0255C48.43 35.305 51.0981 37.9731 54.3776 37.9731C57.6571 37.9731 60.3253 35.305 60.3253 32.0255C60.3253 31.5623 60.2703 31.1118 60.1696 30.6788L62.1535 29.6869C63.4978 29.0145 64.333 27.6629 64.333 26.1595V20.4436C64.333 19.1756 63.5248 18.0541 62.3216 17.653ZM2.20801 1.96502C2.20801 1.92939 2.23688 1.90039 2.27251 1.90039H38.3451C38.3808 1.90039 38.4096 1.92927 38.4096 1.96489V22.0698H2.20801V1.96502ZM14.2966 36.0981C12.051 36.0981 10.224 34.2711 10.224 32.0255C10.224 29.7799 12.051 27.9529 14.2966 27.9529C16.5423 27.9529 18.3693 29.7799 18.3693 32.0255C18.3694 34.2711 16.5424 36.0981 14.2966 36.0981ZM38.4096 29.0839H19.4628C18.4374 27.2903 16.5065 26.0779 14.2966 26.0779C12.0868 26.0779 10.156 27.2903 9.13063 29.0839H2.27251C2.23688 29.0839 2.20801 29.055 2.20801 29.0194V23.9448H38.4096V29.0839ZM51.1703 9.91664L53.039 15.0558H51.026L49.1573 9.91664H51.1703ZM40.2846 5.90852H48.9656C49.4125 5.90852 49.8153 6.19064 49.968 6.61052L50.4884 8.04152H40.2846V5.90852ZM40.2846 9.91664H47.1621L49.0309 15.0558H40.2846V9.91664ZM54.3774 36.0981C52.1318 36.0981 50.3048 34.2711 50.3048 32.0255C50.3048 29.7799 52.1318 27.9529 54.3774 27.9529C56.623 27.9529 58.45 29.7799 58.45 32.0255C58.45 34.2711 56.623 36.0981 54.3774 36.0981ZM62.458 22.0696H61.3915C60.8738 22.0696 60.454 22.4894 60.454 23.0071C60.454 23.5249 60.8738 23.9446 61.3915 23.9446H62.458V26.1594C62.458 26.9481 62.0199 27.657 61.3146 28.0098L59.4588 28.9376C58.4138 27.2243 56.527 26.0779 54.3774 26.0779C52.1675 26.0779 50.2368 27.2903 49.2114 29.0839H40.2846V23.9448H57.3835C57.9013 23.9448 58.321 23.525 58.321 23.0073C58.321 22.4895 57.9013 22.0698 57.3835 22.0698H40.2846V16.9306H54.2253L61.7288 19.4318C62.165 19.5771 62.458 19.9838 62.458 20.4435V22.0696Z" fill="#1E2C24"/>
<path d="M31.7966 11.1707L24.7825 7.16272C24.3331 6.90585 23.7604 7.0621 23.5034 7.5116C23.2465 7.96122 23.4026 8.53385 23.8522 8.79072L27.8012 11.0473H9.28711C8.76936 11.0473 8.34961 11.4671 8.34961 11.9848C8.34961 12.5026 8.76936 12.9222 9.28711 12.9222H27.8012L23.8522 15.1789C23.4027 15.4357 23.2465 16.0084 23.5034 16.458C23.6764 16.7607 23.9927 16.9305 24.3182 16.9305C24.476 16.9305 24.6359 16.8906 24.7825 16.8067L31.7966 12.7987C32.0886 12.6318 32.269 12.3212 32.269 11.9847C32.269 11.6482 32.0887 11.3377 31.7966 11.1707Z" fill="#1E2C24"/>
</svg>
