<svg width="47" height="48" viewBox="0 0 47 48" fill="none" xmlns="http://www.w3.org/2000/svg">
<path d="M11.9537 37.2004C12.5502 37.2004 13.0484 36.9986 13.4484 36.5951C13.8484 36.1916 14.0484 35.6916 14.0484 35.0951C14.0484 34.4986 13.8467 34.0004 13.4432 33.6004C13.0397 33.2004 12.5397 33.0004 11.9432 33.0004C11.3467 33.0004 10.8484 33.2021 10.4484 33.6056C10.0484 34.0091 9.84844 34.5091 9.84844 35.1056C9.84844 35.7021 10.0502 36.2004 10.4537 36.6004C10.8572 37.0004 11.3572 37.2004 11.9537 37.2004ZM11.9537 26.1004C12.5502 26.1004 13.0484 25.8986 13.4484 25.4951C13.8484 25.0916 14.0484 24.5916 14.0484 23.9951C14.0484 23.3986 13.8467 22.9004 13.4432 22.5004C13.0397 22.1004 12.5397 21.9004 11.9432 21.9004C11.3467 21.9004 10.8484 22.1021 10.4484 22.5056C10.0484 22.9091 9.84844 23.4091 9.84844 24.0056C9.84844 24.6021 10.0502 25.1004 10.4537 25.5004C10.8572 25.9004 11.3572 26.1004 11.9537 26.1004ZM11.9537 15.0004C12.5502 15.0004 13.0484 14.7986 13.4484 14.3951C13.8484 13.9916 14.0484 13.4916 14.0484 12.8951C14.0484 12.2986 13.8467 11.8004 13.4432 11.4004C13.0397 11.0004 12.5397 10.8004 11.9432 10.8004C11.3467 10.8004 10.8484 11.0021 10.4484 11.4056C10.0484 11.8091 9.84844 12.3091 9.84844 12.9056C9.84844 13.5021 10.0502 14.0004 10.4537 14.4004C10.8572 14.8004 11.3572 15.0004 11.9537 15.0004ZM22.2984 36.1504H35.7984C36.0959 36.1504 36.3452 36.0494 36.5462 35.8474C36.7477 35.6459 36.8484 35.3959 36.8484 35.0974C36.8484 34.7994 36.7477 34.5504 36.5462 34.3504C36.3452 34.1504 36.0959 34.0504 35.7984 34.0504H22.2984C22.0009 34.0504 21.7514 34.1514 21.5499 34.3534C21.3489 34.5549 21.2484 34.8049 21.2484 35.1034C21.2484 35.4014 21.3489 35.6504 21.5499 35.8504C21.7514 36.0504 22.0009 36.1504 22.2984 36.1504ZM22.2984 25.0504H35.7984C36.0959 25.0504 36.3452 24.9494 36.5462 24.7474C36.7477 24.5459 36.8484 24.2959 36.8484 23.9974C36.8484 23.6994 36.7477 23.4504 36.5462 23.2504C36.3452 23.0504 36.0959 22.9504 35.7984 22.9504H22.2984C22.0009 22.9504 21.7514 23.0514 21.5499 23.2534C21.3489 23.4549 21.2484 23.7049 21.2484 24.0034C21.2484 24.3014 21.3489 24.5504 21.5499 24.7504C21.7514 24.9504 22.0009 25.0504 22.2984 25.0504ZM22.2984 13.9504H35.7984C36.0959 13.9504 36.3452 13.8494 36.5462 13.6474C36.7477 13.4459 36.8484 13.1959 36.8484 12.8974C36.8484 12.5994 36.7477 12.3504 36.5462 12.1504C36.3452 11.9504 36.0959 11.8504 35.7984 11.8504H22.2984C22.0009 11.8504 21.7514 11.9514 21.5499 12.1534C21.3489 12.3549 21.2484 12.6049 21.2484 12.9034C21.2484 13.2014 21.3489 13.4504 21.5499 13.6504C21.7514 13.8504 22.0009 13.9504 22.2984 13.9504ZM4.89844 47.1004C3.59844 47.1004 2.52344 46.6754 1.67344 45.8254C0.823438 44.9754 0.398438 43.9004 0.398438 42.6004V5.40039C0.398438 4.10039 0.823438 3.02539 1.67344 2.17539C2.52344 1.32539 3.59844 0.900391 4.89844 0.900391H42.0984C43.3984 0.900391 44.4734 1.32539 45.3234 2.17539C46.1734 3.02539 46.5984 4.10039 46.5984 5.40039V42.6004C46.5984 43.9004 46.1734 44.9754 45.3234 45.8254C44.4734 46.6754 43.3984 47.1004 42.0984 47.1004H4.89844ZM4.89844 45.0004H42.0984C42.6984 45.0004 43.2484 44.7504 43.7484 44.2504C44.2484 43.7504 44.4984 43.2004 44.4984 42.6004V5.40039C44.4984 4.80039 44.2484 4.25039 43.7484 3.75039C43.2484 3.25039 42.6984 3.00039 42.0984 3.00039H4.89844C4.29844 3.00039 3.74844 3.25039 3.24844 3.75039C2.74844 4.25039 2.49844 4.80039 2.49844 5.40039V42.6004C2.49844 43.2004 2.74844 43.7504 3.24844 44.2504C3.74844 44.7504 4.29844 45.0004 4.89844 45.0004Z" fill="#1E2C24"/>
</svg>
