<svg width="300" height="300" viewBox="0 0 300 300" fill="none" xmlns="http://www.w3.org/2000/svg">
<path d="M207.868 167.934L166.795 96.7881C163.087 90.3689 156.449 86.5381 149.037 86.5381C141.626 86.5381 134.988 90.3689 131.28 96.7881L90.2066 167.934C86.4989 174.353 86.4989 182.019 90.2066 188.438C93.9104 194.857 100.549 198.688 107.96 198.688H190.114C197.526 198.688 204.164 194.857 207.868 188.438C211.576 182.019 211.576 174.353 207.868 167.934Z" fill="white"/>
<path d="M198.211 173.511L157.134 102.364C153.538 96.1337 144.538 96.1337 140.942 102.364L99.8647 173.511C96.2647 179.745 100.765 187.538 107.961 187.538H190.115C197.311 187.538 201.811 179.745 198.211 173.511Z" fill="#EED9CB"/>
<path d="M212.501 115.384C219.935 115.384 225.962 109.357 225.962 101.922C225.962 94.4879 219.935 88.4609 212.501 88.4609C205.066 88.4609 199.039 94.4879 199.039 101.922C199.039 109.357 205.066 115.384 212.501 115.384Z" fill="white"/>
<path d="M79.8068 107.691C85.1187 107.691 89.4222 111.995 89.4222 117.307C89.4222 122.618 85.1187 126.922 79.8068 126.922C74.4953 126.922 70.1914 122.618 70.1914 117.307C70.1914 111.995 74.4953 107.691 79.8068 107.691Z" fill="white"/>
<path d="M152.836 167.354C154.051 168.573 154.805 170.254 154.805 172.116C154.805 173.977 154.051 175.658 152.836 176.877C151.617 178.092 149.936 178.846 148.075 178.846C144.355 178.846 141.344 175.835 141.344 172.116C141.344 170.254 142.098 168.573 143.313 167.354C144.532 166.139 146.213 165.385 148.075 165.385C149.936 165.385 151.617 166.139 152.836 167.354Z" fill="white"/>
<path d="M154.805 124.038V152.885C154.805 156.604 151.794 159.615 148.075 159.615C144.355 159.615 141.344 156.604 141.344 152.885V124.038C141.344 120.319 144.355 117.308 148.075 117.308C149.936 117.308 151.617 118.061 152.836 119.277C154.051 120.496 154.805 122.177 154.805 124.038Z" fill="white"/>
<path d="M228.846 74.9997C230.439 74.9997 231.73 73.7082 231.73 72.1151C231.73 70.522 230.439 69.2305 228.846 69.2305C227.252 69.2305 225.961 70.522 225.961 72.1151C225.961 73.7082 227.252 74.9997 228.846 74.9997Z" fill="#334F3E"/>
<path d="M223.076 155.769C224.669 155.769 225.961 154.478 225.961 152.885C225.961 151.291 224.669 150 223.076 150C221.483 150 220.191 151.291 220.191 152.885C220.191 154.478 221.483 155.769 223.076 155.769Z" fill="#334F3E"/>
<path d="M214.423 226.922C215.485 226.922 216.346 226.061 216.346 224.999C216.346 223.937 215.485 223.076 214.423 223.076C213.361 223.076 212.5 223.937 212.5 224.999C212.5 226.061 213.361 226.922 214.423 226.922Z" fill="#334F3E"/>
<path d="M186.537 80.7692C188.13 80.7692 189.422 79.4777 189.422 77.8846C189.422 76.2915 188.13 75 186.537 75C184.944 75 183.652 76.2915 183.652 77.8846C183.652 79.4777 184.944 80.7692 186.537 80.7692Z" fill="#334F3E"/>
<path d="M109.615 101.923C111.208 101.923 112.5 100.631 112.5 99.0379C112.5 97.4448 111.208 96.1533 109.615 96.1533C108.022 96.1533 106.73 97.4448 106.73 99.0379C106.73 100.631 108.022 101.923 109.615 101.923Z" fill="#334F3E"/>
<path d="M99.9979 74.9997C101.591 74.9997 102.883 73.7082 102.883 72.1151C102.883 70.522 101.591 69.2305 99.9979 69.2305C98.4048 69.2305 97.1133 70.522 97.1133 72.1151C97.1133 73.7082 98.4048 74.9997 99.9979 74.9997Z" fill="#334F3E"/>
<path d="M99.0364 234.616C100.098 234.616 100.959 233.755 100.959 232.693C100.959 231.631 100.098 230.77 99.0364 230.77C97.9743 230.77 97.1133 231.631 97.1133 232.693C97.1133 233.755 97.9743 234.616 99.0364 234.616Z" fill="#334F3E"/>
<path d="M80.7674 198.077C82.3606 198.077 83.652 196.785 83.652 195.192C83.652 193.599 82.3606 192.308 80.7674 192.308C79.1743 192.308 77.8828 193.599 77.8828 195.192C77.8828 196.785 79.1743 198.077 80.7674 198.077Z" fill="#334F3E"/>
<path d="M73.076 153.845C74.6692 153.845 75.9606 152.554 75.9606 150.961C75.9606 149.368 74.6692 148.076 73.076 148.076C71.4829 148.076 70.1914 149.368 70.1914 150.961C70.1914 152.554 71.4829 153.845 73.076 153.845Z" fill="#334F3E"/>
<path d="M170.191 219.231H66.345C65.283 219.231 64.4219 218.37 64.4219 217.308C64.4219 216.246 65.283 215.385 66.345 215.385H170.191C171.253 215.385 172.114 216.246 172.114 217.308C172.114 218.37 171.253 219.231 170.191 219.231Z" fill="#334F3E"/>
<path d="M208.653 226.922H152.884C151.822 226.922 150.961 226.062 150.961 224.999C150.961 223.937 151.822 223.076 152.884 223.076H208.653C209.716 223.076 210.576 223.937 210.576 224.999C210.576 226.062 209.716 226.922 208.653 226.922Z" fill="#334F3E"/>
<path d="M177.883 234.616H104.806C103.744 234.616 102.883 233.755 102.883 232.693C102.883 231.63 103.744 230.77 104.806 230.77H177.883C178.945 230.77 179.806 231.63 179.806 232.693C179.806 233.755 178.945 234.616 177.883 234.616Z" fill="#334F3E"/>
<path d="M233.65 226.922H220.189C219.126 226.922 218.266 226.062 218.266 224.999C218.266 223.937 219.126 223.076 220.189 223.076H233.65C234.713 223.076 235.573 223.937 235.573 224.999C235.573 226.062 234.713 226.922 233.65 226.922Z" fill="#334F3E"/>
<path d="M190.115 200.611H107.961C99.8519 200.611 92.5923 196.42 88.5415 189.4C84.4861 182.379 84.4861 173.994 88.5419 166.973L129.615 95.8268C133.67 88.8064 140.931 84.6152 149.038 84.6152C157.145 84.6152 164.406 88.8064 168.461 95.8264L209.534 166.973C213.589 173.994 213.589 182.379 209.534 189.4C205.483 196.42 198.224 200.611 190.115 200.611ZM149.038 88.4614C142.321 88.4614 136.305 91.9337 132.945 97.7502L91.8723 168.896C88.5123 174.714 88.5123 181.659 91.8723 187.477C95.2284 193.293 101.243 196.765 107.961 196.765H190.115C196.833 196.765 202.847 193.293 206.203 187.478C209.563 181.659 209.563 174.714 206.203 168.896L165.13 97.7499C161.77 91.9337 155.755 88.4614 149.038 88.4614Z" fill="#334F3E"/>
<path d="M190.112 189.461H107.958C103.883 189.461 100.234 187.354 98.1965 183.825C96.1584 180.295 96.1584 176.08 98.1969 172.55L139.274 101.404C141.31 97.8761 144.959 95.7695 149.035 95.7695C153.111 95.7695 156.761 97.8761 158.797 101.404L199.874 172.55C201.912 176.08 201.912 180.295 199.875 183.825C197.836 187.354 194.187 189.461 190.112 189.461ZM149.035 99.6153C146.35 99.6153 143.946 101.003 142.605 103.326L101.528 174.473C100.185 176.799 100.185 179.576 101.527 181.901C102.87 184.227 105.274 185.615 107.958 185.615H190.112C192.796 185.615 195.201 184.227 196.543 181.901C197.886 179.575 197.886 176.798 196.543 174.473L155.466 103.327C154.125 101.003 151.721 99.6153 149.035 99.6153Z" fill="#334F3E"/>
<path d="M148.076 161.539C143.304 161.539 139.422 157.656 139.422 152.885V124.039C139.422 119.267 143.304 115.385 148.076 115.385C150.385 115.385 152.558 116.283 154.195 117.915C155.831 119.556 156.73 121.729 156.73 124.039V152.885C156.73 157.656 152.847 161.539 148.076 161.539ZM148.076 119.231C145.425 119.231 143.268 121.387 143.268 124.039V152.885C143.268 155.536 145.425 157.692 148.076 157.692C150.727 157.692 152.883 155.536 152.883 152.885V124.039C152.883 122.754 152.383 121.546 151.475 120.635C150.568 119.731 149.36 119.231 148.076 119.231Z" fill="#334F3E"/>
<path d="M148.076 180.769C143.304 180.769 139.422 176.886 139.422 172.115C139.422 169.806 140.321 167.632 141.952 165.996C143.593 164.36 145.766 163.461 148.076 163.461C150.385 163.461 152.558 164.36 154.195 165.991C155.831 167.632 156.73 169.806 156.73 172.115C156.73 174.424 155.831 176.597 154.199 178.234C152.558 179.87 150.385 180.769 148.076 180.769ZM148.076 167.307C146.791 167.307 145.583 167.807 144.672 168.715C143.768 169.622 143.268 170.831 143.268 172.115C143.268 174.766 145.425 176.922 148.076 176.922C149.36 176.922 150.568 176.422 151.48 175.514C152.384 174.608 152.883 173.399 152.883 172.115C152.883 170.831 152.383 169.622 151.475 168.711C150.568 167.807 149.36 167.307 148.076 167.307Z" fill="#334F3E"/>
<path d="M79.8041 128.846C73.4418 128.846 68.2656 123.67 68.2656 117.308C68.2656 110.946 73.4418 105.77 79.8041 105.77C86.1664 105.77 91.3425 110.946 91.3425 117.308C91.3425 123.67 86.1664 128.846 79.8041 128.846ZM79.8041 109.616C75.5629 109.616 72.1118 113.066 72.1118 117.308C72.1118 121.55 75.5629 125 79.8041 125C84.0456 125 87.4964 121.55 87.4964 117.308C87.4964 113.066 84.0456 109.616 79.8041 109.616Z" fill="#334F3E"/>
<path d="M212.498 117.307C204.015 117.307 197.113 110.406 197.113 101.923C197.113 93.4396 204.015 86.5381 212.498 86.5381C220.981 86.5381 227.883 93.4396 227.883 101.923C227.883 110.406 220.981 117.307 212.498 117.307ZM212.498 90.3842C206.136 90.3842 200.959 95.5604 200.959 101.923C200.959 108.285 206.136 113.461 212.498 113.461C218.86 113.461 224.036 108.285 224.036 101.923C224.036 95.5604 218.86 90.3842 212.498 90.3842Z" fill="#334F3E"/>
</svg>
