<svg width="57" height="57" viewBox="0 0 57 57" fill="none" xmlns="http://www.w3.org/2000/svg">
<path d="M41.8096 23.6406V26.7775H28.7568H16.1064V23.6406H41.8096Z" fill="white"/>
<path d="M41.8096 23.2217V51.6406H16.1064V23.2217C16.1064 20.1308 18.6122 17.625 21.7032 17.625H36.2129C39.3038 17.625 41.8096 20.1308 41.8096 23.2217Z" fill="white"/>
<path d="M35.001 16.3396V17.5H23.001V16.3396C23.001 15.3244 23.7776 14.5 24.7339 14.5L33.268 14.5C34.2244 14.5 35.001 15.3244 35.001 16.3396Z" fill="white"/>
<path d="M32.7471 36.9875C32.7471 39.2812 30.8866 41.1416 28.5897 41.1416C26.295 41.1416 24.4346 39.2811 24.4346 36.9875C24.4346 34.8722 27.216 32.5754 28.6083 30.3398C29.9755 32.5382 32.7471 34.904 32.7471 36.9875Z" fill="white"/>
<path d="M27.5908 8.32812H30.3252V14.8906H27.5908V8.32812Z" fill="white"/>
<path d="M28.6971 41.6866C26.1044 41.6866 23.9951 39.5778 23.9951 36.9857C23.9951 35.3872 25.305 33.7987 26.5718 32.2627C27.1763 31.5296 27.8014 30.7717 28.2516 30.0488C28.3514 29.8885 28.527 29.791 28.7157 29.791H28.7159C28.9049 29.7911 29.0803 29.8887 29.1801 30.049C29.6169 30.7513 30.2274 31.5014 30.8178 32.2269C32.088 33.7875 33.4014 35.4012 33.4014 36.9856C33.4014 39.5778 31.2911 41.6866 28.6971 41.6866ZM28.7152 31.3145C28.3141 31.8689 27.8596 32.4202 27.4156 32.9585C26.2718 34.3456 25.089 35.78 25.089 36.9856C25.089 38.9747 26.7076 40.5928 28.6973 40.5928C30.6881 40.5928 32.3077 38.9746 32.3077 36.9856C32.3077 35.7899 31.1191 34.3296 29.9697 32.9174C29.541 32.3909 29.1023 31.8518 28.7152 31.3145Z" fill="#1E2C24"/>
<path d="M41.751 52.0781H16.0479C15.7459 52.0781 15.501 51.8333 15.501 51.5312V45.5156C15.501 45.2135 15.7459 44.9688 16.0479 44.9688C16.3498 44.9688 16.5947 45.2135 16.5947 45.5156V50.9844H41.2041V45.5156C41.2041 45.2135 41.449 44.9688 41.751 44.9688C42.053 44.9688 42.2979 45.2135 42.2979 45.5156V51.5312C42.2979 51.8333 42.053 52.0781 41.751 52.0781Z" fill="#1E2C24"/>
<path d="M41.751 27.3244C41.449 27.3244 41.2041 27.0796 41.2041 26.7775V23.2217C41.2041 20.4372 38.9387 18.1719 36.1543 18.1719H35.1885C34.8865 18.1719 34.6416 17.927 34.6416 17.625C34.6416 17.323 34.8865 17.0781 35.1885 17.0781H36.1543C39.5418 17.0781 42.2979 19.8342 42.2979 23.2217V26.7775C42.2979 27.0795 42.053 27.3244 41.751 27.3244Z" fill="#1E2C24"/>
<path d="M16.0479 27.3244C15.7459 27.3244 15.501 27.0796 15.501 26.7775V23.2217C15.501 19.8342 18.257 17.0781 21.6446 17.0781H22.6104C22.9123 17.0781 23.1572 17.323 23.1572 17.625C23.1572 17.927 22.9123 18.1719 22.6104 18.1719H21.6446C18.8601 18.1719 16.5947 20.4372 16.5947 23.2217V26.7775C16.5947 27.0795 16.3498 27.3244 16.0479 27.3244Z" fill="#1E2C24"/>
<path d="M28.6982 46.0624C28.3963 46.0624 28.1514 45.8176 28.1514 45.5155C28.1514 45.2135 28.3963 44.9687 28.6982 44.9687C33.5628 44.9687 37.5204 41.011 37.5204 36.1465C37.5204 35.8444 37.7653 35.5996 38.0673 35.5996C38.3693 35.5996 38.6142 35.8444 38.6142 36.1465C38.6142 41.6141 34.1659 46.0624 28.6982 46.0624Z" fill="#1E2C24"/>
<path d="M19.3291 36.6933C19.0271 36.6933 18.7822 36.4485 18.7822 36.1464C18.7822 30.6788 23.2305 26.2305 28.6982 26.2305C29.0001 26.2305 29.245 26.4754 29.245 26.7773C29.245 27.0794 29.0001 27.3242 28.6982 27.3242C23.8336 27.3242 19.876 31.2818 19.876 36.1464C19.876 36.4485 19.6311 36.6933 19.3291 36.6933Z" fill="#1E2C24"/>
<path d="M35.1885 18.1719H22.6104C22.3084 18.1719 22.0635 17.927 22.0635 17.625V16.5673C22.0635 15.3413 23.061 14.3438 24.2871 14.3438H33.5118C34.7379 14.3438 35.7354 15.3413 35.7354 16.5673V17.625C35.7354 17.927 35.4905 18.1719 35.1885 18.1719ZM23.1572 17.0781H34.6416V16.5673C34.6416 15.9443 34.1348 15.4375 33.5118 15.4375H24.2871C23.6641 15.4375 23.1572 15.9443 23.1572 16.5673V17.0781Z" fill="#1E2C24"/>
<path d="M27.5322 15.4375C27.2302 15.4375 26.9854 15.1926 26.9854 14.8906V8.32812C26.9854 8.02614 27.2302 7.78125 27.5322 7.78125C27.8342 7.78125 28.0791 8.02614 28.0791 8.32812V14.8906C28.0791 15.1926 27.8342 15.4375 27.5322 15.4375Z" fill="#1E2C24"/>
<path d="M30.2666 15.4375C29.9646 15.4375 29.7197 15.1926 29.7197 14.8906V8.32812C29.7197 8.02614 29.9646 7.78125 30.2666 7.78125C30.5686 7.78125 30.8135 8.02614 30.8135 8.32812V14.8906C30.8135 15.1926 30.5686 15.4375 30.2666 15.4375Z" fill="#1E2C24"/>
<path d="M41.751 46.0623H16.0479C15.7459 46.0623 15.501 45.8176 15.501 45.5155V26.7773C15.501 26.4754 15.7459 26.2305 16.0479 26.2305H41.751C42.053 26.2305 42.2979 26.4754 42.2979 26.7773V45.5155C42.2979 45.8176 42.053 46.0623 41.751 46.0623ZM16.5947 44.9686H41.2041V27.3242H16.5947V44.9686Z" fill="#1E2C24"/>
<path d="M41.751 24.1875H16.0479C15.7459 24.1875 15.501 23.9426 15.501 23.6406C15.501 23.3386 15.7459 23.0938 16.0479 23.0938H41.751C42.053 23.0938 42.2979 23.3386 42.2979 23.6406C42.2979 23.9426 42.053 24.1875 41.751 24.1875Z" fill="#1E2C24"/>
<path d="M41.751 48.7969H16.0479C15.7459 48.7969 15.501 48.5521 15.501 48.25C15.501 47.9479 15.7459 47.7031 16.0479 47.7031H41.751C42.053 47.7031 42.2979 47.9479 42.2979 48.25C42.2979 48.5521 42.053 48.7969 41.751 48.7969Z" fill="#1E2C24"/>
<path d="M32.4541 8.875H22.6104C22.3084 8.875 22.0635 8.63011 22.0635 8.32812C22.0635 7.30602 22.4618 6.34483 23.185 5.62153C23.9083 4.89834 24.8695 4.5 25.8916 4.5H32.4541C32.7561 4.5 33.001 4.74489 33.001 5.04688V8.32812C33.001 8.63011 32.7561 8.875 32.4541 8.875ZM23.2117 7.78125H31.9072V5.59375H25.8916C25.1617 5.59375 24.4751 5.87834 23.9585 6.39503C23.5733 6.78014 23.3171 7.25964 23.2117 7.78125Z" fill="#1E2C24"/>
</svg>
