<svg width="57" height="57" viewBox="0 0 57 57" fill="none" xmlns="http://www.w3.org/2000/svg">
<path d="M34.4684 4.68781C34.8644 5.08375 35.1094 5.63063 35.1094 6.23438C35.1094 7.44297 34.1305 8.42188 32.9219 8.42188H32.375H24.7188H24.1719C23.5681 8.42188 23.0213 8.17688 22.6253 7.78094C22.2294 7.38511 21.9844 6.83823 21.9844 6.23438C21.9844 5.02578 22.9633 4.04688 24.1719 4.04688H32.9219C33.5256 4.04688 34.0725 4.29188 34.4684 4.68781Z" fill="#EED9CB"/>
<path d="M28.714 42.0184C28.7075 41.9704 28.6999 41.9244 28.6934 41.8762V39.6876C28.8914 38.4232 29.4502 37.2824 30.382 36.4206C31.8641 35.0523 33.9761 34.6804 36.098 35.2032C36.4512 37.3601 35.9142 39.436 34.4312 40.8054C32.9491 42.1737 30.8371 42.5456 28.7152 42.0227C28.7152 42.0217 28.7152 42.0196 28.714 42.0184Z" fill="#EED9CB"/>
<path d="M28.687 25.375C30.4064 26.4666 31.5002 28.1028 31.5002 29.9316C31.5002 31.7614 30.4064 33.3966 28.687 34.4881C26.9677 33.3966 25.875 31.7614 25.875 29.9316C25.875 28.1028 26.9677 26.4666 28.687 25.375Z" fill="#EED9CB"/>
<path d="M28.694 41.8762C28.6863 41.9243 28.6798 41.9703 28.6721 42.0184C28.671 42.0196 28.671 42.0217 28.671 42.0227C26.5491 42.5456 24.4371 42.1737 22.9551 40.8054C21.473 39.436 20.9349 37.3601 21.2882 35.2032C23.4101 34.6804 25.5221 35.0523 27.0052 36.4206C27.9371 37.2824 28.4949 38.4233 28.694 39.6876V41.8762Z" fill="#EED9CB"/>
<path d="M28.688 34.4881C30.4073 33.3966 31.5011 31.7614 31.5011 29.9316C31.5011 28.1028 30.4073 26.4666 28.688 25.375C26.9686 26.4666 25.8759 28.1028 25.8759 29.9316C25.8759 31.7615 26.9686 33.3966 28.688 34.4881ZM28.7141 42.0186C28.7153 42.0198 28.7153 42.0219 28.7153 42.023C30.8371 42.5458 32.9492 42.1739 34.4312 40.8056C35.9144 39.4362 36.4514 37.3603 36.0981 35.2034C33.9763 34.6806 31.8642 35.0525 30.3821 36.4208C29.4502 37.2827 28.8914 38.4235 28.6934 39.6878C28.4944 38.4234 27.9366 37.2827 27.0047 36.4208C25.5216 35.0525 23.4095 34.6806 21.2877 35.2034C20.9344 37.3603 21.4725 39.4362 22.9545 40.8056C24.4366 42.1739 26.5486 42.5458 28.6705 42.023C28.6705 42.0219 28.6705 42.0198 28.6716 42.0186C28.6792 41.9706 28.6858 41.9246 28.6934 41.8764C28.7 41.9246 28.7077 41.9705 28.7141 42.0186ZM32.375 16.625V19.2336C40.1985 20.9793 46.0469 27.9629 46.0469 36.3125C46.0469 45.978 38.2123 53.8125 28.5469 53.8125C18.8814 53.8125 11.0469 45.978 11.0469 36.3125C11.0469 27.9628 16.8952 20.9793 24.7188 19.2336V8.42188H32.375V11.1562V13.8906V16.625Z" fill="white"/>
<path d="M28.5469 54.3594C18.5958 54.3594 10.5 46.2635 10.5 36.3125C10.5 32.1856 11.9292 28.151 14.5242 24.952C16.9889 21.9138 20.4014 19.7414 24.1719 18.801V8.42188C24.1719 8.11989 24.4167 7.875 24.7188 7.875C25.0207 7.875 25.2656 8.11989 25.2656 8.42188V19.2337C25.2656 19.4899 25.0878 19.7117 24.8379 19.7675C17.1637 21.4797 11.5938 28.4379 11.5938 36.3125C11.5938 45.6606 19.1988 53.2656 28.5469 53.2656C37.8949 53.2656 45.5 45.6606 45.5 36.3125C45.5 28.4379 39.9301 21.4797 32.2559 19.7673C32.006 19.7116 31.8281 19.4898 31.8281 19.2336V8.42188C31.8281 8.11989 32.0729 7.875 32.375 7.875C32.6771 7.875 32.9219 8.11989 32.9219 8.42188V18.801C36.6924 19.7415 40.1049 21.9138 42.5695 24.952C45.1647 28.151 46.5938 32.1856 46.5938 36.3125C46.5938 46.2635 38.4979 54.3594 28.5469 54.3594Z" fill="#334F3E"/>
<path d="M32.9219 8.96875H24.1719C23.4419 8.96875 22.7552 8.68427 22.2387 8.16769C21.722 7.651 21.4375 6.96445 21.4375 6.23438C21.4375 4.72664 22.6641 3.5 24.1719 3.5H32.9219C33.6518 3.5 34.3384 3.78459 34.8551 4.30106C35.3718 4.81775 35.6562 5.5043 35.6562 6.23438C35.6562 7.74211 34.4296 8.96875 32.9219 8.96875ZM24.1719 4.59375C23.2672 4.59375 22.5312 5.32973 22.5312 6.23438C22.5312 6.67231 22.702 7.08433 23.0121 7.3943C23.322 7.70427 23.734 7.875 24.1719 7.875H32.9219C33.8265 7.875 34.5625 7.13902 34.5625 6.23438C34.5625 5.79644 34.3917 5.38453 34.0817 5.07456C33.7716 4.76459 33.3596 4.59375 32.9219 4.59375H24.1719Z" fill="#334F3E"/>
<path d="M28.5469 49.4375C21.3097 49.4375 15.4219 43.5498 15.4219 36.3125C15.4219 34.8912 15.6481 33.4931 16.0942 32.1569C16.1899 31.8706 16.4998 31.716 16.7861 31.8115C17.0727 31.9072 17.2272 32.217 17.1316 32.5034C16.7228 33.7276 16.5155 35.0091 16.5155 36.3125C16.5155 42.9466 21.9127 48.3438 28.5468 48.3438C35.1808 48.3438 40.578 42.9466 40.578 36.3125C40.578 35.0093 40.3707 33.7278 39.9619 32.5034C39.8663 32.2169 40.021 31.9071 40.3075 31.8115C40.5932 31.7158 40.9037 31.8705 40.9993 32.157C41.4455 33.4933 41.6717 34.8914 41.6717 36.3125C41.6719 43.5498 35.784 49.4375 28.5469 49.4375Z" fill="#334F3E"/>
<path d="M28.6934 40.2348C28.3913 40.2348 28.1465 39.99 28.1465 39.688V34.4883C28.1465 34.1862 28.3913 33.9414 28.6934 33.9414C28.9955 33.9414 29.2402 34.1862 29.2402 34.4883V39.688C29.2402 39.99 28.9955 40.2348 28.6934 40.2348Z" fill="#334F3E"/>
<path d="M28.6934 45.6099C28.3913 45.6099 28.1465 45.3651 28.1465 45.063V41.877C28.1465 41.575 28.3913 41.3301 28.6934 41.3301C28.9955 41.3301 29.2402 41.575 29.2402 41.877V45.063C29.2402 45.3651 28.9955 45.6099 28.6934 45.6099Z" fill="#334F3E"/>
<path d="M28.688 35.0349C28.5862 35.0349 28.4844 35.0065 28.3949 34.9497C26.4466 33.7128 25.3291 31.8839 25.3291 29.9315C25.3291 27.9793 26.4466 26.1502 28.3949 24.9133C28.5737 24.7997 28.8023 24.7997 28.981 24.9133C30.9301 26.1506 32.0479 27.9797 32.0479 29.9315C32.0479 31.8833 30.9301 33.7124 28.981 34.9497C28.8917 35.0066 28.7898 35.0349 28.688 35.0349ZM28.688 26.0331C27.2436 27.0534 26.4229 28.4583 26.4229 29.9316C26.4229 31.405 27.2436 32.8097 28.688 33.8302C30.133 32.8094 30.9543 31.4046 30.9543 29.9316C30.9543 28.4587 30.133 27.0539 28.688 26.0331Z" fill="#334F3E"/>
<path d="M28.711 42.5663C28.5712 42.5663 28.4316 42.5135 28.3254 42.4072C28.1118 42.1937 28.1096 41.8495 28.3232 41.636L28.3276 41.6316C28.3336 41.6255 28.3397 41.6197 28.346 41.6139L31.8974 38.3807C32.1208 38.1775 32.4667 38.1936 32.67 38.4169C32.8733 38.6403 32.8571 38.9861 32.6338 39.1895L29.0845 42.4206C28.9794 42.5175 28.8451 42.5663 28.711 42.5663Z" fill="#334F3E"/>
<path d="M30.5286 42.7976C29.898 42.7976 29.246 42.7176 28.5845 42.5545C28.3808 42.5042 28.2273 42.3433 28.1822 42.1452C28.1781 42.1283 28.1749 42.111 28.1725 42.0936L28.1517 41.9514C28.1105 41.6523 28.3197 41.3763 28.6189 41.3351C28.8274 41.306 29.0237 41.3988 29.1381 41.5583C31.0528 41.9511 32.8331 41.5373 34.0603 40.4042C35.2732 39.2844 35.8283 37.5689 35.609 35.6557C33.7196 35.2857 31.966 35.7031 30.7532 36.823C29.9443 37.5712 29.4189 38.5912 29.2337 39.7729C29.187 40.0714 28.9076 40.2759 28.6088 40.2285C28.3103 40.1818 28.1064 39.902 28.1532 39.6037C28.3767 38.1762 29.0191 36.937 30.0109 36.0197C31.5752 34.5755 33.8409 34.0845 36.229 34.6728C36.4415 34.7252 36.6024 34.8993 36.6378 35.1155C37.0354 37.5432 36.3664 39.7638 34.8022 41.2079C33.6716 42.2519 32.1737 42.7975 30.5286 42.7976Z" fill="#334F3E"/>
<path d="M28.6727 42.5683C28.5364 42.5683 28.4003 42.5172 28.2948 42.4147L24.7519 39.1895C24.5286 38.9861 24.5124 38.6403 24.7157 38.4169C24.919 38.1936 25.2649 38.1775 25.4883 38.3807L29.0397 41.6139C29.046 41.6197 29.0521 41.6255 29.0582 41.6316C29.2718 41.8451 29.2739 42.1937 29.0604 42.4072C28.9532 42.5143 28.8129 42.5683 28.6727 42.5683Z" fill="#334F3E"/>
<path d="M26.8572 42.7975C25.212 42.7975 23.7145 42.2518 22.5836 41.2078C21.0195 39.7627 20.3505 37.5421 20.748 35.1154C20.7833 34.8993 20.9441 34.7253 21.1568 34.6728C23.5439 34.0846 25.8105 34.5754 27.3755 36.0193C28.3664 36.9358 29.0087 38.1749 29.2336 39.6032C29.238 39.6314 29.2403 39.6598 29.2403 39.6883V41.8769C29.2403 41.9059 29.238 41.9346 29.2334 41.9632L29.2115 42.1054C29.2093 42.1187 29.2067 42.1319 29.2037 42.1451C29.1586 42.3433 29.0052 42.5041 28.8013 42.5545C28.1399 42.7173 27.4877 42.7975 26.8572 42.7975ZM21.7769 35.6555C21.5577 37.5682 22.1129 39.2837 23.3258 40.4044C24.5312 41.5173 26.2709 41.9364 28.1468 41.5783V39.7319C27.9548 38.5665 27.4321 37.5613 26.6336 36.8227C25.42 35.7033 23.6661 35.2858 21.7769 35.6555Z" fill="#334F3E"/>
<path d="M32.375 11.7031H29.6406C29.3385 11.7031 29.0938 11.4583 29.0938 11.1562C29.0938 10.8543 29.3385 10.6094 29.6406 10.6094H32.375C32.6771 10.6094 32.9219 10.8543 32.9219 11.1562C32.9219 11.4583 32.6771 11.7031 32.375 11.7031Z" fill="#334F3E"/>
<path d="M32.375 14.4375H29.6406C29.3385 14.4375 29.0938 14.1927 29.0938 13.8906C29.0938 13.5886 29.3385 13.3438 29.6406 13.3438H32.375C32.6771 13.3438 32.9219 13.5886 32.9219 13.8906C32.9219 14.1927 32.6771 14.4375 32.375 14.4375Z" fill="#334F3E"/>
<path d="M32.375 17.1719H29.6406C29.3385 17.1719 29.0938 16.9271 29.0938 16.625C29.0938 16.323 29.3385 16.0781 29.6406 16.0781H32.375C32.6771 16.0781 32.9219 16.323 32.9219 16.625C32.9219 16.9271 32.6771 17.1719 32.375 17.1719Z" fill="#334F3E"/>
</svg>
