<svg width="56" height="57" viewBox="0 0 56 57" fill="none" xmlns="http://www.w3.org/2000/svg">
<path d="M28.2085 48.4433C27.5203 45.5992 27.5203 42.6214 28.2085 39.7773C28.9753 36.6121 30.5917 33.6119 33.0633 31.1404C37.7543 26.4492 44.3559 24.8307 50.3651 26.2867C51.8211 32.2959 50.2036 38.8975 45.5114 43.5896C40.8193 48.2807 34.2177 49.8993 28.2085 48.4433Z" fill="white"/>
<path d="M28.209 48.4433C22.2008 49.8993 15.5993 48.2807 10.9071 43.5896C6.21496 38.8975 4.59742 32.2959 6.05342 26.2867C12.0628 24.8307 18.6643 26.4493 23.3553 31.1404C25.8268 33.6119 27.4433 36.6122 28.209 39.7773C27.5209 42.6215 27.5209 45.5991 28.209 48.4433Z" fill="white"/>
<path d="M28.1273 15.0952C27.8299 15.0952 27.5889 14.8541 27.5889 14.5567V11.6361C27.5889 11.3388 27.8299 11.0977 28.1273 11.0977C28.4247 11.0977 28.6658 11.3388 28.6658 11.6361V14.5567C28.6658 14.8541 28.4246 15.0952 28.1273 15.0952Z" fill="#334F3E"/>
<path d="M36.6025 19.9619C36.4184 19.9619 36.239 19.8674 36.1384 19.6972C35.9872 19.4412 36.0721 19.111 36.3281 18.9597L38.8471 17.4714C39.1034 17.3201 39.4333 17.4052 39.5847 17.6611C39.7359 17.9171 39.651 18.2472 39.3949 18.3986L36.876 19.8869C36.7899 19.9377 36.6956 19.9619 36.6025 19.9619Z" fill="#334F3E"/>
<path d="M19.7098 19.9618C19.6183 19.9618 19.5257 19.9386 19.4409 19.8896L16.8649 18.4013C16.6074 18.2524 16.5193 17.9231 16.668 17.6656C16.8169 17.4082 17.146 17.32 17.4036 17.4688L19.9796 18.9571C20.2372 19.1059 20.3253 19.4352 20.1765 19.6927C20.0767 19.8652 19.8957 19.9618 19.7098 19.9618Z" fill="#334F3E"/>
<path d="M32.7646 16.7545C32.6713 16.7545 32.5767 16.7302 32.4906 16.6791C32.2347 16.5275 32.1503 16.1972 32.3019 15.9414L33.2184 14.395C33.3698 14.1392 33.7004 14.0544 33.9561 14.2063C34.2119 14.3579 34.2965 14.6882 34.1448 14.944L33.2284 16.4904C33.1278 16.6602 32.9485 16.7545 32.7646 16.7545Z" fill="#334F3E"/>
<path d="M23.4896 16.7544C23.3056 16.7544 23.1263 16.66 23.0257 16.4901L22.1103 14.9437C21.9589 14.6878 22.0435 14.3575 22.2994 14.206C22.5554 14.0546 22.8856 14.1392 23.0371 14.3951L23.9525 15.9416C24.104 16.1974 24.0194 16.5277 23.7634 16.6793C23.6773 16.7302 23.5829 16.7544 23.4896 16.7544Z" fill="#334F3E"/>
<path d="M40.8451 36.3493C40.7073 36.3493 40.5694 36.2967 40.4643 36.1915C40.2541 35.9813 40.2541 35.6404 40.4643 35.4301L45.6508 30.2437C45.8611 30.0334 46.2019 30.0334 46.4123 30.2437C46.6226 30.4539 46.6226 30.7948 46.4123 31.0051L41.2258 36.1915C41.1207 36.2967 40.9829 36.3493 40.8451 36.3493Z" fill="#334F3E"/>
<path d="M28.2093 48.9828C28.0716 48.9828 27.9337 48.9303 27.8286 48.8251C27.6183 48.6149 27.6183 48.2739 27.8286 48.0637L40.463 35.4292C40.6733 35.2189 41.0142 35.2189 41.2245 35.4292C41.4348 35.6394 41.4348 35.9804 41.2245 36.1906L28.5901 48.8251C28.485 48.9303 28.3473 48.9828 28.2093 48.9828Z" fill="#334F3E"/>
<path d="M32.0264 45.1669C31.997 45.1669 31.9672 45.1646 31.9371 45.1595C31.6438 45.1106 31.4457 44.8332 31.4947 44.5399L32.5329 38.3152C32.5818 38.0219 32.8585 37.8235 33.1526 37.8727C33.4459 37.9216 33.644 38.199 33.5951 38.4924L32.5569 44.717C32.5129 44.9802 32.2848 45.1669 32.0264 45.1669Z" fill="#334F3E"/>
<path d="M36.6954 40.4972C36.666 40.4972 36.6362 40.4948 36.6062 40.4898C36.3129 40.4409 36.1149 40.1635 36.1636 39.8701L36.9047 35.4246C36.9536 35.1312 37.2308 34.9331 37.5243 34.9821C37.8177 35.0309 38.0157 35.3084 37.9669 35.6017L37.2259 40.0473C37.1821 40.3106 36.9539 40.4972 36.6954 40.4972Z" fill="#334F3E"/>
<path d="M32.0253 45.1671C31.7668 45.1671 31.5386 44.9805 31.4947 44.717C31.4459 44.4236 31.6441 44.1462 31.9373 44.0974L38.1619 43.0603C38.4556 43.0107 38.7327 43.2096 38.7816 43.5029C38.8305 43.7963 38.6322 44.0737 38.339 44.1225L32.1143 45.1596C32.0844 45.1646 32.0546 45.1671 32.0253 45.1671Z" fill="#334F3E"/>
<path d="M40.8447 36.3481C40.5472 36.3481 40.3057 36.107 40.3057 35.8096C40.3057 35.5369 40.5079 35.3116 40.7707 35.276L43.4225 34.8338C43.7157 34.784 43.9933 34.983 44.0422 35.2763C44.0912 35.5697 43.893 35.8471 43.5998 35.896L40.9332 36.3407C40.904 36.3456 40.8744 36.3481 40.8447 36.3481Z" fill="#334F3E"/>
<path d="M23.8756 49.4984C22.2075 49.4984 20.5401 49.2793 18.9242 48.8418C15.7613 47.9853 12.8575 46.301 10.5267 43.9708C8.19604 41.6402 6.51162 38.7363 5.65536 35.5731C4.82484 32.5055 4.78176 29.2506 5.53044 26.1602C5.57793 25.9644 5.73096 25.8113 5.92707 25.7637C9.01708 25.015 12.2721 25.0583 15.3398 25.889C18.5026 26.7453 21.4062 28.4298 23.7365 30.76C26.192 33.2155 27.9197 36.29 28.7328 39.6511C28.8027 39.9401 28.6252 40.2312 28.336 40.301C28.0472 40.371 27.756 40.1934 27.6861 39.9043C26.9195 36.7356 25.2905 33.8369 22.975 31.5214C18.6271 27.1735 12.4915 25.3974 6.50225 26.7354C5.16407 32.7252 6.94034 38.8613 11.2883 43.2092C15.7148 47.6348 21.9929 49.3959 28.0825 47.9203C28.3718 47.8504 28.6626 48.0278 28.7326 48.3169C28.8026 48.6059 28.6252 48.897 28.3361 48.967C26.8741 49.3214 25.3744 49.4984 23.8756 49.4984Z" fill="#334F3E"/>
<path d="M32.5453 49.5003C32.545 49.5003 32.5447 49.5003 32.5445 49.5003C31.0411 49.5003 29.5399 49.3213 28.0824 48.9681C27.8863 48.9206 27.7333 48.7676 27.6858 48.5714C26.9797 45.6538 26.9797 42.5697 27.6858 39.6522C28.5001 36.2906 30.2281 33.2161 32.683 30.7611C36.2482 27.196 40.9884 25.2324 46.0303 25.2324C47.5334 25.2324 49.0346 25.4116 50.4924 25.7647C50.6884 25.8122 50.8414 25.9653 50.889 26.1613C51.6377 29.2516 51.5947 32.5065 50.7642 35.5741C49.9079 38.7373 48.2233 41.6412 45.8929 43.9717C42.3269 47.537 37.5867 49.5003 32.5453 49.5003ZM28.6578 47.9962C29.931 48.2798 31.2369 48.4234 32.5445 48.4234C37.2986 48.4236 41.7687 46.5723 45.1314 43.2103C49.4794 38.8623 51.2556 32.7264 49.9173 26.7367C48.6439 26.4531 47.3379 26.3095 46.0304 26.3095C41.2761 26.3095 36.8063 28.1608 33.4446 31.5225C31.1297 33.8376 29.5002 36.7364 28.7324 39.9055C28.0926 42.5502 28.0678 45.3401 28.6578 47.9962Z" fill="#334F3E"/>
<path d="M28.209 48.9838C28.0712 48.9838 27.9334 48.9312 27.8283 48.826L10.0074 31.0051C9.79703 30.7948 9.79703 30.4539 10.0074 30.2437C10.2177 30.0334 10.5585 30.0334 10.7688 30.2437L28.5898 48.0646C28.8 48.2748 28.8 48.6158 28.5898 48.826C28.4847 48.9312 28.3469 48.9838 28.209 48.9838Z" fill="#334F3E"/>
<path d="M24.3935 45.1672C24.1351 45.1672 23.9069 44.9806 23.8631 44.7171L22.8248 38.4925C22.7759 38.1991 22.9741 37.9217 23.2673 37.8728C23.5604 37.8232 23.8381 38.022 23.887 38.3153L24.9252 44.54C24.9741 44.8333 24.776 45.1107 24.4827 45.1596C24.4528 45.1647 24.4228 45.1672 24.3935 45.1672Z" fill="#334F3E"/>
<path d="M19.7251 40.4975C19.4667 40.4975 19.2385 40.3109 19.1946 40.0475L18.4537 35.6019C18.4048 35.3085 18.603 35.0312 18.8963 34.9823C19.189 34.9324 19.467 35.1315 19.516 35.4248L20.2569 39.8703C20.3057 40.1638 20.1075 40.4411 19.8143 40.49C19.7843 40.4951 19.7546 40.4975 19.7251 40.4975Z" fill="#334F3E"/>
<path d="M15.5756 36.3483C15.3171 36.3483 15.0889 36.1617 15.045 35.8983L14.6002 33.2307C14.5513 32.9374 14.7494 32.66 15.0427 32.6111C15.3364 32.5616 15.6135 32.7603 15.6625 33.0536L16.1072 35.7211C16.1561 36.0145 15.958 36.2919 15.6647 36.3408C15.6348 36.3458 15.6048 36.3483 15.5756 36.3483Z" fill="#334F3E"/>
<path d="M24.394 45.1668C24.3644 45.1668 24.3336 45.1645 24.3044 45.1595L18.0809 44.1224C17.7874 44.0736 17.5894 43.7962 17.6383 43.5028C17.6872 43.2095 17.9646 43.0109 18.2579 43.0603L24.4726 44.0958C24.7323 44.1343 24.9321 44.3582 24.9321 44.6284C24.932 44.9258 24.6913 45.1668 24.394 45.1668Z" fill="#334F3E"/>
<path d="M19.7253 40.4976C19.6957 40.4976 19.665 40.4953 19.6358 40.4903L15.1903 39.7494C14.8968 39.7005 14.6988 39.4232 14.7476 39.1297C14.7965 38.8365 15.0741 38.6379 15.3673 38.6872L19.8041 39.4266C20.0637 39.4651 20.2633 39.689 20.2633 39.9592C20.2632 40.2566 20.0227 40.4976 19.7253 40.4976Z" fill="#334F3E"/>
<path d="M46.6201 23.654C46.3692 23.654 46.1447 23.4778 46.0929 23.2225C44.3708 14.7363 36.8257 8.57692 28.1523 8.57692C19.4785 8.57692 11.933 14.7363 10.2108 23.2225C10.1516 23.5141 9.86705 23.7023 9.57596 23.6431C9.28454 23.584 9.09619 23.2998 9.15542 23.0082C10.0315 18.6908 12.3948 14.7586 15.8099 11.936C19.2709 9.07532 23.6541 7.5 28.1522 7.5C32.65 7.5 37.033 9.07532 40.4938 11.936C43.9088 14.7587 46.272 18.691 47.1482 23.0082C47.2073 23.2998 47.0191 23.584 46.7275 23.6431C46.6916 23.6504 46.6556 23.654 46.6201 23.654Z" fill="#334F3E"/>
</svg>
