<svg width="150" height="150" viewBox="0 0 150 150" fill="none" xmlns="http://www.w3.org/2000/svg">
<path d="M118.273 129.231C118.273 133.532 114.785 137.02 110.484 137.02C107.721 137.02 42.0498 137.02 39.5228 137.02C35.2219 137.02 31.7344 133.532 31.7344 129.231V35.1928C31.7344 30.8918 35.2219 27.4043 39.5228 27.4043H110.484C114.785 27.4043 118.273 30.8918 118.273 35.1928V129.231Z" fill="white"/>
<path d="M132.696 37.5C136.68 37.5 139.907 40.7279 139.907 44.7115C139.907 48.6952 136.68 51.9231 132.696 51.9231C128.712 51.9231 125.484 48.6952 125.484 44.7115C125.484 40.7279 128.712 37.5 132.696 37.5Z" fill="#EED9CB"/>
<path d="M15.8669 108.173C19.0544 108.173 21.6361 110.755 21.6361 113.942C21.6361 117.13 19.0544 119.711 15.8669 119.711C12.6794 119.711 10.0977 117.13 10.0977 113.942C10.0977 110.755 12.6794 108.173 15.8669 108.173Z" fill="#EED9CB"/>
<path d="M97.9354 27.4035C98.0306 27.8709 98.0796 28.3526 98.0796 28.8459C98.0796 32.8295 94.8517 36.0574 90.8681 36.0574H59.1373C57.1472 36.0574 55.3412 35.2497 54.0373 33.9459C52.7335 32.642 51.9258 30.8362 51.9258 28.8459C51.9258 28.3526 51.9748 27.8709 52.07 27.4035C52.7392 24.1122 55.6469 21.6343 59.1373 21.6343H63.8277C65.1085 16.6584 69.6258 12.9805 75.0027 12.9805C80.3767 12.9805 84.8969 16.6584 86.1777 21.6343H90.8681C92.8585 21.6343 94.6642 22.442 95.9684 23.7459C96.9489 24.7266 97.6498 25.9901 97.9354 27.4035Z" fill="#EED9CB"/>
<path d="M83.3301 45.2598C87.9397 45.2598 91.6724 48.9896 91.6724 53.5905C91.6724 61.9242 83.3301 66.6665 74.9965 75.0002C66.6657 66.6665 58.332 61.9242 58.332 53.5905C58.332 48.9896 62.0647 45.2598 66.666 45.2598C70.8311 45.2598 72.9138 47.3425 74.9967 51.5078C77.082 47.3425 79.165 45.2598 83.3301 45.2598Z" fill="#EED9CB"/>
<path d="M130.531 124.039C131.725 124.039 132.694 123.07 132.694 121.875C132.694 120.681 131.725 119.712 130.531 119.712C129.336 119.712 128.367 120.681 128.367 121.875C128.367 123.07 129.336 124.039 130.531 124.039Z" fill="#334F3E"/>
<path d="M129.089 66.3465C130.284 66.3465 131.253 65.3778 131.253 64.183C131.253 62.9881 130.284 62.0195 129.089 62.0195C127.894 62.0195 126.926 62.9881 126.926 64.183C126.926 65.3778 127.894 66.3465 129.089 66.3465Z" fill="#334F3E"/>
<path d="M120.433 17.3074C121.628 17.3074 122.596 16.3388 122.596 15.1439C122.596 13.9491 121.628 12.9805 120.433 12.9805C119.238 12.9805 118.27 13.9491 118.27 15.1439C118.27 16.3388 119.238 17.3074 120.433 17.3074Z" fill="#334F3E"/>
<path d="M43.9916 18.7498C45.1864 18.7498 46.155 17.7812 46.155 16.5863C46.155 15.3915 45.1864 14.4229 43.9916 14.4229C42.7967 14.4229 41.8281 15.3915 41.8281 16.5863C41.8281 17.7812 42.7967 18.7498 43.9916 18.7498Z" fill="#334F3E"/>
<path d="M15.1478 51.9236C16.3427 51.9236 17.3113 50.955 17.3113 49.7601C17.3113 48.5653 16.3427 47.5967 15.1478 47.5967C13.953 47.5967 12.9844 48.5653 12.9844 49.7601C12.9844 50.955 13.953 51.9236 15.1478 51.9236Z" fill="#334F3E"/>
<path d="M13.7064 90.866C14.9013 90.866 15.8699 89.8974 15.8699 88.7025C15.8699 87.5077 14.9013 86.5391 13.7064 86.5391C12.5116 86.5391 11.543 87.5077 11.543 88.7025C11.543 89.8974 12.5116 90.866 13.7064 90.866Z" fill="#334F3E"/>
<path d="M90.869 37.5006H59.1382C56.8256 37.5006 54.6524 36.6006 53.0182 34.9668C51.3844 33.3326 50.4844 31.1594 50.4844 28.8468C50.4844 28.2629 50.5426 27.6808 50.6577 27.1166C51.4735 23.1049 55.04 20.1929 59.1382 20.1929H62.7613C64.5749 15.0447 69.4579 11.5391 75.0036 11.5391C80.5493 11.5391 85.4326 15.0447 87.2459 20.1929H90.869C93.1816 20.1929 95.3551 21.0929 96.989 22.7268C98.1974 23.9351 99.0137 25.4539 99.3503 27.1189C99.4646 27.6808 99.5228 28.2629 99.5228 28.8468C99.5228 33.6185 95.6407 37.5006 90.869 37.5006ZM59.1382 23.0775C56.4056 23.0775 54.0278 25.0183 53.4844 27.6918C53.4076 28.0676 53.369 28.4559 53.369 28.8468C53.369 30.3886 53.969 31.8378 55.0579 32.927C56.1472 34.0163 57.5964 34.616 59.1382 34.616H90.869C94.0501 34.616 96.6382 32.0279 96.6382 28.8468C96.6382 28.4562 96.5996 28.0676 96.5231 27.6923C96.2993 26.5832 95.7549 25.5721 94.9493 24.7665C93.86 23.6775 92.4111 23.0775 90.869 23.0775H86.1786C85.5206 23.0775 84.946 22.6321 84.7819 21.9949C83.6344 17.537 79.6132 14.4237 75.0036 14.4237C70.394 14.4237 66.3728 17.537 65.2253 21.9949C65.0612 22.6321 64.4866 23.0775 63.8286 23.0775H59.1382Z" fill="#334F3E"/>
<path d="M110.485 138.462H39.5237C34.4338 138.462 30.293 134.321 30.293 129.231V35.1927C30.293 30.1028 34.4338 25.9619 39.5237 25.9619H52.0718C52.8685 25.9619 53.5141 26.6078 53.5141 27.4042C53.5141 28.2007 52.8685 28.8465 52.0718 28.8465H39.5237C36.0244 28.8465 33.1776 31.6934 33.1776 35.1927V129.231C33.1776 132.73 36.0244 135.577 39.5237 135.577H110.485C113.985 135.577 116.831 132.73 116.831 129.231V35.1927C116.831 31.6934 113.985 28.8465 110.485 28.8465H97.9372C97.1408 28.8465 96.4949 28.2007 96.4949 27.4042C96.4949 26.6078 97.1408 25.9619 97.9372 25.9619H110.485C115.575 25.9619 119.716 30.1028 119.716 35.1927V129.231C119.716 134.321 115.575 138.462 110.485 138.462Z" fill="#334F3E"/>
<path d="M15.8678 121.154C11.8913 121.154 8.65625 117.918 8.65625 113.942C8.65625 109.966 11.8913 106.73 15.8678 106.73C19.8442 106.73 23.0793 109.966 23.0793 113.942C23.0793 117.918 19.8442 121.154 15.8678 121.154ZM15.8678 109.615C13.4819 109.615 11.5409 111.556 11.5409 113.942C11.5409 116.328 13.4819 118.269 15.8678 118.269C18.2537 118.269 20.1947 116.328 20.1947 113.942C20.1947 111.556 18.2537 109.615 15.8678 109.615Z" fill="#334F3E"/>
<path d="M128.134 9.69238C139.286 9.69238 148.326 18.7328 148.326 29.8847C148.326 41.0366 139.286 50.077 128.134 50.077C116.982 50.077 107.941 41.0366 107.941 29.8847C107.941 18.7328 116.982 9.69238 128.134 9.69238Z" fill="white"/>
<path d="M137.824 20.1953C138.949 21.3232 138.949 23.1492 137.824 24.2742L132.214 29.8847L137.824 35.4953C138.387 36.0578 138.669 36.7963 138.669 37.5347C138.669 38.2732 138.387 39.0117 137.824 39.5742C136.696 40.6992 134.87 40.6992 133.745 39.5742L128.135 33.9636L122.524 39.5742C121.962 40.1367 121.223 40.4194 120.485 40.4194C119.746 40.4194 119.008 40.1367 118.445 39.5742C117.32 38.4463 117.32 36.6203 118.445 35.4953L124.056 29.8847L118.445 24.2742C117.32 23.1492 117.32 21.3232 118.445 20.1953C119.573 19.0703 121.399 19.0703 122.524 20.1953L128.135 25.8059L133.745 20.1953C134.87 19.0703 136.696 19.0703 137.824 20.1953Z" fill="#FE632F"/>
<path d="M120.488 41.8619C119.332 41.8619 118.245 41.4116 117.428 40.5941C115.743 38.9049 115.743 36.1604 117.428 34.4758L122.019 29.8849L117.428 25.2941C115.743 23.6095 115.743 20.865 117.427 19.1767C118.247 18.3586 119.333 17.9092 120.488 17.9092C121.644 17.9092 122.73 18.3589 123.546 19.1755L128.138 23.7664L132.728 19.1755C133.545 18.3589 134.631 17.9092 135.787 17.9092C136.942 17.9092 138.028 18.3586 138.846 19.1744C140.532 20.865 140.532 23.6095 138.847 25.2941L134.256 29.8849L138.847 34.4758C139.664 35.293 140.115 36.3797 140.115 37.535C140.115 38.6905 139.664 39.7769 138.847 40.5944C138.028 41.411 136.942 41.8604 135.787 41.8604C134.631 41.8604 133.545 41.4107 132.728 40.5941L128.138 36.0035L123.547 40.5944C122.729 41.4116 121.643 41.8619 120.488 41.8619ZM120.489 20.7941C120.103 20.7941 119.74 20.9444 119.467 21.2167C118.907 21.7777 118.906 22.693 119.468 23.2544L125.078 28.8649C125.642 29.4283 125.642 30.3416 125.078 30.9047L119.468 36.5152C118.906 37.0766 118.907 37.9919 119.469 38.5555C119.74 38.827 120.102 38.977 120.487 38.977C120.872 38.977 121.234 38.8267 121.507 38.5544L127.118 32.9438C127.681 32.3807 128.594 32.3807 129.157 32.9438L134.768 38.5544C135.04 38.8261 135.401 38.9758 135.786 38.9758C136.172 38.9758 136.535 38.8255 136.808 38.5532C137.079 38.2818 137.229 37.9198 137.229 37.535C137.229 37.1501 137.079 36.7881 136.807 36.5155L131.196 30.9047C130.633 30.3413 130.633 29.428 131.196 28.8649L136.807 23.2544C137.368 22.693 137.368 21.7777 136.806 21.2141C136.535 20.9441 136.172 20.7941 135.786 20.7941C135.401 20.7941 135.04 20.9438 134.768 21.2152L129.157 26.8258C128.594 27.3889 127.681 27.3889 127.118 26.8258L121.507 21.2152C121.235 20.9435 120.873 20.7941 120.489 20.7941Z" fill="#334F3E"/>
<path d="M128.135 51.5192C116.205 51.5192 106.5 41.8139 106.5 29.8846C106.5 17.9553 116.205 8.25 128.135 8.25C140.064 8.25 149.769 17.9553 149.769 29.8846C149.769 41.8139 140.064 51.5192 128.135 51.5192ZM128.135 11.1346C117.796 11.1346 109.385 19.5459 109.385 29.8846C109.385 40.2234 117.796 48.6346 128.135 48.6346C138.473 48.6346 146.885 40.2234 146.885 29.8846C146.885 19.5459 138.473 11.1346 128.135 11.1346Z" fill="#334F3E"/>
<path d="M106.732 126.924H43.2704C42.474 126.924 41.8281 126.278 41.8281 125.481V49.039C41.8281 48.2425 42.474 47.5967 43.2704 47.5967C44.0672 47.5967 44.7127 48.2425 44.7127 49.039V124.039H105.29V49.039C105.29 48.2425 105.936 47.5967 106.732 47.5967C107.529 47.5967 108.174 48.2425 108.174 49.039V125.481C108.174 126.278 107.529 126.924 106.732 126.924Z" fill="#334F3E"/>
<path d="M74.9976 76.4427H74.9974C74.6149 76.4427 74.2479 76.2907 73.9776 76.0201C71.9607 74.0026 69.9588 72.2121 68.0229 70.4805C62.0498 65.1376 56.8906 60.5233 56.8906 53.5905C56.8906 48.2014 61.2761 43.8174 66.6669 43.8174C70.7428 43.8174 73.1218 45.6439 74.9982 48.564C76.8764 45.6442 79.2568 43.8174 83.3313 43.8174C88.7267 43.8174 93.1159 48.2014 93.1159 53.5905C93.1159 60.5216 87.955 65.1347 81.9799 70.4764C80.0411 72.2092 78.0369 74.0008 76.0176 76.0201C75.7471 76.2909 75.3804 76.4427 74.9976 76.4427ZM66.6672 46.7023C62.8673 46.7023 59.7755 49.7923 59.7755 53.5907C59.7755 59.2333 64.2637 63.2482 69.9464 68.3306C71.5883 69.7994 73.2773 71.3098 74.9979 72.9768C76.7215 71.3078 78.4127 69.7959 80.0573 68.3257C85.7417 63.2444 90.2316 59.2313 90.2316 53.5905C90.2316 49.7923 87.1364 46.702 83.3316 46.702C80.0656 46.702 78.3539 48.0266 76.2876 52.1536C76.043 52.6417 75.544 52.9501 74.9979 52.9501H74.9974C74.4513 52.9498 73.952 52.6414 73.7076 52.1528C71.6443 48.0269 69.9337 46.7023 66.6672 46.7023Z" fill="#334F3E"/>
<path d="M70.6776 85.0965H50.4853C49.6888 85.0965 49.043 84.451 49.043 83.6542C49.043 82.8575 49.6888 82.2119 50.4853 82.2119H70.6776C71.4743 82.2119 72.1199 82.8575 72.1199 83.6542C72.1199 84.451 71.4743 85.0965 70.6776 85.0965Z" fill="#334F3E"/>
<path d="M98.0814 90.8651H50.4853C49.6888 90.8651 49.043 90.2195 49.043 89.4228C49.043 88.626 49.6888 87.9805 50.4853 87.9805H98.0814C98.8782 87.9805 99.5237 88.626 99.5237 89.4228C99.5237 90.2195 98.8782 90.8651 98.0814 90.8651Z" fill="#334F3E"/>
<path d="M70.6776 99.5194H50.4853C49.6888 99.5194 49.043 98.8738 49.043 98.0771C49.043 97.2803 49.6888 96.6348 50.4853 96.6348H70.6776C71.4743 96.6348 72.1199 97.2803 72.1199 98.0771C72.1199 98.8738 71.4743 99.5194 70.6776 99.5194Z" fill="#334F3E"/>
<path d="M98.0814 105.289H50.4853C49.6888 105.289 49.043 104.643 49.043 103.847C49.043 103.05 49.6888 102.404 50.4853 102.404H98.0814C98.8782 102.404 99.5237 103.05 99.5237 103.847C99.5237 104.643 98.8782 105.289 98.0814 105.289Z" fill="#334F3E"/>
<path d="M70.6776 113.942H50.4853C49.6888 113.942 49.043 113.297 49.043 112.5C49.043 111.703 49.6888 111.058 50.4853 111.058H70.6776C71.4743 111.058 72.1199 111.703 72.1199 112.5C72.1199 113.297 71.4743 113.942 70.6776 113.942Z" fill="#334F3E"/>
<path d="M98.0814 119.712H50.4853C49.6888 119.712 49.043 119.066 49.043 118.269C49.043 117.473 49.6888 116.827 50.4853 116.827H98.0814C98.8782 116.827 99.5237 117.473 99.5237 118.269C99.5237 119.066 98.8782 119.712 98.0814 119.712Z" fill="#334F3E"/>
</svg>
