<svg width="56" height="57" viewBox="0 0 56 57" fill="none" xmlns="http://www.w3.org/2000/svg">
<path d="M30.043 22.793L38.9065 13.8917C38.6987 12.6156 39.0861 11.2609 40.0703 10.2766C41.6945 8.65258 44.3297 8.65258 45.9539 10.2766C47.579 11.9018 47.579 14.5359 45.9539 16.1611C44.9695 17.1454 43.616 17.5326 42.3399 17.3238L36.8704 22.793C34.748 22.793 32.4158 22.793 30.043 22.793Z" fill="white"/>
<path d="M49.123 27.2832H13.7579C13.7422 27.6547 13.7344 28.0284 13.7344 28.4055C13.7344 34.7524 15.4572 40.4147 18.8547 44.1184H37.7039H41.631H41.6489C46.4808 40.4147 49.1554 34.7524 49.1554 28.4055C49.1555 28.0284 49.1443 27.6547 49.123 27.2832Z" fill="white"/>
<path d="M49.1217 27.2824H13.7567H7.59375V25.7481C7.59375 24.1162 8.91703 22.793 10.549 22.793H30.0413H36.8687H46.1654C47.7985 22.793 49.1217 24.1162 49.1217 25.7481V27.2824Z" fill="white"/>
<path d="M17.9416 30.8958C22.6994 29.7441 27.3763 32.7016 28.4942 37.3212C28.1665 38.6757 28.1665 40.0945 28.4942 41.4491C25.6322 42.1428 22.4884 41.3717 20.2537 39.137C18.0191 36.9023 17.2481 33.7589 17.9416 30.8958Z" fill="white"/>
<path d="M28.4958 41.4502C28.1681 40.0956 28.1681 38.6769 28.4958 37.3223C29.6194 32.6779 34.3209 29.7521 39.0495 30.8969C39.7432 33.76 38.9721 36.9037 36.7374 39.1383C34.5028 41.3727 31.3591 42.1438 28.4958 41.4502Z" fill="white"/>
<path d="M41.6308 44.1172V46.5864C41.6308 47.702 40.7306 48.6066 39.6206 48.6066H16.843C15.733 48.6066 14.834 47.702 14.834 46.5864V44.1172H14.843H18.8543H37.7036H41.6308Z" fill="white"/>
<path d="M18.8539 44.1184H14.8425C10.0107 40.4147 7.56055 34.7524 7.56055 28.4055C7.56055 28.0284 7.57177 27.6547 7.59422 27.2832H13.7572C13.7415 27.6547 13.7336 28.0284 13.7336 28.4055C13.7336 34.7524 15.4565 40.4147 18.8539 44.1184Z" fill="white"/>
<path d="M41.6485 44.6799H41.6305C41.3206 44.6799 41.0693 44.4287 41.0693 44.1188C41.0693 43.8978 41.1971 43.7066 41.3827 43.6152C46.0337 40.0132 48.5938 34.6158 48.5938 28.4059C48.5938 28.0482 48.5831 27.6814 48.5622 27.3157C48.5445 27.0062 48.7809 26.741 49.0903 26.7233C49.4009 26.709 49.665 26.942 49.6827 27.2515C49.7049 27.6384 49.7161 28.0269 49.7161 28.4059C49.7161 31.6564 49.0447 34.7144 47.7203 37.4948C46.3878 40.2923 44.4598 42.6708 41.9899 44.564C41.8919 44.6393 41.7719 44.6799 41.6485 44.6799Z" fill="#334F3E"/>
<path d="M14.8428 44.6803C14.7236 44.6803 14.6037 44.6425 14.5017 44.5644C9.6643 40.8563 7 35.1179 7 28.4062C7 28.0194 7.01167 27.6304 7.03479 27.25C7.05343 26.9406 7.31965 26.7048 7.62876 26.7237C7.9382 26.7425 8.17378 27.0085 8.15504 27.3178C8.13338 27.6756 8.12238 28.0419 8.12238 28.4062C8.12238 34.7607 10.6306 40.1829 15.1846 43.6737C15.4305 43.8623 15.4771 44.2145 15.2886 44.4605C15.1781 44.6046 15.0114 44.6803 14.8428 44.6803Z" fill="#334F3E"/>
<path d="M18.8535 44.6805C18.7016 44.6805 18.5504 44.6193 18.4398 44.4987C15.0428 40.7954 13.1719 35.0804 13.1719 28.4065C13.1719 28.0232 13.18 27.6374 13.196 27.2603C13.2091 26.9508 13.4711 26.7063 13.7804 26.7235C14.0901 26.7365 14.3304 26.9981 14.3174 27.3079C14.302 27.6693 14.2943 28.0389 14.2943 28.4065C14.2943 34.7987 16.0602 40.2443 19.2669 43.74C19.4764 43.9684 19.4611 44.3234 19.2327 44.5328C19.125 44.6317 18.989 44.6805 18.8535 44.6805Z" fill="#334F3E"/>
<path d="M37.7046 44.6799C37.5691 44.6799 37.4332 44.6311 37.3253 44.5323C37.097 44.3228 37.0817 43.9678 37.2912 43.7395C39.4387 41.3989 40.9975 38.1904 41.7994 34.461C41.8645 34.1579 42.163 33.9651 42.4658 34.0302C42.7689 34.0954 42.9617 34.3939 42.8966 34.6968C42.0528 38.6213 40.4005 42.0105 38.1183 44.4981C38.0076 44.6188 37.8563 44.6799 37.7046 44.6799Z" fill="#334F3E"/>
<path d="M39.6222 49.1684H16.8447C15.4274 49.1684 14.2744 48.0104 14.2744 46.587V44.1178C14.2744 43.8078 14.5257 43.5566 14.8356 43.5566H41.6324C41.9424 43.5566 42.1936 43.8078 42.1936 44.1178V46.587C42.1936 48.0104 41.0401 49.1684 39.6222 49.1684ZM15.3968 44.679V46.587C15.3968 47.3915 16.0463 48.046 16.8447 48.046H39.6222C40.4212 48.046 41.0712 47.3915 41.0712 46.587V44.679H15.3968Z" fill="#334F3E"/>
<path d="M36.8692 23.355C36.7257 23.355 36.582 23.3002 36.4725 23.1907C36.2533 22.9715 36.2533 22.6162 36.4725 22.3971L41.9417 16.9279C42.0694 16.8003 42.2508 16.7417 42.4292 16.7709C43.571 16.9578 44.7395 16.5815 45.5558 15.7651C46.9594 14.3617 46.9594 12.0778 45.5558 10.6743C44.1525 9.27091 41.8691 9.27102 40.4659 10.6743C39.6496 11.4906 39.2731 12.6599 39.459 13.8024C39.488 13.9801 39.4298 14.1609 39.3028 14.2885L30.4392 23.1898C30.2207 23.4095 29.8653 23.4101 29.6457 23.1915C29.4261 22.9729 29.4253 22.6175 29.6439 22.3979L38.3131 13.6917C38.1738 12.2886 38.6705 10.8822 39.672 9.88057C41.5129 8.03981 44.5083 8.03981 46.3492 9.88057C48.1903 11.7218 48.1903 14.7175 46.3492 16.5586C45.3475 17.5603 43.9419 18.0568 42.5397 17.9168L37.2659 23.1906C37.1566 23.3002 37.0129 23.355 36.8692 23.355Z" fill="#334F3E"/>
<path d="M49.1224 27.8461H7.59439C7.2845 27.8461 7.0332 27.5949 7.0332 27.2849V25.7507C7.0332 23.8118 8.61071 22.2344 10.5496 22.2344H46.166C48.1056 22.2344 49.6836 23.8118 49.6836 25.7507V27.2849C49.6836 27.5949 49.4324 27.8461 49.1224 27.8461ZM8.15558 26.7238H48.5612V25.7507C48.5612 24.4307 47.4867 23.3567 46.166 23.3567H10.5496C9.22958 23.3567 8.15558 24.4307 8.15558 25.7507V26.7238Z" fill="#334F3E"/>
<path d="M28.4948 42.011C28.3512 42.011 28.2075 41.9562 28.098 41.8466C27.8788 41.6275 27.8788 41.2722 28.098 41.0531L36.5865 32.5648C36.8057 32.3456 37.161 32.3456 37.3802 32.5648C37.5993 32.7839 37.5993 33.1392 37.3802 33.3583L28.8916 41.8466C28.7821 41.9561 28.6384 42.011 28.4948 42.011Z" fill="#334F3E"/>
<path d="M30.3128 40.1939C30.2823 40.1939 30.2512 40.1914 30.22 40.1862C29.9143 40.1353 29.7077 39.8462 29.7587 39.5405L30.2524 36.5765C30.3035 36.2706 30.5925 36.0641 30.8982 36.1152C31.204 36.166 31.4105 36.4551 31.3595 36.7609L30.8658 39.7249C30.82 39.9993 30.5822 40.1939 30.3128 40.1939Z" fill="#334F3E"/>
<path d="M32.5375 37.9698C32.5069 37.9698 32.4756 37.9674 32.4443 37.9621C32.1386 37.911 31.9322 37.6219 31.9834 37.3162L32.3368 35.1994C32.3879 34.8937 32.6767 34.6867 32.9829 34.7384C33.2886 34.7894 33.495 35.0786 33.4438 35.3843L33.0904 37.501C33.0445 37.7754 32.8067 37.9698 32.5375 37.9698Z" fill="#334F3E"/>
<path d="M30.3116 40.1927C30.0422 40.1927 29.8044 39.9982 29.7587 39.7236C29.7077 39.4179 29.9144 39.1287 30.22 39.0779L33.1853 38.5842C33.4909 38.5321 33.7802 38.7397 33.8311 39.0455C33.882 39.3512 33.6755 39.6403 33.3697 39.6911L30.4044 40.1849C30.3733 40.1901 30.3422 40.1927 30.3116 40.1927Z" fill="#334F3E"/>
<path d="M34.5128 35.9936C34.2433 35.9936 34.0055 35.7989 33.9598 35.5243C33.9091 35.2184 34.1158 34.9294 34.4214 34.8787L35.692 34.6677C35.998 34.6174 36.2867 34.8238 36.3376 35.1293C36.3883 35.4352 36.1816 35.7242 35.8759 35.7749L34.6054 35.9859C34.5743 35.9911 34.5434 35.9936 34.5128 35.9936Z" fill="#334F3E"/>
<path d="M26.4035 42.2615C23.9729 42.2615 21.6302 41.3072 19.8567 39.5337C17.5454 37.2224 16.6255 33.9439 17.396 30.7635C17.4453 30.5591 17.605 30.3996 17.8093 30.3501C20.2428 29.7609 22.7527 30.1576 24.8771 31.4662C26.9821 32.7631 28.4603 34.7954 29.0395 37.1889C29.1124 37.4901 28.9273 37.7934 28.6259 37.8662C28.3249 37.9395 28.0215 37.7541 27.9486 37.4528C27.4395 35.349 26.1395 33.5623 24.2884 32.4216C22.5192 31.3317 20.4452 30.962 18.4122 31.3662C17.8767 34.0555 18.7001 36.7897 20.6504 38.74C22.6828 40.7723 25.5653 41.5813 28.3618 40.9033C28.6632 40.8303 28.9664 41.0153 29.0394 41.3165C29.1124 41.6178 28.9274 41.9212 28.6261 41.9941C27.8862 42.1737 27.1407 42.2615 26.4035 42.2615Z" fill="#334F3E"/>
<path d="M30.5617 42.2566C30.5615 42.2566 30.5615 42.2566 30.5611 42.2566C29.8207 42.2566 29.0813 42.1683 28.3635 41.9944C28.1591 41.9449 27.9997 41.7853 27.9502 41.5809C27.6026 40.1443 27.6026 38.6256 27.9502 37.189C28.4403 35.1625 29.6179 33.3394 31.266 32.0554C32.8961 30.7855 34.9252 30.0859 36.9791 30.0859C37.7163 30.0859 38.4573 30.1748 39.1813 30.3501C39.3856 30.3995 39.5452 30.559 39.5947 30.7635C40.3652 33.9439 39.4453 37.2225 37.134 39.5337C35.3783 41.2895 33.044 42.2566 30.5617 42.2566ZM28.9667 40.9781C29.4908 41.0817 30.0258 41.1342 30.5613 41.1342H30.5617C32.7444 41.1342 34.7965 40.284 36.3404 38.7402C38.2907 36.7899 39.1142 34.0559 38.5786 31.3665C38.0496 31.2615 37.5132 31.2084 36.9791 31.2084C33.1947 31.2084 29.9305 33.7763 29.041 37.4531C28.7625 38.6045 28.7377 39.8159 28.9667 40.9781Z" fill="#334F3E"/>
<path d="M24.4532 37.9694C24.3095 37.9694 24.1659 37.9147 24.0563 37.8049L19.6107 33.3583C19.3915 33.1392 19.3915 32.7839 19.6107 32.5648C19.8299 32.3456 20.1851 32.3456 20.4043 32.5648L24.8502 37.0116C25.0693 37.2308 25.0692 37.5862 24.8499 37.8051C24.7404 37.9147 24.5967 37.9694 24.4532 37.9694Z" fill="#334F3E"/>
<path d="M26.6761 40.1914C26.5325 40.1914 26.3887 40.1366 26.2792 40.027L24.0568 37.8036C23.8377 37.5844 23.8378 37.2291 24.057 37.01C24.2761 36.7909 24.6315 36.7909 24.8506 37.0101L27.073 39.2335C27.2921 39.4527 27.292 39.808 27.0728 40.0271C26.9632 40.1365 26.8197 40.1914 26.6761 40.1914Z" fill="#334F3E"/>
<path d="M28.4954 42.0108C28.3518 42.0108 28.2081 41.9561 28.0985 41.8463L26.2814 40.0281C26.0623 39.8089 26.0624 39.4536 26.2818 39.2345C26.501 39.0155 26.8562 39.0155 27.0753 39.2348L28.8924 41.053C29.1115 41.2722 29.1114 41.6276 28.8921 41.8466C28.7826 41.956 28.639 42.0108 28.4954 42.0108Z" fill="#334F3E"/>
<path d="M26.6775 40.1922C26.4081 40.1922 26.1703 39.9977 26.1245 39.7231L25.6308 36.7591C25.5798 36.4534 25.7864 36.1643 26.0921 36.1134C26.3977 36.0616 26.6868 36.269 26.7379 36.5747L27.2316 39.5387C27.2826 39.8444 27.0759 40.1335 26.7703 40.1844C26.739 40.1897 26.708 40.1922 26.6775 40.1922Z" fill="#334F3E"/>
<path d="M24.4522 37.968C24.1829 37.968 23.9451 37.7736 23.8993 37.4991L23.5458 35.3823C23.4948 35.0766 23.7012 34.7875 24.0068 34.7364C24.3127 34.6848 24.6018 34.8919 24.6528 35.1975L25.0063 37.3142C25.0574 37.6199 24.8509 37.9091 24.5453 37.9601C24.514 37.9654 24.4829 37.968 24.4522 37.968Z" fill="#334F3E"/>
<path d="M22.478 35.9926C22.2086 35.9926 21.9709 35.7982 21.9251 35.5237L21.7128 34.2533C21.6618 33.9476 21.8683 33.6585 22.1739 33.6074C22.48 33.5562 22.7689 33.7628 22.8198 34.0685L23.0321 35.3388C23.0831 35.6446 22.8766 35.9337 22.571 35.9847C22.5398 35.99 22.5086 35.9926 22.478 35.9926Z" fill="#334F3E"/>
<path d="M26.6779 40.1924C26.6471 40.1924 26.615 40.1899 26.5846 40.1848L23.6204 39.6911C23.3146 39.6402 23.1082 39.3511 23.1591 39.0454C23.21 38.7395 23.4991 38.5324 23.8049 38.5841L26.7599 39.0764C27.0305 39.1163 27.2387 39.3496 27.2387 39.6314C27.2386 39.9411 26.9877 40.1924 26.6779 40.1924Z" fill="#334F3E"/>
<path d="M24.4555 37.969C24.4247 37.969 24.3926 37.9665 24.3622 37.9614L22.2454 37.6089C21.9397 37.5581 21.7331 37.2691 21.7841 36.9633C21.8349 36.6576 22.1235 36.4509 22.4298 36.5019L24.5375 36.8528C24.8081 36.8929 25.0162 37.1262 25.0162 37.4078C25.0161 37.7178 24.7655 37.969 24.4555 37.969Z" fill="#334F3E"/>
</svg>
