<svg width="60" height="61" viewBox="0 0 60 61" fill="none" xmlns="http://www.w3.org/2000/svg">
<path d="M50.6304 9.76572C45.1064 4.24231 37.7636 1.2002 29.9492 1.2002C22.1349 1.2002 14.7923 4.24244 9.26804 9.76572C3.74463 15.2897 0.699219 22.6359 0.699219 30.4496C0.699219 38.2634 3.74147 45.6107 9.26804 51.1336C14.7946 56.657 22.1349 59.6991 29.9492 59.6991C37.7636 59.6991 45.1062 56.6569 50.6304 51.1336C56.1538 45.6096 59.1992 38.2634 59.1992 30.4496C59.1992 22.6359 56.157 15.2886 50.6304 9.76572ZM49.491 47.8155L42.9051 41.2295C45.4362 38.1971 46.8831 34.4498 46.8831 30.4502C46.8831 26.4506 45.4362 22.7066 42.9051 19.6709L49.491 13.0849C53.7585 17.8786 56.12 23.9753 56.12 30.4507C56.12 36.9262 53.7585 43.0223 49.491 47.8166V47.8155ZM29.9493 44.3056C26.2483 44.3056 22.7691 42.8645 20.1521 40.2476C17.5351 37.6306 16.0941 34.1513 16.0941 30.4503C16.0941 26.7494 17.5351 23.2701 20.1521 20.6531C22.7691 18.0361 26.2484 16.5951 29.9493 16.5951C33.6503 16.5951 37.1296 18.0361 39.7466 20.6531C42.3635 23.2701 43.8046 26.7494 43.8046 30.4503C43.8046 34.1513 42.3635 37.6306 39.7466 40.2476C37.1296 42.8645 33.6503 44.3056 29.9493 44.3056ZM47.3152 10.9086L40.7292 17.4946C37.6968 14.9635 33.9495 13.5165 29.9499 13.5165C25.9503 13.5165 22.2063 14.9635 19.1706 17.4946L12.5846 10.9086C17.3783 6.63798 23.475 4.27969 29.9504 4.27969C36.4259 4.27969 42.522 6.63784 47.3163 10.9086H47.3152ZM10.4076 13.0853L16.9936 19.6713C14.4625 22.7038 13.0155 26.451 13.0155 30.4506C13.0155 34.4502 14.4625 38.1942 16.9936 41.23L10.4076 47.8159C6.14015 43.0222 3.7787 36.9255 3.7787 30.4501C3.7787 23.9746 6.14015 17.8785 10.4076 13.0842V13.0853ZM12.5844 49.9929L19.1703 43.4069C22.2028 45.938 25.95 47.385 29.9496 47.385C33.9492 47.385 37.6932 45.938 40.729 43.4069L47.3149 49.9929C42.5212 54.2635 36.4245 56.6218 29.9491 56.6218C23.4737 56.6218 17.3775 54.2637 12.5833 49.9929H12.5844Z" fill="#1E2C24" stroke="white"/>
</svg>
