<svg width="18" height="28" viewBox="0 0 18 28" fill="none" xmlns="http://www.w3.org/2000/svg">
<g clip-path="url(#clip0_3058_12500)">
<path d="M1.75064 16.2313C0.730684 15.1533 0.220703 13.8586 0.220703 12.3471C0.220703 10.8356 0.730684 9.54081 1.75064 8.46283C2.77061 7.38485 4.01332 6.84586 5.47878 6.84586C6.85045 6.84586 8.02868 7.32041 9.01347 8.2695C9.99826 7.32041 11.1765 6.84586 12.5482 6.84586C14.0136 6.84586 15.2563 7.38485 16.2763 8.46283C17.2963 9.54081 17.8062 10.8356 17.8062 12.3471C17.8062 13.8586 17.2963 15.1533 16.2763 16.2313L11.2468 21.5392C10.6372 22.1836 9.89275 22.5059 9.01347 22.5059C8.13419 22.5059 7.38974 22.1836 6.78011 21.5392L1.75064 16.2313ZM2.62992 15.3877L7.67697 20.6956C8.0404 21.0822 8.4859 21.2756 9.01347 21.2756C9.54104 21.2756 9.98654 21.0822 10.35 20.6956L15.397 15.3877C16.1942 14.5558 16.5928 13.5452 16.5928 12.3559C16.5928 11.1666 16.1972 10.156 15.4058 9.32404C14.6145 8.49212 13.6648 8.07616 12.557 8.07616C11.4491 8.07616 10.5024 8.48626 9.71689 9.30647C9.52931 9.50566 9.29484 9.60525 9.01347 9.60525C8.7321 9.60525 8.49763 9.50566 8.31005 9.30647C7.52456 8.48626 6.57787 8.07616 5.46998 8.07616C4.3621 8.07616 3.41248 8.49212 2.62113 9.32404C1.82978 10.156 1.4341 11.1666 1.4341 12.3559C1.4341 13.5452 1.83271 14.5558 2.62992 15.3877Z" fill="#4E3C31"/>
</g>
<defs>
<clipPath id="clip0_3058_12500">
<rect width="17.99" height="28" fill="white" transform="matrix(1 0 0 -1 0.00976562 28)"/>
</clipPath>
</defs>
</svg>
