<svg width="32" height="32" viewBox="0 0 32 32" fill="none" xmlns="http://www.w3.org/2000/svg">
<path fill-rule="evenodd" clip-rule="evenodd" d="M0.000185966 15.5001C0.000185966 14.6717 0.767688 14.0001 1.71445 14.0001H24.2856C25.2324 14.0001 25.9999 14.6717 25.9999 15.5001C25.9999 16.3285 25.2324 17.0001 24.2856 17.0001H1.71445C0.767688 17.0001 0.000185966 16.3285 0.000185966 15.5001Z" fill="#334F3E"/>
<path fill-rule="evenodd" clip-rule="evenodd" d="M0.000185966 24.5001C0.000185966 23.6716 0.762512 23.0001 1.70289 23.0001H18.2975C19.2379 23.0001 20.0002 23.6716 20.0002 24.5001C20.0002 25.3285 19.2379 26.0001 18.2975 26.0001H1.70289C0.762512 26.0001 0.000185966 25.3285 0.000185966 24.5001Z" fill="#334F3E"/>
<path fill-rule="evenodd" clip-rule="evenodd" d="M0.000185966 6.50008C0.000185966 5.67165 0.762512 5.00008 1.70289 5.00008H18.2975C19.2379 5.00008 20.0002 5.67165 20.0002 6.50008C20.0002 7.3285 19.2379 8.00008 18.2975 8.00008H1.70289C0.762512 8.00008 0.000185966 7.3285 0.000185966 6.50008Z" fill="#334F3E"/>
</svg>
