<svg width="73" height="72" viewBox="0 0 73 72" fill="none" xmlns="http://www.w3.org/2000/svg">
<path d="M61.9999 21.8333L36.4999 35.9999M36.4999 35.9999L10.9999 21.8333M36.4999 35.9999L36.5 64.5M63.5 48.1757V23.8243C63.5 22.7964 63.5 22.2825 63.3485 21.8241C63.2146 21.4185 62.9955 21.0463 62.7061 20.7322C62.3789 20.3772 61.9297 20.1276 61.0311 19.6284L38.8311 7.29506C37.9803 6.82238 37.5549 6.58605 37.1044 6.49339C36.7056 6.41138 36.2944 6.41138 35.8957 6.49339C35.4451 6.58605 35.0197 6.82238 34.1689 7.29506L11.9689 19.6284C11.0703 20.1276 10.6211 20.3772 10.2939 20.7322C10.0045 21.0463 9.78544 21.4185 9.65145 21.8241C9.5 22.2825 9.5 22.7964 9.5 23.8243V48.1757C9.5 49.2036 9.5 49.7176 9.65145 50.176C9.78544 50.5815 10.0045 50.9537 10.2939 51.2678C10.6211 51.6228 11.0703 51.8724 11.9689 52.3716L34.1689 64.705C35.0197 65.1776 35.4451 65.414 35.8957 65.5066C36.2944 65.5886 36.7056 65.5886 37.1044 65.5066C37.5549 65.414 37.9803 65.1776 38.8311 64.705L61.0311 52.3716C61.9297 51.8724 62.3789 51.6228 62.7061 51.2678C62.9955 50.9537 63.2146 50.5815 63.3485 50.176C63.5 49.7176 63.5 49.2036 63.5 48.1757Z" stroke="#1E2C24" stroke-width="2" stroke-linecap="round" stroke-linejoin="round"/>
<path d="M50 28.5L23 13.5" stroke="#1E2C24" stroke-width="2" stroke-linecap="round" stroke-linejoin="round"/>
</svg>
