<svg width="16" height="16" viewBox="0 0 16 16" fill="none" xmlns="http://www.w3.org/2000/svg">
<path d="M1 3.80775V14.3845C1 14.564 1.05767 14.7115 1.173 14.827C1.2885 14.9423 1.436 15 1.6155 15H14.3845C14.564 15 14.7115 14.9423 14.827 14.827C14.9423 14.7115 15 14.564 15 14.3845V3.80775H11V9.27875C11 9.58525 10.8737 9.81833 10.6212 9.978C10.3686 10.1375 10.1077 10.1468 9.8385 10.0058L8 9.09625L6.1615 10.0058C5.89233 10.1468 5.63142 10.1375 5.37875 9.978C5.12625 9.81833 5 9.58525 5 9.27875V3.80775H1ZM1.6155 16C1.168 16 0.786833 15.8427 0.472 15.528C0.157333 15.2132 0 14.832 0 14.3845V3.4865C0 3.29167 0.0310832 3.10833 0.0932499 2.9365C0.155417 2.76467 0.248667 2.60633 0.373 2.4615L1.93075 0.5905C2.07558 0.3955 2.25667 0.248334 2.474 0.149001C2.69133 0.0496672 2.92433 0 3.173 0H12.7885C13.0372 0 13.2733 0.0496672 13.497 0.149001C13.7208 0.248334 13.9052 0.3955 14.05 0.5905L15.627 2.5C15.7513 2.64483 15.8446 2.80633 15.9068 2.9845C15.9689 3.16283 16 3.34942 16 3.54425V14.3845C16 14.832 15.8427 15.2132 15.528 15.528C15.2132 15.8427 14.832 16 14.3845 16H1.6155ZM1.38075 2.80775H14.6L13.2693 1.2115C13.2051 1.1475 13.1313 1.09625 13.048 1.05775C12.9647 1.01925 12.8782 1 12.7885 1H3.19225C3.10258 1 3.01608 1.01925 2.93275 1.05775C2.84942 1.09625 2.77567 1.1475 2.7115 1.2115L1.38075 2.80775ZM6 3.80775V8.9615L8 7.9615L10 8.9615V3.80775H6Z" fill="#0AA44F"/>
</svg>
