<svg width="300" height="300" viewBox="0 0 300 300" fill="none" xmlns="http://www.w3.org/2000/svg">
<path d="M222.266 66.0156C226.582 66.0156 230.078 69.5117 230.078 73.8281C230.078 78.1445 226.582 81.6406 222.266 81.6406C217.949 81.6406 214.453 78.1445 214.453 73.8281C214.453 69.5117 217.949 66.0156 222.266 66.0156Z" fill="white"/>
<path d="M87.5 75.7812C92.8945 75.7812 97.2656 80.1523 97.2656 85.5469C97.2656 90.9414 92.8945 95.3125 87.5 95.3125C82.1055 95.3125 77.7344 90.9414 77.7344 85.5469C77.7344 80.1523 82.1055 75.7812 87.5 75.7812Z" fill="white"/>
<path d="M220.312 142.188L150 155.859L79.6875 142.188L150 128.516L220.312 142.188Z" fill="#EED9CB"/>
<path d="M220.312 206.641V224.219L150 237.891V220.312L220.312 206.641Z" fill="white"/>
<path d="M150 220.312V237.891L79.6875 224.219V206.641L150 220.312Z" fill="white"/>
<path d="M220.312 176.855V206.641L150 220.312V155.859L167.578 187.109L220.312 176.855Z" fill="#EED9CB"/>
<path d="M150 155.859V220.312L79.6875 206.641V176.855L132.422 187.109L150 155.859Z" fill="#EED9CB"/>
<path d="M220.312 176.855L167.578 187.109L150 155.859L220.312 142.188L237.891 173.438L220.312 176.855Z" fill="white"/>
<path d="M79.6875 176.855L62.1094 173.438L79.6875 142.188L150 155.859L132.422 187.109L79.6875 176.855Z" fill="white"/>
<path d="M237.891 110.938L220.312 142.188L150 128.516L167.578 97.2656L237.891 110.938Z" fill="white"/>
<path d="M132.422 97.2656L150 128.516L79.6875 142.188L62.1094 110.938L132.422 97.2656Z" fill="white"/>
<path d="M229.102 95.3125C230.72 95.3125 232.031 94.0008 232.031 92.3828C232.031 90.7648 230.72 89.4531 229.102 89.4531C227.484 89.4531 226.172 90.7648 226.172 92.3828C226.172 94.0008 227.484 95.3125 229.102 95.3125Z" fill="#334F3E"/>
<path d="M195.898 73.8281C197.516 73.8281 198.828 72.5165 198.828 70.8984C198.828 69.2804 197.516 67.9688 195.898 67.9688C194.28 67.9688 192.969 69.2804 192.969 70.8984C192.969 72.5165 194.28 73.8281 195.898 73.8281Z" fill="#334F3E"/>
<path d="M119.727 81.6406C121.345 81.6406 122.656 80.329 122.656 78.7109C122.656 77.0929 121.345 75.7812 119.727 75.7812C118.109 75.7812 116.797 77.0929 116.797 78.7109C116.797 80.329 118.109 81.6406 119.727 81.6406Z" fill="#334F3E"/>
<path d="M65.0391 99.2188C66.6571 99.2188 67.9688 97.9071 67.9688 96.2891C67.9688 94.671 66.6571 93.3594 65.0391 93.3594C63.421 93.3594 62.1094 94.671 62.1094 96.2891C62.1094 97.9071 63.421 99.2188 65.0391 99.2188Z" fill="#334F3E"/>
<path d="M149.998 239.844C149.082 239.844 148.264 239.196 148.083 238.263C147.877 237.205 148.569 236.18 149.628 235.974L218.36 222.609V176.676C218.36 175.597 219.234 174.723 220.313 174.723C221.392 174.723 222.266 175.597 222.266 176.676V224.219C222.266 225.154 221.603 225.958 220.685 226.136L150.373 239.808C150.247 239.833 150.122 239.844 149.998 239.844Z" fill="#334F3E"/>
<path d="M167.577 189.063C166.882 189.063 166.226 188.69 165.876 188.067L148.298 156.817C147.99 156.27 147.964 155.609 148.227 155.039C148.491 154.47 149.011 154.062 149.627 153.942L219.94 140.27C220.767 140.11 221.602 140.496 222.015 141.23L239.593 172.48C239.901 173.026 239.926 173.688 239.664 174.257C239.4 174.827 238.88 175.235 238.264 175.355L167.951 189.027C167.826 189.051 167.701 189.063 167.577 189.063ZM153.028 157.26L168.589 184.923L234.861 172.037L219.301 144.374L153.028 157.26Z" fill="#334F3E"/>
<path d="M220.313 144.14C220.189 144.14 220.064 144.128 219.94 144.104L149.627 130.432C149.011 130.312 148.491 129.904 148.227 129.335C147.964 128.765 147.99 128.104 148.298 127.557L165.876 96.3074C166.288 95.5738 167.123 95.1867 167.951 95.3476L238.263 109.02C238.879 109.139 239.4 109.548 239.663 110.117C239.926 110.687 239.9 111.348 239.592 111.895L222.014 143.145C221.664 143.767 221.009 144.14 220.313 144.14ZM153.029 127.114L219.301 140.001L234.862 112.338L168.589 99.4515L153.029 127.114Z" fill="#334F3E"/>
<path d="M149.845 51.9238C164.714 51.9238 176.768 63.9777 176.768 78.8469C176.768 93.7161 164.714 105.77 149.845 105.77C134.976 105.77 122.922 93.7161 122.922 78.8469C122.922 63.9777 134.976 51.9238 149.845 51.9238Z" fill="white"/>
<path d="M162.764 65.9277C164.264 67.4316 164.264 69.8662 162.764 71.3662L155.283 78.847L162.764 86.3277C163.514 87.0777 163.891 88.0623 163.891 89.047C163.891 90.0316 163.514 91.0162 162.764 91.7662C161.26 93.2662 158.826 93.2662 157.326 91.7662L149.845 84.2854L142.364 91.7662C141.614 92.5162 140.63 92.8931 139.645 92.8931C138.66 92.8931 137.676 92.5162 136.926 91.7662C135.426 90.2623 135.426 87.8277 136.926 86.3277L144.407 78.847L136.926 71.3662C135.426 69.8662 135.426 67.4316 136.926 65.9277C138.43 64.4277 140.864 64.4277 142.364 65.9277L149.845 73.4085L157.326 65.9277C158.826 64.4277 161.26 64.4277 162.764 65.9277Z" fill="#EED9CB"/>
<path d="M139.647 94.8158C138.107 94.8158 136.658 94.2154 135.568 93.1254C133.321 90.8731 133.322 87.2139 135.569 84.9678L141.689 78.8466L135.568 72.7254C133.322 70.4793 133.321 66.8201 135.567 64.5689C136.66 63.4781 138.109 62.8789 139.649 62.8789C141.189 62.8789 142.637 63.4785 143.726 64.5674L149.847 70.6885L155.969 64.5674C157.057 63.4785 158.506 62.8789 160.046 62.8789C161.586 62.8789 163.035 63.4781 164.125 64.5658C166.374 66.8201 166.373 70.4793 164.127 72.7254L158.006 78.8466L164.127 84.9678C165.217 86.0574 165.817 87.5062 165.817 89.0466C165.817 90.5874 165.217 92.0358 164.127 93.1258C163.035 94.2147 161.586 94.8139 160.046 94.8139C158.506 94.8139 157.057 94.2143 155.969 93.1254L149.847 87.0047L143.726 93.1258C142.637 94.2155 141.188 94.8158 139.647 94.8158ZM139.649 66.7254C139.135 66.7254 138.651 66.9258 138.286 67.2889C137.54 68.037 137.539 69.2574 138.288 70.0058L145.769 77.4866C146.52 78.2378 146.52 79.4554 145.769 80.2062L138.288 87.687C137.539 88.4354 137.54 89.6558 138.289 90.4074C138.651 90.7693 139.134 90.9693 139.647 90.9693C140.16 90.9693 140.643 90.7689 141.006 90.4058L148.487 82.9251C149.239 82.1743 150.456 82.1743 151.207 82.9251L158.688 90.4058C159.05 90.7681 159.532 90.9678 160.046 90.9678C160.56 90.9678 161.044 90.7674 161.408 90.4043C161.77 90.0424 161.97 89.5597 161.97 89.0466C161.97 88.5335 161.769 88.0508 161.406 87.6874L153.926 80.2062C153.174 79.4551 153.174 78.2374 153.926 77.4866L161.406 70.0058C162.155 69.2574 162.154 68.037 161.405 67.2854C161.044 66.9254 160.56 66.7254 160.046 66.7254C159.532 66.7254 159.05 66.9251 158.688 67.287L151.207 74.7678C150.456 75.5185 149.239 75.5185 148.487 74.7678L141.007 67.287C140.644 66.9247 140.162 66.7254 139.649 66.7254Z" fill="#334F3E"/>
<path d="M149.846 107.692C133.94 107.692 121 94.7519 121 78.8462C121 62.9404 133.94 50 149.846 50C165.752 50 178.692 62.9404 178.692 78.8462C178.692 94.7519 165.752 107.692 149.846 107.692ZM149.846 53.8462C136.061 53.8462 124.846 65.0612 124.846 78.8462C124.846 92.6312 136.061 103.846 149.846 103.846C163.631 103.846 174.846 92.6312 174.846 78.8462C174.846 65.0612 163.631 53.8462 149.846 53.8462Z" fill="#334F3E"/>
<path d="M150 239.844C149.876 239.844 149.751 239.832 149.627 239.808L79.3148 226.136C78.3969 225.957 77.7344 225.154 77.7344 224.219V176.675C77.7344 175.596 78.609 174.722 79.6875 174.722C80.766 174.722 81.6406 175.596 81.6406 176.675V222.609L148.047 235.521V155.859C148.047 154.78 148.921 153.906 150 153.906C151.079 153.906 151.953 154.78 151.953 155.859V237.891C151.953 238.473 151.693 239.027 151.243 239.397C150.889 239.688 150.449 239.844 150 239.844Z" fill="#334F3E"/>
<path d="M149.998 222.266C149.082 222.266 148.264 221.618 148.083 220.685C147.877 219.626 148.569 218.601 149.628 218.395L219.94 204.723C220.999 204.519 222.024 205.209 222.23 206.267C222.436 207.326 221.744 208.352 220.685 208.558L150.373 222.23C150.247 222.254 150.122 222.266 149.998 222.266Z" fill="#334F3E"/>
<path d="M150.003 222.266C149.879 222.266 149.753 222.255 149.628 222.23L79.315 208.558C78.2565 208.352 77.565 207.327 77.7705 206.268C77.9764 205.209 79.001 204.518 80.0608 204.724L150.373 218.396C151.432 218.601 152.124 219.627 151.918 220.685C151.736 221.618 150.919 222.266 150.003 222.266Z" fill="#334F3E"/>
<path d="M132.422 189.062C132.299 189.062 132.174 189.05 132.049 189.026L61.7366 175.355C61.1206 175.235 60.5999 174.826 60.3366 174.256C60.0734 173.687 60.0995 173.026 60.4069 172.48L77.9851 141.23C78.3976 140.496 79.2343 140.108 80.0601 140.27L150.373 153.942C150.989 154.062 151.509 154.47 151.773 155.039C152.036 155.608 152.01 156.269 151.702 156.817L134.124 188.067C133.774 188.689 133.118 189.062 132.422 189.062ZM65.1382 172.037L131.411 184.923L146.971 157.26L80.6984 144.374L65.1382 172.037Z" fill="#334F3E"/>
<path d="M79.687 144.141C78.9913 144.141 78.3355 143.768 77.9851 143.145L60.4069 111.895C60.0995 111.349 60.0734 110.687 60.3366 110.118C60.5999 109.548 61.1206 109.14 61.7366 109.02L132.049 95.3482C132.876 95.1884 133.712 95.5748 134.124 96.308L151.702 127.558C152.01 128.104 152.036 128.766 151.773 129.335C151.51 129.905 150.989 130.313 150.373 130.433L80.0605 144.105C79.9355 144.129 79.8105 144.141 79.687 144.141ZM65.1382 112.338L80.6984 140.001L146.971 127.115L131.411 99.4517L65.1382 112.338Z" fill="#334F3E"/>
<path d="M222.266 83.5938C216.881 83.5938 212.5 79.2129 212.5 73.8281C212.5 68.4434 216.881 64.0625 222.266 64.0625C227.65 64.0625 232.031 68.4434 232.031 73.8281C232.031 79.2129 227.65 83.5938 222.266 83.5938ZM222.266 67.9688C219.035 67.9688 216.406 70.5973 216.406 73.8281C216.406 77.059 219.035 79.6875 222.266 79.6875C225.496 79.6875 228.125 77.059 228.125 73.8281C228.125 70.5973 225.496 67.9688 222.266 67.9688Z" fill="#334F3E"/>
<path d="M87.5 97.2656C81.0383 97.2656 75.7812 92.0086 75.7812 85.5469C75.7812 79.0852 81.0383 73.8281 87.5 73.8281C93.9617 73.8281 99.2188 79.0852 99.2188 85.5469C99.2188 92.0086 93.9617 97.2656 87.5 97.2656ZM87.5 77.7344C83.1922 77.7344 79.6875 81.2391 79.6875 85.5469C79.6875 89.8547 83.1922 93.3594 87.5 93.3594C91.8078 93.3594 95.3125 89.8547 95.3125 85.5469C95.3125 81.2391 91.8078 77.7344 87.5 77.7344Z" fill="#334F3E"/>
</svg>
