<svg width="16" height="18" viewBox="0 0 16 18" fill="none" xmlns="http://www.w3.org/2000/svg">
<path d="M3.30775 17.4997C2.80908 17.4997 2.38308 17.3232 2.02975 16.97C1.67658 16.6167 1.5 16.1907 1.5 15.692V2.99973H0.5V1.49973H5V0.615234H11V1.49973H15.5V2.99973H14.5V15.692C14.5 16.1972 14.325 16.6247 13.975 16.9747C13.625 17.3247 13.1974 17.4997 12.6923 17.4997H3.30775ZM13 2.99973H3V15.692C3 15.7818 3.02883 15.8556 3.0865 15.9132C3.14417 15.9709 3.21792 15.9997 3.30775 15.9997H12.6923C12.7692 15.9997 12.8398 15.9677 12.9038 15.9035C12.9679 15.8395 13 15.769 13 15.692V2.99973ZM5.404 13.9997H6.90375V4.99973H5.404V13.9997ZM9.09625 13.9997H10.596V4.99973H9.09625V13.9997Z" fill="#FF4234"/>
</svg>
