<svg width="18" height="20" viewBox="0 0 18 20" fill="none" xmlns="http://www.w3.org/2000/svg">
<path d="M3.6 2.19935L2.3 3.93268C2.04251 4.276 1.91377 4.44765 1.91676 4.59134C1.91936 4.71638 1.97799 4.83364 2.07646 4.91075C2.18962 4.99935 2.40419 4.99935 2.83333 4.99935H15.1667C15.5958 4.99935 15.8104 4.99935 15.9235 4.91075C16.022 4.83364 16.0806 4.71638 16.0832 4.59134C16.0862 4.44765 15.9575 4.276 15.7 3.93268L14.4 2.19935M3.6 2.19935C3.74667 2.00379 3.82 1.90602 3.91294 1.8355C3.99525 1.77304 4.08846 1.72643 4.18782 1.69805C4.3 1.66602 4.42222 1.66602 4.66667 1.66602H13.3333C13.5778 1.66602 13.7 1.66602 13.8122 1.69805C13.9115 1.72643 14.0047 1.77304 14.0871 1.8355C14.18 1.90602 14.2533 2.00379 14.4 2.19935M3.6 2.19935L2.03333 4.28824C1.83545 4.55208 1.73651 4.684 1.66625 4.82928C1.6039 4.9582 1.55843 5.09461 1.53096 5.23515C1.5 5.39353 1.5 5.55843 1.5 5.88824L1.5 15.666C1.5 16.5994 1.5 17.0661 1.68166 17.4227C1.84144 17.7363 2.09641 17.9912 2.41002 18.151C2.76654 18.3327 3.23325 18.3327 4.16667 18.3327L13.8333 18.3327C14.7668 18.3327 15.2335 18.3327 15.59 18.151C15.9036 17.9912 16.1586 17.7363 16.3183 17.4227C16.5 17.0661 16.5 16.5994 16.5 15.666V5.88824C16.5 5.55843 16.5 5.39353 16.469 5.23515C16.4416 5.09461 16.3961 4.9582 16.3338 4.82929C16.2635 4.68401 16.1646 4.55208 15.9667 4.28824L14.4 2.19935M12.3333 8.33268C12.3333 9.21674 11.9821 10.0646 11.357 10.6897C10.7319 11.3148 9.88405 11.666 9 11.666C8.11594 11.666 7.2681 11.3148 6.64298 10.6897C6.01786 10.0646 5.66667 9.21674 5.66667 8.33268" stroke="white" stroke-width="1.66667" stroke-linecap="round" stroke-linejoin="round"/>
</svg>
