<svg width="24" height="24" viewBox="0 0 24 24" fill="none" xmlns="http://www.w3.org/2000/svg">
<path d="M7.95391 18.4998C7.74107 18.4998 7.56282 18.428 7.41916 18.2843C7.27566 18.1408 7.20391 17.9627 7.20391 17.7498C7.20391 17.537 7.27566 17.3588 7.41916 17.2153C7.56282 17.0717 7.74107 16.9998 7.95391 16.9998H14.3807C15.4243 16.9998 16.3224 16.6552 17.0749 15.9661C17.8276 15.2771 18.2039 14.4262 18.2039 13.4133C18.2039 12.4005 17.8276 11.5511 17.0749 10.8651C16.3224 10.1792 15.4243 9.83632 14.3807 9.83632H7.35966L9.61541 12.0921C9.76024 12.2371 9.83266 12.4127 9.83266 12.6191C9.83266 12.8254 9.76024 13.0011 9.61541 13.1461C9.47057 13.2909 9.29332 13.3617 9.08366 13.3586C8.87399 13.3552 8.69999 13.2844 8.56166 13.1461L5.13466 9.71907C5.04099 9.6254 4.97499 9.52665 4.93666 9.42282C4.89816 9.31899 4.87891 9.20682 4.87891 9.08632C4.87891 8.96582 4.89816 8.85365 4.93666 8.74982C4.97499 8.64599 5.04099 8.54724 5.13466 8.45357L8.56166 5.02682C8.70649 4.88199 8.88207 4.80957 9.08841 4.80957C9.29491 4.80957 9.47057 4.88199 9.61541 5.02682C9.76024 5.17165 9.83107 5.3489 9.82791 5.55857C9.82474 5.76807 9.75391 5.94207 9.61541 6.08057L7.35966 8.33632H14.3807C15.8435 8.33632 17.0964 8.82449 18.1394 9.80082C19.1824 10.7772 19.7039 11.9813 19.7039 13.4133C19.7039 14.8453 19.1824 16.0511 18.1394 17.0306C17.0964 18.0101 15.8435 18.4998 14.3807 18.4998H7.95391Z" fill="#334F3E"/>
</svg>
