<svg width="18" height="18" viewBox="0 0 18 18" fill="none" xmlns="http://www.w3.org/2000/svg">
<path d="M11.2172 14.1538C11.3238 14.0513 11.3821 13.9327 11.3923 13.798C11.4026 13.6635 11.3545 13.543 11.248 13.4365L8.0885 10.05L8.1135 9.975H8.3635C9.34033 9.975 10.1374 9.72567 10.7548 9.227C11.3721 8.72817 11.7218 8.06083 11.8038 7.225H12.3635C12.48 7.225 12.5761 7.18517 12.6518 7.1055C12.7276 7.02567 12.7655 6.92883 12.7655 6.815C12.7655 6.70117 12.7276 6.60608 12.6518 6.52975C12.5761 6.45358 12.48 6.4155 12.3635 6.4155H11.7788C11.7288 6.06283 11.6188 5.742 11.449 5.453C11.2792 5.16383 11.0641 4.91092 10.8038 4.69425H12.3635C12.48 4.69425 12.5761 4.65442 12.6518 4.57475C12.7276 4.49492 12.7655 4.39808 12.7655 4.28425C12.7655 4.17042 12.7276 4.07533 12.6518 3.999C12.5761 3.92267 12.48 3.8845 12.3635 3.8845H5.67125C5.55075 3.8845 5.44783 3.9275 5.3625 4.0135C5.27717 4.09933 5.2345 4.20283 5.2345 4.324C5.2345 4.44517 5.27717 4.54675 5.3625 4.62875C5.44783 4.71092 5.55075 4.752 5.67125 4.752H8.423C9.07433 4.752 9.61125 4.89875 10.0337 5.19225C10.4561 5.48592 10.7172 5.89367 10.8173 6.4155H5.6365C5.52 6.4155 5.42392 6.45533 5.34825 6.535C5.27242 6.61467 5.2345 6.71142 5.2345 6.82525C5.2345 6.93925 5.27242 7.03433 5.34825 7.1105C5.42392 7.18683 5.52 7.225 5.6365 7.225H10.8422C10.7679 7.802 10.5153 8.25617 10.0845 8.5875C9.65383 8.91883 9.09425 9.0845 8.40575 9.0845H7.70575C7.52558 9.0845 7.36967 9.12817 7.238 9.2155C7.10633 9.30267 7.01158 9.41867 6.95375 9.5635C6.89608 9.70833 6.8775 9.85417 6.898 10.001C6.9185 10.1478 6.991 10.2917 7.1155 10.4327L10.5193 14.1288C10.6218 14.2353 10.7372 14.2917 10.8655 14.298C10.9937 14.3045 11.1109 14.2564 11.2172 14.1538ZM9.00325 18C7.75875 18 6.58867 17.7638 5.493 17.2915C4.3975 16.8192 3.4445 16.1782 2.634 15.3685C1.8235 14.5588 1.18192 13.6067 0.70925 12.512C0.236417 11.4175 0 10.2479 0 9.00325C0 7.75875 0.236167 6.58867 0.7085 5.493C1.18083 4.3975 1.82183 3.4445 2.6315 2.634C3.44117 1.8235 4.39333 1.18192 5.488 0.70925C6.5825 0.236417 7.75208 0 8.99675 0C10.2413 0 11.4113 0.236167 12.507 0.708501C13.6025 1.18083 14.5555 1.82183 15.366 2.6315C16.1765 3.44117 16.8181 4.39333 17.2908 5.488C17.7636 6.5825 18 7.75208 18 8.99675C18 10.2413 17.7638 11.4113 17.2915 12.507C16.8192 13.6025 16.1782 14.5555 15.3685 15.366C14.5588 16.1765 13.6067 16.8181 12.512 17.2908C11.4175 17.7636 10.2479 18 9.00325 18ZM9 17C11.2333 17 13.125 16.225 14.675 14.675C16.225 13.125 17 11.2333 17 9C17 6.76667 16.225 4.875 14.675 3.325C13.125 1.775 11.2333 1 9 1C6.76667 1 4.875 1.775 3.325 3.325C1.775 4.875 1 6.76667 1 9C1 11.2333 1.775 13.125 3.325 14.675C4.875 16.225 6.76667 17 9 17Z" fill="#1E2C24"/>
</svg>
