<svg width="51" height="59" viewBox="0 0 51 59" fill="none" xmlns="http://www.w3.org/2000/svg">
<path d="M45.1641 13.2682H44.5311L42.2558 4.53228L30.2837 7.48352L27.6013 0.200195L7.45882 13.2683H6.06756C2.88766 13.2683 0.300781 15.8554 0.300781 19.0351V52.9334C0.300781 56.1133 2.8878 58.7002 6.06756 58.7002H45.1649C48.3448 58.7002 50.9316 56.1132 50.9316 52.9334L50.9311 19.0351C50.9316 15.8558 48.344 13.2682 45.1641 13.2682ZM26.6811 2.96911L28.5059 7.92239L13.2461 11.6849L26.6811 2.96911ZM40.9475 6.73163L42.6494 13.2686H14.4316L40.9475 6.73163ZM49.1105 43.6172H33.8159C29.6068 43.6172 26.1829 40.1934 26.1829 35.9854C26.1829 31.7773 29.6073 28.3529 33.8159 28.3529H49.1105V43.6172ZM33.8159 26.5314C28.6025 26.5314 24.3618 30.7719 24.3618 35.985C24.3618 41.1973 28.6023 45.4379 33.8159 45.4379H49.1105V52.9337C49.1105 55.1093 47.3403 56.8795 45.1647 56.8795L6.06874 56.879C3.89312 56.879 2.12293 55.1088 2.12293 52.9332V19.0349C2.12293 17.7731 2.72075 16.65 3.646 15.9275L7.04596 15.089H45.1651C47.3407 15.089 49.1109 16.8592 49.1109 19.0349V26.5312L33.8159 26.5314Z" fill="#1E2C24"/>
<path d="M31.1877 35.9859C31.1877 37.6862 32.5709 39.07 34.2717 39.07C35.9726 39.07 37.3567 37.6868 37.3567 35.9859C37.3567 34.2851 35.9724 32.9015 34.2717 32.9015C32.5704 32.9015 31.1877 34.2852 31.1877 35.9859ZM34.2712 34.7225C34.9682 34.7225 35.5351 35.2895 35.5351 35.9859C35.5351 36.6819 34.9682 37.2488 34.2712 37.2488C33.5747 37.2488 33.0083 36.6819 33.0083 35.9859C33.0088 35.2895 33.5752 34.7225 34.2712 34.7225Z" fill="#1E2C24"/>
</svg>
