<svg width="16" height="17" viewBox="0 0 16 17" fill="none" xmlns="http://www.w3.org/2000/svg">
<g clip-path="url(#clip0_3804_12872)">
<path d="M13.8346 7.24337C13.8346 9.05953 13.1928 10.6091 11.909 11.8922C10.6253 13.1752 9.07775 13.8167 7.26644 13.8167C5.45513 13.8167 3.9076 13.1752 2.62386 11.8922C1.34011 10.6091 0.698242 9.06246 0.698242 7.25216C0.698242 5.44186 1.34011 3.89519 2.62386 2.61216C3.9076 1.32913 5.45513 0.687613 7.26644 0.687613C9.07775 0.687613 10.6253 1.32913 11.909 2.61216C13.1928 3.89519 13.8346 5.43893 13.8346 7.24337ZM12.7092 7.24337C12.7092 5.74357 12.1757 4.46347 11.1089 3.40307C10.042 2.34266 8.75828 1.81246 7.25765 1.81246C5.75701 1.81246 4.4762 2.34266 3.41521 3.40307C2.35421 4.46347 1.82372 5.74357 1.82372 7.24337C1.82372 8.74317 2.35421 10.0262 3.41521 11.0925C4.4762 12.1587 5.75701 12.6919 7.25765 12.6919C8.75828 12.6919 10.042 12.1587 11.1089 11.0925C12.1757 10.0262 12.7092 8.74317 12.7092 7.24337ZM11.7947 11.3209L15.5404 15.0646C15.6459 15.1818 15.6987 15.3165 15.6987 15.4688C15.6987 15.6211 15.6459 15.753 15.5404 15.8643C15.4349 15.9756 15.303 16.0312 15.1448 16.0312C14.9865 16.0312 14.8546 15.9727 14.7491 15.8555L10.9858 12.1119C10.8803 12.0064 10.8275 11.8746 10.8275 11.7164C10.8275 11.5582 10.8832 11.4264 10.9946 11.3209C11.1059 11.2155 11.2378 11.1628 11.3902 11.1628C11.5427 11.1628 11.6775 11.2155 11.7947 11.3209Z" fill="#1E2C24"/>
</g>
<defs>
<clipPath id="clip0_3804_12872">
<rect width="16" height="17" fill="white" transform="matrix(1 0 0 -1 0.00976562 17)"/>
</clipPath>
</defs>
</svg>
