<svg width="50" height="50" viewBox="0 0 50 50" fill="none" xmlns="http://www.w3.org/2000/svg">
<g clip-path="url(#clip0_2016_6103)">
<path d="M49.2179 6.95611C49.2008 6.63932 48.9817 6.36949 48.675 6.28785L25.1695 0.0246826C25.0458 -0.00822752 24.9157 -0.00822752 24.7921 0.0246826L1.32318 6.28795C1.01712 6.36969 0.798176 6.63883 0.780598 6.95514C0.764289 7.24811 0.413606 14.2331 3.16038 23.0639C4.77473 28.2539 7.13137 32.9926 10.165 37.1484C13.9597 42.3471 18.8269 46.6391 24.6311 49.9058C24.7426 49.9685 24.8664 50 24.9903 50C25.1083 50 25.2264 49.9715 25.3339 49.9144C31.1479 46.8262 36.0232 42.643 39.8241 37.481C42.8611 33.3563 45.2204 28.6037 46.8364 23.3552C49.5846 14.4291 49.2342 7.25719 49.2179 6.95611ZM45.421 22.9736C43.8507 28.0558 41.5645 32.6529 38.6258 36.6376C35.1982 41.2852 30.8639 45.1106 25.7318 48.0236V44.2556C32.385 40.0553 37.4028 34.1094 40.6464 26.5751C43.3172 20.3717 44.1875 14.4831 44.4473 10.6354C44.4709 10.2858 44.2437 9.96841 43.905 9.87828L42.4114 9.48033C42.0207 9.37623 41.6192 9.60855 41.515 9.99957C41.4109 10.3904 41.6432 10.7918 42.0342 10.896L42.9412 11.1376C42.6407 14.8677 41.7543 20.2971 39.3008 25.9958C36.1938 33.2129 31.403 38.9148 25.0572 42.9508C24.4202 42.5296 23.7937 42.09 23.1901 41.6406C22.8658 41.399 22.4068 41.4661 22.1651 41.7906C21.9235 42.115 21.9906 42.574 22.3151 42.8156C22.9459 43.2853 23.6011 43.7433 24.2667 44.1828V47.9997C19.1322 44.9282 14.7968 41.0013 11.3681 36.3118C8.43029 32.2938 6.14494 27.7075 4.57541 22.6806C2.31634 15.4447 2.20589 9.34488 2.22933 7.56236L24.2667 1.68112V5.02672L6.10383 9.87398C5.76438 9.96461 5.53703 10.2835 5.56203 10.6339C5.75119 13.281 6.28361 17.3995 7.74641 21.9882C10.1647 29.5743 14.2262 35.9031 19.8181 40.7989C19.957 40.9206 20.129 40.9803 20.3004 40.9803C20.5042 40.9803 20.7069 40.8957 20.8519 40.7303C21.1184 40.4259 21.0876 39.9631 20.7832 39.6967C15.3949 34.9793 11.4783 28.8716 9.1422 21.5434C7.8299 17.4267 7.28947 13.7003 7.07063 11.1325L24.982 6.35241L38.8682 10.0525C39.2591 10.1565 39.6605 9.92427 39.7646 9.53326C39.8687 9.14244 39.6364 8.74097 39.2454 8.63687L25.7317 5.036V1.6906L47.7689 7.56266C47.7931 9.37564 47.6874 15.6388 45.421 22.9736Z" fill="#1E2C24"/>
<path d="M36.0206 17.1151C35.5867 16.6806 35.0094 16.4414 34.3952 16.4414C33.7808 16.4414 33.2036 16.6806 32.7701 17.1147L23.4345 26.45L18.3378 21.3537C17.9041 20.9193 17.3268 20.6801 16.7125 20.6801C16.0981 20.6801 15.521 20.9192 15.0876 21.3532C14.6534 21.7873 14.4141 22.3644 14.4141 22.9785C14.4141 23.5926 14.6532 24.1696 15.0874 24.6035L21.809 31.3252C22.2429 31.7595 22.82 31.9988 23.4344 31.9988C24.0487 31.9988 24.6259 31.7596 25.0595 31.3255L36.02 20.3649C36.4543 19.931 36.6935 19.3538 36.6935 18.7397C36.6935 18.1257 36.4544 17.5485 36.0206 17.1151ZM34.9843 19.3288L24.0232 30.2898C23.8662 30.447 23.6571 30.5337 23.4344 30.5337C23.2116 30.5337 23.0025 30.447 22.8452 30.2895L16.1231 23.5674C15.9658 23.4101 15.8791 23.2011 15.8791 22.9784C15.8791 22.7558 15.9658 22.5468 16.1236 22.3889C16.2807 22.2316 16.4898 22.145 16.7125 22.145C16.9351 22.145 17.1441 22.2316 17.3017 22.3891L22.9166 28.0037C23.2026 28.2897 23.6665 28.2896 23.9524 28.0037L33.8064 18.1501C33.9635 17.9929 34.1726 17.9062 34.3953 17.9062C34.6179 17.9062 34.8269 17.9929 34.9845 18.1506C35.1419 18.3078 35.2286 18.517 35.2286 18.7395C35.2286 18.9621 35.1418 19.1714 34.9843 19.3288Z" fill="#1E2C24"/>
</g>
<defs>
<clipPath id="clip0_2016_6103">
<rect width="50" height="50" fill="white"/>
</clipPath>
</defs>
</svg>
