<svg width="70" height="70" viewBox="0 0 70 70" fill="none" xmlns="http://www.w3.org/2000/svg">
<path d="M64.3319 17.0133L54.8947 13.8974C55.1009 12.855 54.9199 11.7732 54.3857 10.8546C53.8515 9.93611 53.0007 9.24389 51.9927 8.90768L49.4796 8.0782L43.3279 4.52023C43.1869 4.44035 43.0299 4.39258 42.8683 4.38032C42.7067 4.36806 42.5443 4.39162 42.3928 4.44931C42.2413 4.507 42.1044 4.59741 41.9919 4.71408C41.8794 4.83076 41.7939 4.97083 41.7418 5.1243L39.7632 11.1169C33.6769 8.69802 29.3572 8.45949 22.3907 11.8106C22.1409 11.9511 21.9562 12.1841 21.8763 12.4595C21.7965 12.7348 21.8279 13.0304 21.9639 13.2828C22.0998 13.5352 22.3293 13.7242 22.6031 13.8091C22.877 13.894 23.1731 13.868 23.428 13.7367C29.5578 10.8195 33.3205 10.8628 39.0744 13.2027L36.8481 19.9458C36.7985 20.1002 36.7836 20.2637 36.8045 20.4245C36.8254 20.5853 36.8815 20.7395 36.9689 20.8761C37.0563 21.0127 37.1728 21.1283 37.3101 21.2146C37.4473 21.3009 37.602 21.3559 37.763 21.3755L44.824 22.1805C45.237 22.3046 47.5364 23.1169 47.9341 23.1558C48.5973 25.6045 48.9184 28.1332 48.8882 30.67C48.7428 34.0927 49.0387 37.5199 49.7684 40.867C49.8678 41.3032 49.8764 41.7552 49.7937 42.1948C49.7109 42.6345 49.5386 43.0524 49.2874 43.4226C49.0362 43.7928 48.7116 44.1073 48.3336 44.3466C47.9557 44.586 47.5325 44.745 47.0905 44.8138L40.7898 45.7109C41.6789 44.5108 42.4049 43.198 42.9487 41.807C43.0537 41.537 43.0473 41.2364 42.9309 40.9712C42.8145 40.7059 42.5976 40.4977 42.3279 40.3922C42.0581 40.2867 41.7575 40.2925 41.492 40.4083C41.2265 40.5242 41.0179 40.7406 40.9118 41.0102C40.2416 42.863 39.1624 44.541 37.7545 45.9195C36.3466 47.2979 34.6461 48.3413 32.7795 48.9721C30.3487 49.6501 27.9136 47.7773 26.1094 46.3783C21.608 42.461 21.1986 36.061 21.2142 34.2664C21.1773 33.4695 21.3467 32.6764 21.706 31.9641C23.2329 29.115 25.363 26.6333 27.9477 24.6922C29.245 27.299 33.0764 33.0072 42.1909 34.4337C42.1701 35.2971 42.0945 36.1583 41.9645 37.0122C41.9254 37.297 42 37.5857 42.1721 37.8159C42.3443 38.0461 42.6001 38.1994 42.8843 38.2424C43.1686 38.2855 43.4583 38.215 43.6909 38.0461C43.9236 37.8773 44.0804 37.6236 44.1275 37.34C44.3357 36.0406 44.416 34.7239 44.3673 33.4088C44.3508 33.1535 44.2455 32.9121 44.0696 32.7265C43.8937 32.5408 43.6583 32.4226 43.4043 32.3924C32.3881 31.0861 29.5858 23.0537 29.4731 22.7156C29.4219 22.5632 29.338 22.4239 29.2273 22.3074C29.1166 22.1909 28.9817 22.1 28.8321 22.0412C28.6825 21.9823 28.5219 21.957 28.3615 21.9668C28.201 21.9767 28.0447 22.0215 27.9034 22.0982C24.461 24.2681 21.6578 27.3147 19.7813 30.9253C19.3453 31.7571 19.0926 32.6725 19.04 33.6101C18.869 37.9083 20.0987 42.1456 22.5439 45.6846L16.4476 44.8107C16.0049 44.7431 15.581 44.5848 15.2024 44.3458C14.8238 44.1067 14.4986 43.792 14.2473 43.4214C13.996 43.0508 13.824 42.6323 13.742 42.1921C13.66 41.7519 13.6698 41.2995 13.7708 40.8633C14.5112 37.5181 14.8071 34.0899 14.6509 30.6674C14.613 28.0241 14.9632 25.3896 15.6903 22.848C16.5822 20.2802 18.0897 17.9699 20.0809 16.1193C20.2898 15.9225 20.413 15.6514 20.4239 15.3645C20.4347 15.0777 20.3324 14.7981 20.139 14.586C19.9455 14.3739 19.6764 14.2464 19.3898 14.2309C19.1032 14.2154 18.822 14.3132 18.6068 14.5033C16.3437 16.6034 14.6312 19.2272 13.6197 22.1442C12.8022 24.9315 12.4127 27.8268 12.4645 30.731C12.5448 32.618 12.4887 34.5084 12.2968 36.3873C12.1745 37.393 11.9726 38.9007 11.6372 40.3817C11.472 41.1122 11.459 41.869 11.5991 42.6047C11.7392 43.3405 12.0294 44.0395 12.4516 44.6582C12.8737 45.2769 13.4188 45.802 14.0529 46.2007C14.6869 46.5995 15.3963 46.8633 16.1368 46.9758L24.9282 48.2362C25.4763 48.6974 26.0588 49.1159 26.6708 49.488V51.273C26.6704 52.0159 26.4235 52.7377 25.9688 53.3252C25.514 53.9126 24.8771 54.3326 24.158 54.5191L23.2362 54.7592C22.8881 54.2354 22.4184 53.8037 21.8671 53.501C21.3159 53.1983 20.6995 53.0336 20.0708 53.0209C16.4266 53.0269 11.9506 53.4183 11.0755 49.9189C10.0892 47.5291 5.55429 51.2779 6.76243 57.1588L6.02148 57.1589C5.73141 57.1589 5.45322 57.2742 5.24811 57.4793C5.043 57.6844 4.92775 57.9626 4.92773 58.2526V59.9922C4.92937 61.4856 5.52335 62.9174 6.57935 63.9734C7.63535 65.0294 9.06713 65.6234 10.5605 65.625H19.8689C21.3623 65.6234 22.7941 65.0294 23.8501 63.9734C24.9061 62.9174 25.5001 61.4856 25.5017 59.9922V58.2527C25.5017 57.9626 25.3864 57.6844 25.1813 57.4793C24.9762 57.2742 24.698 57.1589 24.4079 57.1589H23.8829C23.8862 57.0569 23.884 56.9548 23.8763 56.8531C25.3508 56.661 26.6936 55.9049 27.6226 54.7438C28.5515 53.5826 28.9944 52.1067 28.8583 50.6259C29.7591 51.0914 30.7603 51.3293 31.7742 51.3186C32.7882 51.3079 33.7841 51.0491 34.675 50.5646C34.5309 51.9046 34.8694 53.2519 35.6296 54.3647C36.3898 55.4774 37.522 56.2826 38.8226 56.6355L43.3595 57.8265C44.0959 58.0168 44.782 58.3653 45.37 58.8478C45.958 59.3302 46.4338 59.9351 46.7642 60.6202L47.3266 61.8101C47.4505 62.0724 47.6736 62.2748 47.9467 62.3727C48.2198 62.4705 48.5206 62.4558 48.783 62.3319C49.0453 62.208 49.2477 61.9849 49.3455 61.7118C49.4434 61.4386 49.4287 61.1378 49.3048 60.8755L48.7381 59.6765C48.2703 58.7039 47.5959 57.8451 46.7621 57.16C45.9282 56.4748 44.9549 55.9798 43.9101 55.7095L39.3753 54.519C38.6562 54.3324 38.0194 53.9125 37.5646 53.3251C37.1099 52.7376 36.8629 52.0159 36.8625 51.2729V49.3965C37.4085 49.0554 37.9289 48.6751 38.4197 48.2585L47.3987 46.98C48.1386 46.867 48.8474 46.603 49.4811 46.2045C50.1147 45.8061 50.6597 45.2816 51.0821 44.6637C51.5046 44.0457 51.7955 43.3475 51.9368 42.6125C52.0781 41.8774 52.0667 41.1211 51.9035 40.3906C51.2121 37.2197 50.9336 33.9727 51.0747 30.7304C51.1149 28.1095 50.8016 25.4953 50.1432 22.9582C50.6765 22.7882 51.1694 22.5112 51.5918 22.144C52.0143 21.7768 52.3572 21.3272 52.5997 20.8228L62.0445 23.9413C62.181 23.9866 62.3252 24.0047 62.4686 23.9943C62.6121 23.9839 62.7522 23.9453 62.8807 23.8808C63.0093 23.8162 63.1238 23.7269 63.2178 23.618C63.3118 23.5091 63.3834 23.3827 63.4285 23.2461C63.4736 23.1095 63.4913 22.9653 63.4806 22.8219C63.4699 22.6784 63.431 22.5385 63.3661 22.41C63.3012 22.2816 63.2117 22.1673 63.1026 22.0735C62.9934 21.9798 62.8669 21.9085 62.7302 21.8637L53.3458 18.7651C53.5139 18.206 54.0859 16.5591 54.2614 15.9922L63.6462 19.0908C63.9201 19.1759 64.2164 19.15 64.4715 19.0187C64.7265 18.8874 64.9197 18.6613 65.0096 18.3889C65.0995 18.1165 65.0789 17.8198 64.9521 17.5625C64.8254 17.3052 64.6026 17.108 64.3319 17.0133ZM15.7122 57.1589C15.4248 57.1631 15.1507 57.2801 14.9489 57.4848C14.7472 57.6895 14.6341 57.9653 14.6341 58.2527C14.6341 58.54 14.7472 58.8159 14.9489 59.0205C15.1507 59.2252 15.4248 59.3423 15.7122 59.3464H23.3141C23.3906 59.847 23.3592 60.3582 23.2221 60.8457C23.0849 61.3332 22.8453 61.7858 22.519 62.1731C22.1928 62.5605 21.7876 62.8737 21.3305 63.0917C20.8734 63.3097 20.3751 63.4276 19.8687 63.4374L10.5605 63.4375C10.0542 63.4277 9.55582 63.3098 9.09874 63.0918C8.64167 62.8737 8.23645 62.5605 7.91024 62.1732C7.58403 61.7858 7.34435 61.3332 7.20725 60.8457C7.07016 60.3582 7.0388 59.847 7.1153 59.3464H11.337C11.6244 59.3422 11.8985 59.2252 12.1003 59.0205C12.302 58.8158 12.4151 58.54 12.4151 58.2526C12.4151 57.9653 12.302 57.6894 12.1003 57.4848C11.8985 57.2801 11.6244 57.163 11.337 57.1589H9.00517C8.39453 54.5115 9.01571 52.9179 9.64893 52.0622C11.5999 55.3088 15.685 55.2533 18.5033 55.2106C20.0055 55.0789 21.8214 55.2256 21.6954 57.1589L15.7122 57.1589ZM40.1653 16.8759L42.4825 17.6408C42.6189 17.6858 42.7629 17.7036 42.9061 17.693C43.0494 17.6824 43.1892 17.6436 43.3175 17.579C43.4458 17.5144 43.5601 17.4251 43.6539 17.3163C43.7477 17.2075 43.8192 17.0813 43.8642 16.9449C43.9092 16.8085 43.9269 16.6646 43.9163 16.5213C43.9057 16.378 43.867 16.2383 43.8024 16.11C43.7378 15.9817 43.6485 15.8674 43.5397 15.7736C43.4309 15.6798 43.3047 15.6083 43.1683 15.5633L40.8513 14.7984L41.893 11.6436L44.2103 12.4085C44.4858 12.4995 44.7861 12.4772 45.0452 12.3467C45.3043 12.2162 45.501 11.9881 45.5919 11.7126C45.6829 11.4371 45.6607 11.1368 45.5302 10.8777C45.3997 10.6186 45.1716 10.4219 44.8961 10.331L42.5791 9.56611L43.3975 7.08755L47.7127 9.58327L46.0064 14.7512L44.3 19.9192L39.347 19.3541L40.1653 16.8759ZM49.6925 20.8089C48.7442 21.3988 47.3776 20.6871 46.4416 20.4105C47.2612 17.9318 48.9069 12.9416 49.7262 10.4634C53.4134 11.4365 53.1913 12.6323 52.0094 15.8343L50.9251 19.118C50.8579 19.4737 50.7124 19.8099 50.4992 20.1023C50.2861 20.3948 50.0105 20.6361 49.6925 20.8089Z" fill="#121926"/>
</svg>
