<svg width="70" height="70" viewBox="0 0 70 70" fill="none" xmlns="http://www.w3.org/2000/svg">
<path d="M15.587 57.6886C13.8426 58.7045 12.3715 60.1297 11.3009 61.8411C10.7281 62.9567 9.29652 64.8806 10.9481 65.58C12.5101 65.9177 12.3781 63.9205 13.164 62.9902C14.0491 61.5803 15.2641 60.4072 16.704 59.5719C16.949 59.4215 17.1251 59.1808 17.1942 58.9017C17.2633 58.6225 17.2198 58.3275 17.0731 58.0801C16.9264 57.8328 16.6884 57.6531 16.4103 57.5798C16.1323 57.5066 15.8365 57.5456 15.587 57.6886Z" fill="#121926"/>
<path d="M58.3856 50.3466L55.8654 48.164C56.0381 47.5497 56.0158 46.8969 55.8016 46.2957C55.5874 45.6946 55.1918 45.1749 54.6695 44.8082C54.1472 44.4416 53.5239 44.2462 52.8858 44.249C52.2476 44.2518 51.6261 44.4527 51.107 44.8239L50.2559 44.0841C50.0359 43.8999 49.7525 43.8095 49.4665 43.8322C49.1805 43.8549 48.9148 43.989 48.7267 44.2056C48.5386 44.4222 48.443 44.704 48.4605 44.9903C48.4781 45.2767 48.6073 45.5447 48.8205 45.7367L49.6117 46.4243L47.8889 48.4143L41.4875 42.8731C40.6558 42.1432 40.3577 40.9963 39.4373 40.3047C39.1715 40.0147 38.0755 39.3092 38.0949 38.8948L37.9881 38.1082L38.8095 38.0996C39.2347 38.058 39.9673 38.9317 40.3748 39.2315C41.3488 40.1364 42.7774 40.2963 43.6825 41.2857C43.6912 41.2931 45.6252 42.9655 45.6347 42.9736C45.8553 43.1565 46.1388 43.2457 46.4244 43.2219C46.71 43.1982 46.9749 43.0635 47.1623 42.8467C47.3497 42.6299 47.4447 42.3483 47.4268 42.0623C47.409 41.7763 47.2797 41.5087 47.0669 41.3168L45.6813 40.1192C46.2323 38.2962 46.5919 36.4207 46.7543 34.5232C46.7759 34.3872 46.7889 34.25 46.7932 34.1123C48.1779 32.3327 49.1279 30.2543 49.5675 28.0427C49.6188 27.7595 49.5566 27.4676 49.3942 27.23C49.2318 26.9924 48.9824 26.8283 48.7 26.7733C48.4176 26.7182 48.1248 26.7766 47.8851 26.9357C47.6454 27.0949 47.478 27.3421 47.4191 27.6238C47.1397 29.0121 46.624 30.3422 45.8944 31.556C43.5983 26.9226 40.1452 22.9602 35.8692 20.0521C31.5932 17.144 26.6391 15.3887 21.4861 14.9559C22.7281 13.9658 24.1283 13.1922 25.6276 12.6676C34.8961 9.51689 45.5508 14.0215 47.4774 23.7396C47.529 24.0225 47.6899 24.2737 47.9252 24.4389C48.1605 24.6042 48.4514 24.6702 48.735 24.6227C49.0186 24.5753 49.2722 24.4181 49.4408 24.1852C49.6095 23.9523 49.6798 23.6624 49.6365 23.3782C49.0622 20.6137 47.8162 18.033 46.0085 15.864C44.2008 13.695 41.8869 12.0043 39.2712 10.9412C39.0461 9.14082 38.1757 7.48315 36.8213 6.27574C35.4669 5.06833 33.7206 4.39314 31.9063 4.37543C30.0919 4.35773 28.3327 4.9987 26.9551 6.17944C25.5774 7.36019 24.6747 9.00056 24.4146 10.7962C15.0867 14.102 10.358 26.8209 16.9245 34.5991C17.4497 41.1509 20.2645 47.6275 26.116 50.7101C25.9635 53.9754 24.1251 54.6101 19.8169 55.9516C19.6722 55.986 19.5359 56.0495 19.4165 56.1382C19.297 56.2269 19.1969 56.339 19.1222 56.4677C19.0474 56.5964 18.9997 56.7389 18.9818 56.8866C18.9639 57.0343 18.9763 57.1841 19.0181 57.3269C19.06 57.4697 19.1305 57.6025 19.2253 57.7171C19.3202 57.8318 19.4373 57.926 19.5697 57.9939C19.7021 58.0618 19.8469 58.1021 19.9954 58.1123C20.1438 58.1224 20.2928 58.1023 20.4332 58.053C25.3164 56.6082 27.6481 55.4092 28.2173 51.6278C30.5588 52.4157 33.0942 52.4131 35.434 51.6202C36.0359 55.3681 38.2806 56.6099 43.2384 58.0582C46.1981 58.7152 48.794 60.4804 50.4931 62.9912C51.2655 63.9006 51.0531 65.5289 52.3887 65.625C54.4456 65.3142 53.0152 63.002 52.3605 61.8486C50.383 58.8582 47.3281 56.7459 43.832 55.9517C42.3634 55.5191 40.9263 54.9859 39.5309 54.3559C38.9166 53.9706 38.4108 53.4349 38.0613 52.7995C37.7119 52.1642 37.5303 51.4501 37.5338 50.725L37.6594 50.6592C38.6196 49.9279 41.5913 48.751 40.4268 47.2448C39.8406 46.5702 39.0034 46.9459 38.4714 47.4751C36.6849 49.0464 34.3978 49.9313 32.0188 49.9716C29.6399 50.0119 27.3241 49.205 25.4853 47.695C21.3313 44.6499 19.5176 39.3491 19.1045 34.3757C19.3968 32.9678 21.3782 29.0722 24.486 25.331C24.671 25.111 24.762 24.8272 24.7394 24.5407C24.7169 24.2542 24.5826 23.9881 24.3655 23.7998C24.1484 23.6115 23.866 23.5161 23.5792 23.5342C23.2925 23.5524 23.0243 23.6825 22.8327 23.8967C20.7818 26.3263 19.059 29.0147 17.7085 31.8931C14.8166 27.4988 15.9083 21.07 19.3488 17.0538C22.6749 17.1105 25.9658 17.7458 29.074 18.9313C28.1153 19.54 24.6023 20.8707 25.7549 22.4322C25.8439 22.5451 25.9542 22.6393 26.0796 22.7096C26.2051 22.7798 26.3431 22.8246 26.4858 22.8415C26.6285 22.8584 26.7732 22.847 26.9115 22.8079C27.0499 22.7689 27.1792 22.703 27.292 22.614C28.6515 21.5145 30.2129 20.6916 31.8883 20.1917C37.5949 23.1677 42.091 28.0331 44.6082 33.9565C44.4825 35.5365 44.2161 37.1022 43.8121 38.6349C43.1081 38.3518 42.4354 37.9962 41.8051 37.5738L40.6934 36.6021C39.7248 35.6526 37.9266 35.9574 36.7247 35.9319C36.5698 35.9346 36.4172 35.9699 36.2769 36.0356C36.1366 36.1013 36.0118 36.1958 35.9105 36.313C35.8092 36.4302 35.7338 36.5675 35.6892 36.7159C35.6446 36.8642 35.6318 37.0203 35.6516 37.174L35.9236 39.1706C35.9812 40.3762 37.1612 41.2444 38.0021 41.9582C38.8282 42.6956 39.1647 43.8839 40.0623 44.5341L46.5179 50.1219C46.2418 50.6319 46.1169 51.21 46.1579 51.7885C46.1932 52.2839 46.3481 52.7633 46.6093 53.1857C46.8704 53.6081 47.2301 53.9609 47.6575 54.2139C48.0849 54.4669 48.5672 54.6124 49.0632 54.6381C49.5592 54.6639 50.054 54.569 50.5052 54.3616L53.0221 56.5406C57.1783 59.9653 62.3919 53.9934 58.3856 50.3466ZM31.833 6.52124C32.9387 6.52757 34.0147 6.88006 34.9098 7.52922C35.8049 8.17837 36.4742 9.09159 36.8237 10.1406C33.5608 9.3464 30.159 9.31285 26.8811 10.0426C27.2469 9.01936 27.9179 8.13307 28.8035 7.50336C29.689 6.87365 30.7465 6.53085 31.833 6.52124ZM50.0007 52.0274C49.9357 52.1301 49.8504 52.2186 49.75 52.2872C49.6496 52.3558 49.5362 52.4031 49.4169 52.4263C49.2975 52.4495 49.1746 52.448 49.0559 52.4219C48.9371 52.3959 48.8249 52.3458 48.7262 52.2748C48.6275 52.2038 48.5443 52.1134 48.4818 52.0091C48.4193 51.9048 48.3789 51.7888 48.3629 51.6682C48.3468 51.5477 48.3557 51.4251 48.3888 51.3081C48.4219 51.1911 48.4785 51.0821 48.5553 50.9878L52.2504 46.72C52.4057 46.5472 52.6227 46.4422 52.8546 46.4277C53.0865 46.4132 53.3149 46.4902 53.4906 46.6423C53.6663 46.7944 53.7752 47.0094 53.7941 47.241C53.8129 47.4726 53.7401 47.7024 53.5913 47.8808C53.5913 47.8807 50.0155 52.0103 50.0007 52.0274ZM57.1463 54.6926C56.8144 55.0741 56.3449 55.3086 55.8405 55.3448C55.3362 55.3811 54.838 55.2161 54.4549 54.886L52.1494 52.8894L54.6473 50.0045L56.9528 52.0013C57.3332 52.3338 57.567 52.8031 57.6032 53.3071C57.6394 53.8111 57.4752 54.309 57.1463 54.6926Z" fill="#121926"/>
</svg>
