<svg width="70" height="70" viewBox="0 0 70 70" fill="none" xmlns="http://www.w3.org/2000/svg">
<path d="M65.3036 19.0327C65.0911 18.8255 64.8052 18.7108 64.5084 18.7139C61.0633 18.8854 57.6558 19.5109 54.3744 20.5743C54.8323 15.1778 51.885 9.10128 51.745 8.81729C51.6383 8.6012 51.4633 8.42637 51.2471 8.31995C51.0309 8.21353 50.7856 8.18148 50.5493 8.22876C47.0576 9.06869 43.8758 10.8821 41.3738 13.4584C39.911 10.8245 38.0058 8.46194 35.7414 6.47437C35.5541 6.32397 35.3223 6.23952 35.0821 6.23412C34.8419 6.22871 34.6066 6.30265 34.4127 6.44447C32.0462 8.38198 30.0764 10.7585 28.6116 13.4434C26.1121 10.8747 22.9359 9.06666 19.4511 8.22877C19.2148 8.18155 18.9695 8.21363 18.7533 8.32004C18.5371 8.42645 18.362 8.60124 18.2553 8.8173C18.1153 9.10122 15.1683 15.1771 15.6258 20.5734C12.3442 19.5107 8.93686 18.8855 5.49179 18.7139C5.34486 18.7117 5.19898 18.739 5.06276 18.7941C4.92654 18.8493 4.80274 18.9311 4.69866 19.0348C4.59458 19.1386 4.51232 19.2621 4.45675 19.3981C4.40117 19.5342 4.3734 19.68 4.37507 19.8269C4.54162 29.2423 7.54756 36.8346 13.3128 42.4233C9.33747 44.7307 7.16391 47.6341 7.16391 50.7061C7.1672 51.5599 7.22079 52.974 8.37733 52.9705C8.53913 52.9701 8.69885 52.9339 8.84502 52.8646C8.9912 52.7952 9.12021 52.6943 9.22281 52.5692C9.32541 52.4441 9.39905 52.2978 9.43846 52.1409C9.47787 51.984 9.48207 51.8203 9.45075 51.6615C8.91498 48.5465 11.0134 46.2352 15.0474 43.9717C23.6762 51.0966 34.4672 51.7625 35.0108 51.7892C42.2774 51.1908 49.2086 48.4722 54.9444 43.9707C70.282 52.7737 51.9087 61.8091 35.0002 61.5778C33.7129 61.5779 32.4056 61.5346 31.1025 61.4487L29.5382 56.3153C29.4886 56.1569 29.4037 56.0117 29.2899 55.8906C29.1762 55.7696 29.0365 55.6759 28.8814 55.6166C28.7263 55.5572 28.5597 55.5338 28.3943 55.548C28.2288 55.5621 28.0687 55.6136 27.9259 55.6985L21.1316 59.808C16.8816 58.6149 13.4401 56.8729 11.408 54.8803C11.3057 54.7789 11.1843 54.6987 11.0508 54.6444C10.9174 54.59 10.7745 54.5626 10.6305 54.5636C10.4864 54.5647 10.3439 54.5942 10.2113 54.6504C10.0787 54.7067 9.95843 54.7886 9.85754 54.8915C9.75665 54.9943 9.67708 55.1161 9.6234 55.2498C9.56972 55.3835 9.54299 55.5265 9.54474 55.6706C9.5465 55.8147 9.5767 55.957 9.63362 56.0893C9.69053 56.2217 9.77304 56.3415 9.8764 56.4419C12.2781 58.7971 16.1286 60.7341 21.0126 62.0436C21.155 62.0816 21.3035 62.0906 21.4494 62.0698C21.5954 62.0491 21.7356 61.9991 21.8617 61.9229L27.8555 58.2972L29.2291 62.8046C29.2931 63.015 29.419 63.2011 29.5904 63.3388C29.7618 63.4764 29.9707 63.5592 30.1898 63.5764C31.7936 63.7019 33.4118 63.7654 35.0001 63.7654C50.6091 63.7654 62.8363 58.0291 62.8363 50.7061C62.8363 47.6211 60.6596 44.7171 56.6793 42.4203C58.7155 40.4449 60.4376 38.1696 61.7858 35.6734C61.8541 35.5471 61.8969 35.4085 61.9116 35.2655C61.9264 35.1226 61.9128 34.9782 61.8717 34.8406C61.8307 34.7029 61.7629 34.5747 61.6723 34.4632C61.5817 34.3517 61.47 34.2592 61.3436 34.1909C61.2172 34.1226 61.0786 34.0798 60.9357 34.0651C60.7928 34.0503 60.6484 34.0639 60.5107 34.1049C60.373 34.146 60.2448 34.2138 60.1333 34.3044C60.0219 34.395 59.9293 34.5067 59.861 34.6331C58.3924 37.3509 56.4477 39.7829 54.1196 41.8134C47.5468 47.5828 39.2607 49.1231 36.1359 49.49C35.6627 40.9339 38.7707 32.7445 45.0384 27.8891C51.7327 22.4881 60.3272 21.2533 63.4003 20.9778C63.2768 24.2963 62.6691 27.5789 61.5962 30.7217C61.5486 30.8572 61.5281 31.0007 61.536 31.1441C61.5438 31.2875 61.5799 31.428 61.642 31.5575C61.7042 31.687 61.7912 31.8029 61.8982 31.8988C62.0051 31.9946 62.1299 32.0685 62.2654 32.1161C62.4009 32.1637 62.5444 32.1842 62.6879 32.1763C62.8313 32.1685 62.9717 32.1324 63.1012 32.0703C63.2307 32.0082 63.3467 31.9211 63.4425 31.8142C63.5384 31.7072 63.6122 31.5824 63.6598 31.4469C64.932 27.7036 65.5955 23.7804 65.6251 19.8269C65.6275 19.6797 65.6003 19.5336 65.545 19.3971C65.4898 19.2607 65.4077 19.1368 65.3036 19.0327ZM19.8617 10.5749C22.8038 11.5233 25.4503 13.2171 27.5438 15.4915C26.1371 18.4994 25.1955 21.7036 24.7514 24.9944C22.6302 23.5312 20.3441 22.3228 17.9403 21.3941C17.1715 17.4765 19.045 12.4845 19.8617 10.5749ZM35.0107 39.4662C34.3276 36.9139 33.2582 34.4812 31.8395 32.2523C31.7623 32.1302 31.6617 32.0246 31.5434 31.9416C31.4252 31.8586 31.2917 31.7998 31.1506 31.7687C31.0095 31.7376 30.8637 31.7347 30.7215 31.7603C30.5793 31.7859 30.4436 31.8393 30.3222 31.9176C30.2008 31.9959 30.0961 32.0975 30.0142 32.2165C29.9323 32.3355 29.8747 32.4695 29.8449 32.6109C29.8151 32.7522 29.8135 32.8981 29.8404 33.04C29.8672 33.182 29.9219 33.3172 30.0013 33.4379C32.8475 37.7119 34.1711 43.7874 33.9618 49.5034C20.7957 48.0462 7.01918 38.8333 6.60023 20.9776C9.66544 21.2528 18.2296 22.4822 24.9245 27.85C25.8112 28.5545 26.6455 29.3226 27.4207 30.1481C27.6192 30.3597 27.8935 30.4839 28.1835 30.4932C28.4734 30.5025 28.7552 30.3962 28.9668 30.1978C29.1784 29.9994 29.3026 29.725 29.3119 29.435C29.3212 29.1451 29.2149 28.8633 29.0165 28.6517C28.3079 27.9042 27.5545 27.2004 26.7606 26.5441C27.8433 16.2198 33.1407 10.5104 35.0321 8.78161C39.7641 13.567 42.6587 19.8667 43.2076 26.5742C39.2055 29.9185 36.3412 34.4234 35.0107 39.4662ZM52.0596 21.3957C40.915 26.1054 48.0035 27.2255 42.4423 15.5064C44.5349 13.2208 47.1877 11.5208 50.1385 10.5744C50.9552 12.4843 52.8297 17.4778 52.0596 21.3957Z" fill="#121926"/>
<path d="M49.5787 57.2617C54.7386 55.8305 58.5545 52.9121 58.4579 50.7045C58.4579 50.4145 58.3427 50.1363 58.1375 49.9311C57.9324 49.726 57.6542 49.6108 57.3641 49.6108C57.0741 49.6108 56.7959 49.726 56.5907 49.9311C56.3856 50.1363 56.2704 50.4145 56.2704 50.7045C56.2704 51.2621 54.6025 53.347 49.2342 55.1292C48.9914 55.2146 48.7864 55.3826 48.655 55.6038C48.5235 55.825 48.474 56.0854 48.515 56.3394C48.5561 56.5935 48.6851 56.825 48.8795 56.9936C49.0739 57.1622 49.3214 57.257 49.5787 57.2617Z" fill="#121926"/>
</svg>
