<svg width="70" height="70" viewBox="0 0 70 70" fill="none" xmlns="http://www.w3.org/2000/svg">
<path d="M50.4419 5.46866C50.4419 5.32503 50.4136 5.1828 50.3587 5.05009C50.3038 4.91739 50.2232 4.79681 50.1216 4.69524C50.0201 4.59368 49.8995 4.51312 49.7668 4.45817C49.6341 4.40323 49.4918 4.37496 49.3482 4.375H20.6523C20.5086 4.37496 20.3664 4.40323 20.2337 4.45817C20.101 4.51312 19.9804 4.59368 19.8788 4.69524C19.7773 4.79681 19.6967 4.91739 19.6418 5.05009C19.5868 5.1828 19.5586 5.32503 19.5586 5.46866V11.5469C19.5586 11.5693 19.57 11.588 19.5713 11.6101C19.5726 11.633 19.5623 11.6547 19.565 11.6777L20.0467 15.7677C20.084 16.053 20.2322 16.3121 20.4592 16.4889C20.6862 16.6657 20.9737 16.746 21.2595 16.7122C21.5452 16.6785 21.8062 16.5336 21.9858 16.3088C22.1654 16.084 22.2492 15.7975 22.2191 15.5114L21.8816 12.6432H48.12L47.7787 15.5643C40.4492 20.404 31.903 23.0778 23.1221 23.2785L22.7221 19.855C22.6846 19.5703 22.5366 19.3117 22.31 19.1352C22.0834 18.9587 21.7965 18.8784 21.5112 18.9117C21.226 18.9449 20.9652 19.089 20.7853 19.3129C20.6054 19.5368 20.5208 19.8225 20.5498 20.1082L24.0518 50.0821C24.0849 50.3254 24.144 50.5645 24.228 50.7952V60.01C24.1769 62.7844 26.6125 64.1963 29.0567 64.7653C29.3335 64.8436 29.6299 64.8096 29.8818 64.6709C30.1337 64.5321 30.3208 64.2997 30.4025 64.0239C30.4843 63.7482 30.4541 63.4514 30.3185 63.1977C30.1829 62.9441 29.9529 62.7541 29.6782 62.6689C28.2244 62.2232 26.4109 61.8069 26.4154 60.01V52.9551C31.9852 54.8294 38.0154 54.8292 43.5851 52.9547V60.01C43.5864 60.4289 43.4641 60.8389 43.2334 61.1885C43.0028 61.5382 42.6741 61.812 42.2885 61.9757C39.5873 63.0951 36.6652 63.5795 33.7474 63.3914C33.6035 63.3795 33.4587 63.3967 33.3216 63.442C33.1845 63.4873 33.0579 63.5598 32.9495 63.6551C32.841 63.7504 32.7529 63.8666 32.6903 63.9967C32.6277 64.1268 32.5921 64.2682 32.5854 64.4125C32.5305 65.718 34.0414 65.634 34.9703 65.6182C37.7726 65.6203 40.5477 65.0677 43.1354 63.9922C43.9185 63.6622 44.5866 63.1081 45.0557 62.3996C45.5249 61.6911 45.7743 60.8598 45.7724 60.01V50.7905C45.8575 50.5555 45.9172 50.3121 45.9508 50.0644C45.9445 49.9975 50.4633 11.6697 50.4291 11.6102C50.4305 11.588 50.4419 11.5692 50.4419 11.5468V5.46866ZM21.7459 6.56234H48.2545V10.4532H21.7459V6.56234ZM42.9272 50.8703C37.7852 52.6091 32.2142 52.6091 27.0722 50.8703C26.9086 50.8107 26.7589 50.7182 26.6324 50.5985C26.5059 50.4788 26.4053 50.3345 26.3368 50.1744C26.1742 50.2665 25.7903 45.6982 25.7301 45.6008C30.3427 45.284 34.8845 44.2971 39.2125 42.671C39.4801 42.5662 39.6957 42.3603 39.8126 42.0977C39.9296 41.8352 39.9385 41.5372 39.8374 41.2682C39.7364 40.9991 39.5335 40.7807 39.2726 40.6601C39.0118 40.5394 38.7139 40.5264 38.4435 40.6236C34.2814 42.1871 29.9124 43.1312 25.4761 43.4256L23.3771 25.461C31.8826 25.2284 40.1805 22.782 47.4518 18.3631L45.2249 37.4272C44.1685 38.0331 43.25 38.5188 42.376 38.9297C42.1136 39.0532 41.9109 39.2759 41.8126 39.5488C41.7143 39.8217 41.7283 40.1224 41.8516 40.3849C42.5785 41.7101 43.9429 40.5436 44.9124 40.1026L43.7805 49.7926C43.7529 50.034 43.6584 50.2628 43.5076 50.4532C43.3568 50.6436 43.1558 50.7881 42.9272 50.8703Z" fill="#121926"/>
<path d="M36.2281 26.7023C36.0245 26.506 35.7527 26.3963 35.4698 26.3963C35.187 26.3963 34.9152 26.506 34.7115 26.7023C34.0024 27.3853 30.4629 30.9194 30.4629 33.4197C30.6728 40.0363 40.2686 40.0354 40.4778 33.4196C40.4778 30.9194 36.9383 27.3853 36.2281 26.7023ZM35.4698 36.2393C34.7223 36.2385 34.0056 35.9411 33.477 35.4125C32.9484 34.8839 32.651 34.1672 32.6502 33.4197C32.6502 32.4563 34.1391 30.4874 35.4698 29.0535C36.8017 30.4874 38.2905 32.4563 38.2905 33.4197C38.2894 34.1673 37.9919 34.8841 37.4631 35.4126C36.9343 35.9412 36.2175 36.2385 35.4698 36.2393Z" fill="#121926"/>
</svg>
