<svg width="70" height="70" viewBox="0 0 70 70" fill="none" xmlns="http://www.w3.org/2000/svg">
<path fill-rule="evenodd" clip-rule="evenodd" d="M47.1145 23.5754V28.1224C55.535 31.523 60.561 41.4805 58.1312 51.4886L58.0369 51.8603C56.3883 58.3648 54.5749 65.5194 48.2061 65.625L21.7936 65.6251C15.408 65.526 13.5827 58.286 11.9326 51.7407L11.869 51.4886C9.44726 41.4506 14.4474 31.5476 22.8853 28.1214V23.5754C22.889 22.329 23.3644 21.1302 24.2158 20.22C25.0672 19.3098 26.2317 18.7556 27.475 18.6688V15.5753C27.4793 15.288 27.5964 15.0139 27.8011 14.8123C28.0057 14.6106 28.2815 14.4976 28.5688 14.4976C28.8561 14.4976 29.1318 14.6106 29.3365 14.8123C29.5412 15.0139 29.6583 15.288 29.6625 15.5753V18.6333H40.3373V7.89658C40.3369 7.54287 40.1962 7.20376 39.9461 6.95365C39.696 6.70354 39.3569 6.56287 39.0032 6.5625H30.9966C30.6429 6.56287 30.3038 6.70354 30.0537 6.95365C29.8036 7.20376 29.6629 7.54287 29.6625 7.89658V11.1896C29.6625 11.4797 29.5473 11.7579 29.3422 11.963C29.1371 12.1681 28.8589 12.2833 28.5688 12.2833C28.2787 12.2833 28.0005 12.1681 27.7954 11.963C27.5903 11.7579 27.475 11.4797 27.475 11.1896V7.89658C27.4761 6.96292 27.8474 6.0678 28.5076 5.40761C29.1678 4.74741 30.0629 4.37605 30.9966 4.375H39.0032C39.9369 4.37605 40.832 4.74741 41.4922 5.40761C42.1524 6.0678 42.5237 6.96292 42.5248 7.89658V18.6689C43.7681 18.7556 44.9325 19.3098 45.784 20.2201C46.6354 21.1303 47.1108 22.3291 47.1145 23.5754ZM25.8803 21.6286C25.3639 22.145 25.0736 22.8452 25.0728 23.5754V27.2705C28.2722 26.2109 31.6308 25.7132 34.9999 25.7993C38.3691 25.7119 41.728 26.2098 44.927 27.2709V23.5754C44.9262 22.8452 44.6358 22.145 44.1195 21.6286C43.6032 21.1122 42.9031 20.8216 42.1728 20.8208H27.827C27.0967 20.8216 26.3966 21.1122 25.8803 21.6286ZM56.1165 42.2951C52.8485 27.293 35.162 25.6849 24.1878 29.8619C21.5787 30.9249 19.2728 32.6162 17.4751 34.7853C15.6773 36.9544 14.4435 39.5342 13.8833 42.2952H18.6417C20.0471 42.3119 21.4309 41.9483 22.6465 41.2428C23.8621 40.5374 24.8643 39.5163 25.5471 38.2878C26.476 36.5928 27.8436 35.1787 29.5066 34.1937C31.1697 33.2087 33.067 32.689 34.9999 32.6889C36.9327 32.6889 38.83 33.2086 40.4931 34.1936C42.1562 35.1786 43.5238 36.5927 44.4527 38.2877C45.1354 39.5162 46.1377 40.5373 47.3533 41.2428C48.5689 41.9483 49.9527 42.3119 51.3581 42.2952L56.1165 42.2951ZM52.0481 61.4828C53.6689 59.1618 54.9603 55.7396 55.9948 51.0207C56.4751 48.8767 56.6273 46.6723 56.446 44.4827H51.3581C49.5583 44.4998 47.7874 44.0297 46.2331 43.1223C44.6787 42.2148 43.3988 40.9037 42.529 39.328C41.7961 37.9696 40.7093 36.8349 39.3838 36.044C38.0584 35.2531 36.5436 34.8355 35.0002 34.8355C33.4567 34.8355 31.9419 35.2531 30.6165 36.044C29.291 36.8349 28.2042 37.9696 27.4713 39.328C26.6013 40.9037 25.3213 42.2147 23.7669 43.1222C22.2125 44.0296 20.4416 44.4997 18.6418 44.4827H13.5537C12.9805 49.796 15.5691 58.1661 17.9517 61.4828C18.3878 62.0935 18.9647 62.5901 19.6335 62.9303C20.3023 63.2706 21.0433 63.4446 21.7937 63.4375H48.2061C48.9564 63.4446 49.6975 63.2706 50.3663 62.9303C51.0351 62.5901 51.612 62.0935 52.0481 61.4828ZM36.0938 9.56606V11.9191C36.0897 12.2065 35.9726 12.4808 35.768 12.6826C35.5633 12.8844 35.2874 12.9975 35 12.9975C34.7125 12.9975 34.4367 12.8843 34.232 12.6825C34.0273 12.4807 33.9103 12.2065 33.9062 11.9191V9.56606C33.9103 9.27866 34.0273 9.00441 34.232 8.80261C34.4367 8.6008 34.7126 8.48767 35 8.48767C35.2874 8.48767 35.5633 8.6008 35.768 8.80261C35.9727 9.00441 36.0897 9.27866 36.0938 9.56606ZM35.0002 40.2722C32.5353 40.2751 30.1723 41.2555 28.4294 42.9984C26.6865 44.7412 25.7061 47.1043 25.7033 49.5691C25.6565 57.9641 36.2552 62.0603 41.8586 55.827C42.0472 55.6112 42.1435 55.3299 42.1268 55.0438C42.1102 54.7576 41.9819 54.4895 41.7696 54.2969C41.5573 54.1044 41.2779 54.0028 40.9915 54.0142C40.7051 54.0255 40.4346 54.1488 40.2381 54.3575C39.0753 55.6159 37.496 56.4104 35.7925 56.5941C34.089 56.7778 32.3767 56.3382 30.9723 55.3567C29.568 54.3751 28.5667 52.9181 28.1538 51.2552C27.741 49.5923 27.9444 47.8362 28.7266 46.3118C29.5088 44.7873 30.8167 43.5979 32.4082 42.9634C33.9998 42.329 35.7674 42.2926 37.3837 42.8609C39.0001 43.4293 40.3558 44.5639 41.2001 46.0548C42.0444 47.5458 42.32 49.292 41.9759 50.9705C41.9213 51.2553 41.9819 51.5502 42.1446 51.7904C42.3072 52.0305 42.5585 52.1962 42.8433 52.2511C44.2244 52.4438 44.2641 50.8549 44.2902 49.8096C44.2923 49.7255 44.2944 49.645 44.297 49.5691C44.2941 47.1043 43.3138 44.7413 41.5709 42.9984C39.828 41.2555 37.465 40.2751 35.0002 40.2722ZM57.3777 6.26332C56.6613 7.93817 52.2701 8.62677 48.9013 8.3655C48.6145 8.3496 48.3456 8.22157 48.1525 8.00907C47.9593 7.79656 47.8575 7.51663 47.869 7.22971C47.8805 6.94279 48.0044 6.6719 48.2139 6.47553C48.4234 6.27917 48.7018 6.17308 48.9888 6.18017C53.2111 6.34466 55.1455 5.70379 55.5268 5.0971C55.6814 4.85166 55.9273 4.6777 56.2102 4.61349C56.4931 4.54929 56.7899 4.6001 57.0353 4.75475C57.2808 4.9094 57.4548 5.15522 57.519 5.43813C57.5832 5.72104 57.5323 6.01787 57.3777 6.26332ZM45.2351 13.6932C49.4536 13.5277 51.3922 14.1707 51.773 14.7753C51.8494 14.8968 51.9491 15.0021 52.0662 15.0851C52.1834 15.1682 52.3157 15.2273 52.4557 15.2592C52.5957 15.2911 52.7406 15.2951 52.8821 15.271C53.0237 15.2469 53.1591 15.1951 53.2806 15.1187C53.4022 15.0422 53.5075 14.9426 53.5905 14.8254C53.6735 14.7083 53.7327 14.5759 53.7646 14.436C53.7965 14.296 53.8005 14.151 53.7764 14.0095C53.7523 13.868 53.7005 13.7326 53.624 13.611C52.6141 12.0056 49.8328 11.3156 45.1475 11.5079C44.8606 11.5235 44.5913 11.6514 44.398 11.864C44.2046 12.0765 44.1027 12.3566 44.1142 12.6437C44.1257 12.9308 44.2497 13.2019 44.4595 13.3983C44.6692 13.5947 44.9478 13.7006 45.2351 13.6932ZM51.9328 10.6436C51.8778 10.5109 51.8496 10.3687 51.8496 10.225C51.8496 10.0814 51.8778 9.93915 51.9328 9.80643C51.9877 9.67372 52.0683 9.55313 52.1699 9.45156C52.2715 9.34998 52.392 9.26942 52.5248 9.21447C52.6575 9.15951 52.7997 9.13125 52.9434 9.13129H57.6217C57.9118 9.13129 58.19 9.24652 58.3951 9.45164C58.6002 9.65676 58.7155 9.93496 58.7155 10.225C58.7155 10.5151 58.6002 10.7933 58.3951 10.9984C58.19 11.2036 57.9118 11.3188 57.6217 11.3188H52.9434C52.7997 11.3188 52.6575 11.2906 52.5248 11.2356C52.392 11.1807 52.2715 11.1001 52.1699 10.9985C52.0683 10.8969 51.9877 10.7764 51.9328 10.6436Z" fill="#121926"/>
</svg>
