<svg width="70" height="70" viewBox="0 0 70 70" fill="none" xmlns="http://www.w3.org/2000/svg">
<path fill-rule="evenodd" clip-rule="evenodd" d="M29.3372 13.0486H30.6836C31.1059 13.0325 31.5272 13.1013 31.9225 13.2509C32.3178 13.4005 32.6791 13.6279 32.9849 13.9196C33.2907 14.2113 33.5349 14.5614 33.7031 14.9492C33.8712 15.337 33.9598 15.7546 33.9636 16.1772L33.8542 18.8143C33.8375 19.1007 33.7089 19.3692 33.4962 19.5617C33.2834 19.7542 33.0035 19.8554 32.7169 19.8435C32.4302 19.8316 32.1596 19.7075 31.9636 19.498C31.7676 19.2885 31.6617 19.0104 31.6688 18.7235L31.7784 16.0874C31.7474 15.503 31.2234 15.2531 30.6835 15.2361L13.8837 15.2361C13.3516 15.258 12.8261 15.5012 12.7995 16.0885L13.0757 22.5816H19.4827C20.1299 22.5502 20.7632 22.7758 21.2447 23.2094C21.7262 23.643 22.0168 24.2493 22.0532 24.8962V45.3516C22.0167 45.9985 21.726 46.6046 21.2446 47.0381C20.7631 47.4715 20.1298 47.6971 19.4827 47.6657H14.1426L14.404 53.8127H16.2677C16.5553 53.8166 16.8297 53.9335 17.0317 54.1382C17.2337 54.3429 17.3469 54.6189 17.3469 54.9065C17.3469 55.194 17.2337 55.47 17.0317 55.6747C16.8297 55.8794 16.5553 55.9964 16.2677 56.0002H14.497L14.7793 62.637C14.8308 62.8799 14.9696 63.0955 15.1694 63.243C15.3692 63.3906 15.6161 63.4598 15.8634 63.4375H28.715C28.9623 63.4596 29.2092 63.3903 29.4089 63.2427C29.6086 63.0951 29.7472 62.8794 29.7986 62.6364L30.0814 56.0002H20.6428C20.3556 55.9958 20.0817 55.8786 19.8802 55.674C19.6787 55.4693 19.5658 55.1937 19.5658 54.9065C19.5658 54.6193 19.6787 54.3437 19.8802 54.139C20.0817 53.9344 20.3555 53.8172 20.6427 53.8127H30.1747L31.483 23.1194C31.5007 22.8335 31.6299 22.566 31.8427 22.3743C32.0555 22.1826 32.3351 22.082 32.6212 22.0942C32.9074 22.1063 33.1774 22.2302 33.3732 22.4393C33.569 22.6484 33.6749 22.9259 33.6683 23.2122L31.984 62.7288C31.9181 63.54 31.5411 64.2944 30.9319 64.8342C30.3226 65.374 29.5283 65.6573 28.715 65.625H15.8634C15.0502 65.6574 14.2558 65.3741 13.6465 64.8345C13.0372 64.2948 12.6601 63.5406 12.5939 62.7293L10.6143 16.1793C10.6174 15.7572 10.7051 15.3401 10.8722 14.9526C11.0394 14.565 11.2826 14.2149 11.5874 13.9231C11.8922 13.6312 12.2525 13.4034 12.6469 13.2532C13.0414 13.103 13.4619 13.0334 13.8837 13.0486H15.0853V7.45545C15.0863 6.63877 15.4112 5.85584 15.9887 5.27836C16.5661 4.70088 17.3491 4.37601 18.1658 4.375H26.2567C27.0734 4.37601 27.8563 4.70088 28.4338 5.27836C29.0113 5.85584 29.3362 6.63877 29.3372 7.45545V13.0486ZM19.8657 24.8962C19.7582 24.8079 19.6217 24.7626 19.4827 24.7691H13.1687L14.0495 45.4782H19.4828C19.5546 45.4849 19.6269 45.4747 19.6941 45.4486C19.7613 45.4224 19.8215 45.381 19.8699 45.3276L19.8657 24.8962ZM17.2728 13.047H27.1497V7.45545C27.1494 7.2187 27.0553 6.99173 26.8879 6.82432C26.7205 6.65692 26.4935 6.56276 26.2567 6.5625H18.1658C17.929 6.56276 17.702 6.65692 17.5346 6.82432C17.3672 6.99173 17.2731 7.2187 17.2728 7.45545V13.047ZM58.5703 38.4206C57.6647 37.2765 56.0576 37.3071 54.6806 37.3334C54.4634 37.3375 54.252 37.3415 54.05 37.3408V34.0462C54.0493 33.4328 53.8053 32.8446 53.3716 32.4108C52.9379 31.977 52.3499 31.733 51.7365 31.7321H48.6218V22.4545H50.1204C50.4077 22.4502 50.6817 22.3331 50.8834 22.1284C51.085 21.9238 51.198 21.648 51.198 21.3607C51.198 21.0734 51.085 20.7976 50.8834 20.593C50.6817 20.3883 50.4077 20.2712 50.1204 20.267H48.6218V18.354H52.2438C52.5311 18.3497 52.8051 18.2326 53.0068 18.028C53.2084 17.8233 53.3215 17.5475 53.3215 17.2602C53.3215 16.9729 53.2084 16.6972 53.0068 16.4925C52.8051 16.2879 52.5311 16.1708 52.2438 16.1665H48.6218V14.2529H52.2438C52.5339 14.2529 52.8121 14.1377 53.0172 13.9326C53.2223 13.7275 53.3376 13.4493 53.3376 13.1592C53.3376 12.8691 53.2223 12.5909 53.0172 12.3858C52.8121 12.1807 52.5339 12.0654 52.2438 12.0654H48.6218V10.1525H50.1204C50.4075 10.148 50.6814 10.0308 50.8829 9.82619C51.0844 9.62155 51.1973 9.34589 51.1973 9.05871C51.1973 8.77153 51.0844 8.49587 50.8829 8.29123C50.6814 8.0866 50.4075 7.96941 50.1204 7.96496H48.6218V5.46875C48.6174 5.1816 48.5002 4.90773 48.2955 4.70625C48.0909 4.50476 47.8152 4.39184 47.5281 4.39185C47.2409 4.39185 46.9652 4.5048 46.7606 4.70629C46.556 4.90779 46.4388 5.18167 46.4343 5.46882V7.96494H44.9486C44.6611 7.9688 44.3867 8.08575 44.1847 8.29045C43.9827 8.49515 43.8695 8.77116 43.8695 9.05872C43.8695 9.34629 43.9828 9.62228 44.1847 9.82697C44.3867 10.0317 44.6612 10.1486 44.9487 10.1524H46.4344V12.0654H42.8262C42.5362 12.0654 42.258 12.1806 42.0528 12.3858C41.8477 12.5909 41.7325 12.8691 41.7325 13.1592C41.7325 13.4492 41.8477 13.7274 42.0528 13.9326C42.258 14.1377 42.5362 14.2529 42.8262 14.2529H46.4343V16.1664H42.8262C42.5388 16.1705 42.2646 16.2875 42.0628 16.4922C41.861 16.6969 41.7479 16.9728 41.7479 17.2602C41.7479 17.5476 41.861 17.8235 42.0628 18.0282C42.2646 18.2329 42.5389 18.3499 42.8263 18.3539H46.4343V20.2669H44.9486C44.6612 20.271 44.387 20.388 44.1852 20.5927C43.9834 20.7974 43.8703 21.0733 43.8703 21.3607C43.8703 21.6481 43.9834 21.924 44.1852 22.1287C44.387 22.3333 44.6613 22.4503 44.9487 22.4544H46.4344V31.732H43.3336C42.72 31.7327 42.1317 31.9767 41.6978 32.4105C41.2639 32.8443 41.0198 33.4325 41.019 34.0461V37.3407H38.9308C38.4728 37.3438 38.0204 37.4421 37.6024 37.6295C37.1844 37.8168 36.81 38.0891 36.5029 38.429C36.1959 38.7689 35.9629 39.169 35.8189 39.6038C35.6748 40.0387 35.6228 40.4987 35.6662 40.9547L37.9524 62.6908C38.0364 63.4954 38.4153 64.2405 39.016 64.7823C39.6168 65.3241 40.3969 65.6243 41.2059 65.625H53.8609C54.6716 65.629 55.4545 65.3301 56.0562 64.7868C56.6578 64.2435 57.0349 63.4951 57.1133 62.6882L58.645 48.1742C58.6602 48.0313 58.6471 47.8868 58.6065 47.749C58.5658 47.6112 58.4985 47.4828 58.4081 47.3711C58.3178 47.2593 58.2064 47.1665 58.0802 47.0978C57.954 47.0292 57.8155 46.9861 57.6726 46.971C57.5297 46.9559 57.3853 46.9691 57.2475 47.0099C57.1098 47.0507 56.9814 47.1182 56.8697 47.2086C56.7581 47.299 56.6653 47.4105 56.5968 47.5368C56.5283 47.663 56.4853 47.8016 56.4703 47.9445L54.9376 62.4671C54.9115 62.734 54.7866 62.9815 54.5874 63.161C54.3882 63.3405 54.1291 63.4392 53.8609 63.4375H41.2059C40.9371 63.4361 40.6783 63.3355 40.4791 63.1549C40.28 62.9743 40.1547 62.7265 40.1271 62.4591L37.8424 40.7288C37.8281 40.577 37.8455 40.4239 37.8936 40.2792C37.9417 40.1345 38.0195 40.0015 38.1219 39.8885C38.2243 39.7756 38.3492 39.6852 38.4884 39.6232C38.6277 39.5611 38.7784 39.5288 38.9309 39.5283H56.1467C56.2979 39.5301 56.4471 39.5633 56.5848 39.6256C56.7226 39.6879 56.846 39.778 56.9472 39.8903C57.0484 40.0027 57.1253 40.1347 57.173 40.2782C57.2207 40.4217 57.2382 40.5735 57.2244 40.724L56.9179 43.5898C56.8918 43.8757 56.9791 44.1604 57.1611 44.3825C57.3431 44.6046 57.6051 44.7462 57.8906 44.7767C58.1761 44.8073 58.4622 44.7244 58.687 44.5459C58.9119 44.3673 59.0576 44.1075 59.0926 43.8226C59.1154 43.4723 59.1669 43.0867 59.2207 42.6839C59.42 41.1921 59.6509 39.4645 58.5703 38.4206ZM51.8625 37.3402H43.2065V34.0462C43.2065 34.0295 43.2098 34.013 43.2162 33.9976C43.2226 33.9822 43.2319 33.9683 43.2438 33.9565C43.2556 33.9447 43.2696 33.9354 43.285 33.9291C43.3004 33.9228 43.3169 33.9195 43.3336 33.9196H51.7365C51.7699 33.9197 51.802 33.9331 51.8257 33.9568C51.8493 33.9805 51.8625 34.0127 51.8625 34.0462V37.3402ZM52.3375 50.9886C52.6259 51.0185 52.9143 50.9327 53.1396 50.7502C53.3648 50.5677 53.5085 50.3033 53.5391 50.015L54.2313 43.4301C54.2463 43.2779 54.2294 43.1242 54.1817 42.9789C54.134 42.8336 54.0565 42.6998 53.9542 42.5861C53.8519 42.4724 53.727 42.3813 53.5874 42.3186C53.4479 42.256 53.2969 42.2231 53.1439 42.222H47.5342C47.2441 42.222 46.9659 42.3373 46.7608 42.5424C46.5557 42.7475 46.4404 43.0257 46.4404 43.3158C46.4404 43.6059 46.5557 43.8841 46.7608 44.0892C46.9659 44.2943 47.2441 44.4095 47.5342 44.4095H51.9295L51.3644 49.7864C51.3493 49.9293 51.3625 50.0737 51.4032 50.2114C51.444 50.3492 51.5114 50.4775 51.6018 50.5892C51.6922 50.7008 51.8037 50.7936 51.9299 50.8621C52.0561 50.9306 52.1946 50.9736 52.3375 50.9886Z" fill="#121926"/>
</svg>
