<svg width="70" height="70" viewBox="0 0 70 70" fill="none" xmlns="http://www.w3.org/2000/svg">
<path fill-rule="evenodd" clip-rule="evenodd" d="M64.6234 32.6566C65.2651 33.3004 65.6253 34.1724 65.6249 35.0814C65.6195 35.9749 65.2665 36.8312 64.6406 37.4689C64.0148 38.1066 63.1653 38.4756 62.272 38.4978L58.9728 51.1297C58.7551 51.9662 58.351 52.7427 57.7907 53.4009C57.2304 54.0591 56.5284 54.582 55.7374 54.9305C56.0501 55.4791 56.3084 56.0571 56.5087 56.656C56.6083 56.9935 56.628 57.3495 56.5661 57.6959C56.5043 58.0423 56.3626 58.3696 56.1523 58.6517C55.942 58.9338 55.6688 59.1631 55.3545 59.3214C55.0402 59.4796 54.6934 59.5625 54.3415 59.5634H52.7415C52.316 59.5652 51.8988 59.446 51.5385 59.2196C51.1782 58.9932 50.8897 58.669 50.7068 58.2849C50.172 57.0361 49.2021 56.0239 47.9772 55.4364H26.0972C25.8071 55.4364 25.5289 55.3211 25.3238 55.116C25.1187 54.9109 25.0034 54.6327 25.0034 54.3426C25.0034 54.0525 25.1187 53.7743 25.3238 53.5692C25.5289 53.3641 25.8071 53.2489 26.0972 53.2489H53.3973C53.5411 53.2522 53.685 53.2415 53.8267 53.2168C54.538 53.1303 55.207 52.8324 55.747 52.3614C56.2871 51.8905 56.6733 51.2683 56.8558 50.5754L60.0087 38.5048H53.8128C53.5251 38.5011 53.2505 38.3843 53.0483 38.1796C52.8462 37.9749 52.7328 37.6987 52.7328 37.411C52.7328 37.1233 52.8462 36.8472 53.0483 36.6425C53.2505 36.4377 53.5251 36.3209 53.8128 36.3173H62.2016C62.5263 36.3105 62.8355 36.1768 63.0627 35.9448C63.29 35.7128 63.4173 35.4009 63.4173 35.0762C63.4173 34.7514 63.29 34.4396 63.0628 34.2075C62.8355 33.9755 62.5264 33.8418 62.2017 33.835H47.5569C44.7587 33.8381 42.0123 34.5901 39.6028 36.0129C37.6082 37.2296 35.3242 37.8897 32.988 37.9247H7.79909C7.47502 37.9305 7.16617 38.0633 6.93903 38.2945C6.71189 38.5257 6.58461 38.8369 6.5846 39.161C6.58459 39.4851 6.71185 39.7963 6.93897 40.0275C7.1661 40.2588 7.47494 40.3916 7.79901 40.3974H32.791C35.5512 40.4387 38.2679 39.7077 40.6346 38.2868C42.7134 36.9979 45.111 36.3158 47.5569 36.3172H49.4271C49.7143 36.3217 49.9882 36.4389 50.1897 36.6435C50.3912 36.8481 50.5042 37.1238 50.5042 37.411C50.5042 37.6982 50.3912 37.9739 50.1898 38.1785C49.9883 38.3832 49.7144 38.5004 49.4272 38.5048C46.7721 38.236 44.0998 38.81 41.7892 40.1453C39.0758 41.7814 35.9592 42.6263 32.791 42.5848H10.0504L12.2343 50.6095C12.4397 51.3673 12.889 52.0364 13.5126 52.5134C14.1363 52.9904 14.8996 53.2488 15.6848 53.2487H21.7115C21.8552 53.2487 21.9974 53.2769 22.1301 53.3319C22.2629 53.3868 22.3835 53.4674 22.485 53.569C22.5866 53.6705 22.6672 53.7911 22.7221 53.9238C22.7771 54.0566 22.8053 54.1988 22.8053 54.3424C22.8012 54.5744 22.7308 54.8003 22.6022 54.9934C22.4737 55.1865 22.2925 55.3387 22.0801 55.4319C20.8511 56.0185 19.8779 57.0327 19.3425 58.2848C19.1592 58.6689 18.8705 58.9931 18.5101 59.2194C18.1497 59.4458 17.7323 59.565 17.3067 59.5633H15.7046C15.3534 59.5625 15.0072 59.48 14.6933 59.3223C14.3795 59.1646 14.1066 58.9361 13.8962 58.6549C13.6859 58.3736 13.5438 58.0473 13.4812 57.7017C13.4187 57.3561 13.4374 57.0006 13.5358 56.6635C13.7007 56.1625 13.9085 55.6766 14.1568 55.2112C13.1917 54.9487 12.3119 54.4388 11.6044 53.7319C10.8969 53.025 10.3861 52.1457 10.1227 51.181L7.78306 42.5832C6.87643 42.5792 6.00842 42.2158 5.36948 41.5725C4.73055 40.9293 4.3729 40.0589 4.37501 39.1522C4.37712 38.2456 4.73883 37.3768 5.38075 36.7366C6.02268 36.0964 6.89238 35.7369 7.79901 35.7372H13.4381V17.2388C13.4395 15.8411 13.9954 14.501 14.9837 13.5126C15.972 12.5242 17.312 11.9683 18.7097 11.9667L20.0858 11.9667C21.1456 10.9665 22.5529 10.4177 24.0101 10.4364C25.4672 10.4552 26.86 11.0399 27.8937 12.0671C28.1384 12.272 28.3358 12.5276 28.4723 12.8162C28.6087 13.1048 28.681 13.4195 28.6841 13.7387C28.6852 14.0191 28.6304 14.2969 28.5232 14.556C28.4159 14.8151 28.2582 15.0503 28.0593 15.2479L23.145 20.1622C22.7438 20.5598 22.2019 20.7829 21.6371 20.7829C21.0723 20.7829 20.5303 20.5598 20.1292 20.1622C19.3205 19.4173 18.7499 18.4502 18.4888 17.3822C18.2278 16.3142 18.288 15.1929 18.6619 14.1589C17.8531 14.1718 17.0817 14.5018 16.5138 15.0779C15.9459 15.6539 15.6269 16.4299 15.6255 17.2388V30.5612H17.3708V29.8029C17.3749 29.5155 17.4919 29.2413 17.6965 29.0395C17.9012 28.8377 18.1771 28.7245 18.4645 28.7245C18.752 28.7245 19.0278 28.8376 19.2325 29.0394C19.4372 29.2412 19.5542 29.5155 19.5583 29.8029V33.506C19.5547 33.7936 19.4378 34.0683 19.2331 34.2705C19.0284 34.4726 18.7523 34.586 18.4646 34.586C18.1768 34.586 17.9007 34.4726 17.696 34.2705C17.4913 34.0683 17.3744 33.7936 17.3708 33.506V32.7487H15.6255V35.7372H32.988C34.934 35.7093 36.8359 35.1537 38.4909 34.1298C41.2371 32.5078 44.3675 31.6507 47.5569 31.6475H62.2017C63.1107 31.6499 63.9816 32.0128 64.6234 32.6566ZM26.5127 13.7012L26.3471 13.6137C22.9613 10.4048 18.268 15.455 21.6758 18.6156L26.5127 13.7012ZM16.5443 55.4362C16.1579 56.0246 15.8476 56.6594 15.6207 57.3257L17.3067 57.376C17.6614 56.6874 18.0864 56.0374 18.5747 55.4362H16.5443ZM51.4693 55.4362C51.9436 56.0207 52.349 56.658 52.6774 57.3353L54.3416 57.3758C54.2178 56.6526 53.8902 55.9798 53.3973 55.4362H51.4693ZM54.2453 50.7679C54.0025 50.9555 53.7044 51.0575 53.3976 51.0581L50.7081 51.0581C50.4205 51.0542 50.1461 50.9373 49.9441 50.7326C49.7421 50.5279 49.6289 50.2519 49.6289 49.9643C49.6289 49.6768 49.7421 49.4008 49.9441 49.1961C50.1461 48.9914 50.4205 48.8744 50.7081 48.8706H52.7791L54.3033 43.0355C54.3773 42.7555 54.5593 42.5162 54.8095 42.3702C55.0596 42.2241 55.3575 42.1833 55.6377 42.2565C55.9179 42.3297 56.1577 42.5111 56.3044 42.7609C56.4511 43.0106 56.4928 43.3084 56.4203 43.5888L54.7402 50.0209C54.6621 50.3177 54.4881 50.5803 54.2453 50.7679ZM32.3924 25.5892C32.6072 25.5858 32.8162 25.5196 32.9939 25.3989C33.1715 25.2781 33.31 25.108 33.3922 24.9096C33.4743 24.7111 33.4967 24.493 33.4565 24.282C33.4162 24.071 33.3151 23.8764 33.1657 23.7221L28.1023 18.6593C27.8959 18.4607 27.6198 18.3509 27.3333 18.3537C27.0469 18.3564 26.7729 18.4715 26.5703 18.674C26.3678 18.8766 26.2528 19.1506 26.25 19.437C26.2473 19.7235 26.3571 19.9996 26.5557 20.206L31.619 25.2687C31.7205 25.3705 31.841 25.4512 31.9737 25.5061C32.1064 25.5611 32.2487 25.5893 32.3924 25.5892ZM36.2244 21.883C35.9414 21.927 35.6524 21.8583 35.4194 21.6917L29.6213 17.3628C29.395 17.187 29.2467 16.9295 29.2082 16.6456C29.1697 16.3616 29.2441 16.0739 29.4154 15.8443C29.5867 15.6146 29.8413 15.4613 30.1245 15.4173C30.4076 15.3733 30.6967 15.4421 30.9297 15.6089L36.7283 19.9379C36.9543 20.1138 37.1024 20.3713 37.1407 20.6552C37.179 20.939 37.1045 21.2266 36.9332 21.4561C36.7619 21.6857 36.5074 21.8389 36.2244 21.883ZM23.7287 21.5016C23.6135 21.5875 23.5164 21.6954 23.443 21.8189C23.3695 21.9424 23.321 22.0791 23.3004 22.2214C23.2798 22.3636 23.2874 22.5085 23.3227 22.6478C23.3581 22.7871 23.4206 22.9181 23.5065 23.0332L27.835 28.8309C27.921 28.946 28.0288 29.043 28.1523 29.1164C28.2758 29.1898 28.4125 29.2382 28.5547 29.2588C28.6968 29.2794 28.8417 29.2717 28.9809 29.2364C29.1201 29.201 29.251 29.1385 29.3661 29.0525C29.4812 28.9665 29.5782 28.8587 29.6517 28.7352C29.7251 28.6118 29.7735 28.475 29.7941 28.3328C29.8146 28.1907 29.807 28.0458 29.7716 27.9066C29.7362 27.7674 29.6737 27.6365 29.5878 27.5214L25.2593 21.7237C25.0856 21.4916 24.8269 21.3378 24.5399 21.2962C24.253 21.2545 23.9613 21.3284 23.7287 21.5016ZM41.0534 23.3032C40.8424 23.5022 40.5611 23.6094 40.2712 23.6014C37.9094 23.1958 39.9385 19.5638 41.3763 19.0836C41.4109 18.1767 41.758 17.3098 42.3587 16.6296C42.9595 15.9494 43.7769 15.4979 44.6724 15.3514C45.568 15.2049 46.4867 15.3726 47.2728 15.826C48.0589 16.2793 48.6641 16.9905 48.9858 17.8391C49.0808 18.1101 49.0654 18.4077 48.9429 18.6674C48.8203 18.9272 48.6005 19.1283 48.3309 19.2274C48.0612 19.3264 47.7635 19.3154 47.5019 19.1967C47.2404 19.0781 47.036 18.8612 46.9329 18.5931C46.8072 18.249 46.5759 17.9534 46.2723 17.7484C45.9686 17.5435 45.608 17.4396 45.2418 17.4517C44.8756 17.4637 44.5226 17.5911 44.233 17.8156C43.9435 18.0401 43.7322 18.3502 43.6293 18.7019C44.5259 18.7502 45.6461 19.3081 45.2293 20.3769C45.1752 20.5099 45.0953 20.631 44.9943 20.7332C44.8933 20.8353 44.7731 20.9166 44.6407 20.9722C44.5082 21.0279 44.3661 21.0569 44.2224 21.0575C44.0788 21.0582 43.9364 21.0305 43.8034 20.9761C43.4401 20.8278 43.0375 20.8062 42.6604 20.9147C42.2834 21.0233 41.9538 21.2555 41.7249 21.5742C41.5209 21.8557 41.4066 22.1922 41.397 22.5398C41.388 22.8297 41.2644 23.1042 41.0534 23.3032ZM51.2104 21.2933C51.3369 21.3614 51.4755 21.4039 51.6184 21.4183C51.7614 21.4328 51.9057 21.4188 52.0432 21.3774C52.1808 21.3359 52.3088 21.2677 52.4199 21.1766C52.531 21.0856 52.623 20.9735 52.6908 20.8468C52.8083 20.6352 52.9851 20.4626 53.1996 20.3503C53.4141 20.2379 53.6567 20.1909 53.8976 20.2148C54.1385 20.2388 54.3671 20.3328 54.5552 20.4851C54.7433 20.6375 54.8827 20.8416 54.9562 21.0723C55.0034 21.2268 55.0195 21.3891 55.0035 21.5499C54.9876 21.7107 54.9399 21.8667 54.8633 22.0089C54.7949 22.1355 54.7521 22.2743 54.7375 22.4174C54.7228 22.5605 54.7365 22.7051 54.7778 22.8429C54.8192 22.9807 54.8873 23.109 54.9783 23.2205C55.0693 23.3319 55.1814 23.4243 55.3082 23.4923C55.4349 23.5603 55.5739 23.6026 55.717 23.6169C55.8602 23.6311 56.0048 23.6169 56.1424 23.5752C56.2801 23.5334 56.4082 23.4649 56.5193 23.3736C56.6305 23.2822 56.7225 23.1698 56.7901 23.0429C57.2169 22.2439 57.3092 21.3081 57.0466 20.4412C56.784 19.5742 56.1881 18.8469 55.3897 18.419C54.5913 17.9911 53.6557 17.8975 52.7884 18.1589C51.9211 18.4202 51.193 19.0151 50.7639 19.8129C50.696 19.9394 50.6536 20.0781 50.6393 20.221C50.6249 20.3638 50.6389 20.5082 50.6803 20.6456C50.7218 20.7831 50.79 20.9111 50.8809 21.0222C50.9719 21.1334 51.0838 21.2255 51.2104 21.2933ZM35.6034 34.1682C34.5752 34.1411 34.1893 32.8509 34.0429 32.0031C33.9789 31.4509 34.0365 30.8914 34.2117 30.3638C34.3869 29.8363 34.6755 29.3535 35.0571 28.9493C35.4388 28.5452 35.9043 28.2294 36.421 28.0243C36.9376 27.8192 37.4929 27.7297 38.0479 27.7621C38.3839 26.7677 39.0827 25.9367 40.0048 25.4352C40.9269 24.9338 42.0043 24.7988 43.0216 25.0572C43.4088 24.1912 44.0208 23.4447 44.794 22.8952C45.5672 22.3457 46.4735 22.0132 47.4186 21.9323C48.3638 21.8514 49.3133 22.025 50.1687 22.4352C51.0241 22.8453 51.754 23.4769 52.2828 24.2645C53.3033 24.1358 54.3333 24.4164 55.1476 25.0449C55.9619 25.6734 56.4943 26.5987 56.6284 27.6186C56.7435 28.5115 56.6003 29.8349 55.4814 29.8445C55.3139 29.8439 55.1489 29.805 54.9988 29.7308C54.8487 29.6566 54.7176 29.5491 54.6154 29.4165C54.5133 29.2838 54.4428 29.1296 54.4094 28.9655C54.3761 28.8014 54.3806 28.6319 54.4228 28.4699C54.5025 28.069 54.4357 27.6528 54.2347 27.2969C54.0337 26.941 53.7117 26.669 53.3273 26.5302C52.9428 26.3914 52.5213 26.395 52.1393 26.5404C51.7573 26.6858 51.4401 26.9634 51.2453 27.3227C51.1775 27.4495 51.0853 27.5615 50.9741 27.6526C50.8628 27.7436 50.7347 27.8117 50.5971 27.8531C50.4594 27.8945 50.315 27.9083 50.172 27.8937C50.029 27.8791 49.8903 27.8365 49.7639 27.7682C48.6069 27.1105 49.4658 25.7588 50.2334 25.1665C49.9001 24.7721 49.4733 24.4673 48.9921 24.28C48.5108 24.0926 47.9904 24.0286 47.4781 24.0939C46.6731 24.1879 45.9383 24.5974 45.4348 25.2326C44.9314 25.8678 44.7006 26.6767 44.7929 27.4819C44.8253 27.7518 44.8946 28.0159 44.999 28.2669C45.0666 28.4332 45.0925 28.6135 45.0744 28.7922C45.0562 28.9708 44.9946 29.1422 44.895 29.2915C44.7953 29.4408 44.6605 29.5635 44.5025 29.6487C44.3445 29.7339 44.1681 29.7792 43.9885 29.7805C42.7761 29.7463 42.6452 28.1457 42.5907 27.2097C42.2977 27.1144 41.9865 27.0894 41.6821 27.1366C41.3777 27.1839 41.0887 27.3022 40.8385 27.4818C40.5882 27.6615 40.3838 27.8976 40.2417 28.1709C40.0996 28.4442 40.0239 28.7471 40.0206 29.0552C40.0193 29.2357 39.9739 29.4132 39.8884 29.5722C39.8028 29.7313 39.6797 29.867 39.5298 29.9675C39.3798 30.0681 39.2076 30.1306 39.028 30.1494C38.8484 30.1682 38.667 30.1429 38.4994 30.0756C38.18 29.9344 37.8234 29.9003 37.483 29.9787C37.1426 30.057 36.8367 30.2434 36.6112 30.5101C36.3856 30.7767 36.2524 31.1093 36.2317 31.458C36.2109 31.8066 36.3035 32.1526 36.4958 32.4442C36.6088 32.6084 36.675 32.8003 36.6874 32.9992C36.6998 33.1981 36.658 33.3967 36.5664 33.5737C36.4747 33.7507 36.3368 33.8995 36.1672 34.0042C35.9976 34.1089 35.8027 34.1656 35.6034 34.1682Z" fill="#121926"/>
</svg>
