<svg width="54" height="54" viewBox="0 0 54 54" fill="none" xmlns="http://www.w3.org/2000/svg">
<path d="M22.9375 33.2905L16.2238 26.563C15.8245 26.1729 15.3476 25.9732 14.7929 25.9641C14.2378 25.9549 13.7548 26.1559 13.3439 26.5673C12.9229 26.9879 12.7123 27.4709 12.7123 28.0163C12.7123 28.5618 12.9185 29.0358 13.3309 29.4385L21.1952 37.3029C21.6869 37.813 22.2658 38.068 22.9317 38.068C23.5981 38.068 24.1854 37.813 24.6936 37.3029L40.6147 21.3818C41.0072 20.9893 41.2083 20.5157 41.218 19.9611C41.2272 19.4064 41.0261 18.9188 40.6147 18.4983C40.1941 18.0869 39.7111 17.8812 39.1657 17.8812C38.6202 17.8812 38.145 18.0835 37.7399 18.4881L22.9375 33.2905ZM27.0065 54C23.2727 54 19.7624 53.2905 16.4757 51.8715C13.1886 50.452 10.3292 48.5258 7.89775 46.0928C5.46674 43.6599 3.5427 40.8032 2.12562 37.5228C0.708539 34.242 0 30.7365 0 27.0065C0 23.2727 0.709507 19.7624 2.12852 16.4757C3.54802 13.1886 5.47424 10.3292 7.90718 7.89775C10.3401 5.46674 13.1968 3.5427 16.4772 2.12562C19.758 0.708537 23.2635 0 26.9935 0C30.7273 0 34.2376 0.709508 37.5243 2.12852C40.8114 3.54802 43.6708 5.47424 46.1023 7.90718C48.5333 10.3401 50.4573 13.1968 51.8744 16.4772C53.2915 19.758 54 23.2635 54 26.9935C54 30.7273 53.2905 34.2376 51.8715 37.5243C50.452 40.8114 48.5258 43.6708 46.0928 46.1023C43.6599 48.5333 40.8032 50.4573 37.5228 51.8744C34.242 53.2915 30.7365 54 27.0065 54Z" fill="#34C759"/>
</svg>
