<svg width="17" height="20" viewBox="0 0 17 20" fill="none" xmlns="http://www.w3.org/2000/svg">
<path d="M14.6654 10.416V5.66602C14.6654 4.26588 14.6654 3.56582 14.3929 3.03104C14.1532 2.56063 13.7707 2.17818 13.3003 1.9385C12.7656 1.66602 12.0655 1.66602 10.6654 1.66602H5.33203C3.9319 1.66602 3.23183 1.66602 2.69706 1.9385C2.22665 2.17818 1.8442 2.56063 1.60451 3.03104C1.33203 3.56582 1.33203 4.26588 1.33203 5.66602V14.3327C1.33203 15.7328 1.33203 16.4329 1.60451 16.9677C1.8442 17.4381 2.22665 17.8205 2.69706 18.0602C3.23183 18.3327 3.9319 18.3327 5.33203 18.3327H7.9987M9.66536 9.16602H4.66536M6.33203 12.4993H4.66536M11.332 5.83268H4.66536M10.082 15.8327L11.7487 17.4993L15.4987 13.7493" stroke="#1E2C24" stroke-width="1.66667" stroke-linecap="round" stroke-linejoin="round"/>
</svg>
