<svg width="16" height="16" viewBox="0 0 16 16" fill="none" xmlns="http://www.w3.org/2000/svg">
<path d="M4.25 2C4.25 1.17157 4.92157 0.5 5.75 0.5H10.25C11.0784 0.5 11.75 1.17157 11.75 2V2.75H15.5V4.25H0.5V2.75H4.25V2ZM5.75 2.75H10.25V2H5.75V2.75Z" fill="#EC2D30"/>
<path d="M1.32918 5.33541L2.67082 4.66459L3.34164 6.00623C3.44578 6.21451 3.5 6.44418 3.5 6.67705V14H12.5V6.67705C12.5 6.44418 12.5542 6.21451 12.6584 6.00623L13.3292 4.66459L14.6708 5.33541L14 6.67705V14C14 14.8284 13.3284 15.5 12.5 15.5H3.5C2.67157 15.5 2 14.8284 2 14V6.67705L1.32918 5.33541Z" fill="#EC2D30"/>
<path d="M8.75 6.5V12.5H10.25V6.5H8.75Z" fill="#EC2D30"/>
<path d="M5.75 12.5V6.5H7.25V12.5H5.75Z" fill="#EC2D30"/>
</svg>
