<svg width="24" height="24" viewBox="0 0 24 24" fill="none" xmlns="http://www.w3.org/2000/svg">
<path d="M17.5312 20C17.1861 20 16.9062 19.7202 16.9062 19.375C16.9062 16.9282 14.9156 14.9375 12.4688 14.9375H11.5312C9.08441 14.9375 7.09375 16.9282 7.09375 19.375C7.09375 19.7202 6.81394 20 6.46875 20C6.12356 20 5.84375 19.7202 5.84375 19.375C5.84375 16.2389 8.39516 13.6875 11.5312 13.6875H12.4688C15.6048 13.6875 18.1562 16.2389 18.1562 19.375C18.1562 19.7202 17.8764 20 17.5312 20Z" fill="#334F3E"/>
<path d="M11.9375 12.4375C9.61128 12.4375 7.71875 10.545 7.71875 8.21875C7.71875 5.89253 9.61128 4 11.9375 4C14.2637 4 16.1562 5.89253 16.1562 8.21875C16.1562 10.545 14.2637 12.4375 11.9375 12.4375ZM11.9375 5.25C10.3005 5.25 8.96875 6.58178 8.96875 8.21875C8.96875 9.85572 10.3005 11.1875 11.9375 11.1875C13.5745 11.1875 14.9062 9.85572 14.9062 8.21875C14.9062 6.58178 13.5745 5.25 11.9375 5.25Z" fill="#334F3E"/>
</svg>
