<svg width="44" height="46" viewBox="0 0 44 46" fill="none" xmlns="http://www.w3.org/2000/svg">
<path d="M43.1779 10.1498L22.2921 0.0669785C22.1069 -0.0223262 21.8913 -0.0223262 21.7062 0.0669785L0.820301 10.1498C0.587426 10.2622 0.439453 10.498 0.439453 10.7566V35.2434C0.439453 35.502 0.587426 35.7378 0.820301 35.8502L21.7061 45.933C21.7986 45.9777 21.8989 46 21.9991 46C22.0993 46 22.1994 45.9777 22.2921 45.933L43.1779 35.8502C43.4107 35.7378 43.5587 35.502 43.5587 35.2434V10.7567C43.5587 10.4979 43.4106 10.2623 43.1779 10.1498ZM21.9991 1.42209L41.335 10.7566L35.7299 13.4625C35.6944 13.4355 35.6569 13.4105 35.6158 13.3906L16.4112 4.11965L21.9991 1.42209ZM14.8895 4.88153L34.1973 14.2025L30.2428 16.1115L10.943 6.79439L14.8895 4.88153ZM34.649 15.4808V22.5376L30.9552 24.3208V17.264L34.649 15.4808ZM42.211 34.8206L22.6729 44.2526V21.2623L27.3334 19.0124C27.6685 18.8506 27.809 18.4478 27.6472 18.1126C27.4854 17.7776 27.0826 17.6369 26.7474 17.7988L21.9991 20.0912L20.1307 19.1891C19.7955 19.0272 19.3927 19.1679 19.2309 19.503C19.0691 19.8381 19.2096 20.2409 19.5447 20.4028L21.3253 21.2623V44.2526L1.78711 34.8204V11.8301L16.6652 19.0127C16.7597 19.0583 16.8595 19.0799 16.9577 19.0799C17.2082 19.0799 17.4488 18.9396 17.5649 18.6989C17.7267 18.3637 17.5862 17.9609 17.2511 17.7991L2.66318 10.7566L9.35699 7.52509L29.5982 17.2968C29.6012 17.3009 29.6045 17.3046 29.6076 17.3086V25.3945C29.6076 25.6264 29.7268 25.8419 29.9232 25.9652C30.0323 26.0337 30.1567 26.0683 30.2815 26.0683C30.3814 26.0683 30.4816 26.0461 30.5744 26.0013L35.6158 23.5675C35.8487 23.4551 35.9966 23.2194 35.9966 22.9607V14.8303L42.211 11.8302V34.8206Z" fill="#1E2C24"/>
</svg>
