<svg width="24" height="24" viewBox="0 0 24 24" fill="none" xmlns="http://www.w3.org/2000/svg">
<path d="M4.52994 13.7255C3.50998 12.6475 3 11.3527 3 9.84121C3 8.3297 3.50998 7.03495 4.52994 5.95697C5.5499 4.87899 6.79261 4.34 8.25807 4.34C9.62975 4.34 10.808 4.81455 11.7928 5.76364C12.7776 4.81455 13.9558 4.34 15.3275 4.34C16.7929 4.34 18.0356 4.87899 19.0556 5.95697C20.0756 7.03495 20.5855 8.3297 20.5855 9.84121C20.5855 11.3527 20.0756 12.6475 19.0556 13.7255L14.0261 19.0333C13.4165 19.6778 12.672 20 11.7928 20C10.9135 20 10.169 19.6778 9.5594 19.0333L4.52994 13.7255ZM5.40922 12.8818L10.4563 18.1897C10.8197 18.5764 11.2652 18.7697 11.7928 18.7697C12.3203 18.7697 12.7658 18.5764 13.1293 18.1897L18.1763 12.8818C18.9735 12.0499 19.3721 11.0393 19.3721 9.85C19.3721 8.66071 18.9765 7.6501 18.1851 6.81818C17.3938 5.98626 16.4441 5.5703 15.3363 5.5703C14.2284 5.5703 13.2817 5.9804 12.4962 6.80061C12.3086 6.9998 12.0741 7.09939 11.7928 7.09939C11.5114 7.09939 11.2769 6.9998 11.0893 6.80061C10.3039 5.9804 9.35717 5.5703 8.24928 5.5703C7.14139 5.5703 6.19177 5.98626 5.40043 6.81818C4.60908 7.6501 4.2134 8.66071 4.2134 9.85C4.2134 11.0393 4.61201 12.0499 5.40922 12.8818Z" fill="#334F3E"/>
</svg>
