<svg width="71" height="70" viewBox="0 0 71 70" fill="none" xmlns="http://www.w3.org/2000/svg">
<path fill-rule="evenodd" clip-rule="evenodd" d="M47.5148 23.5754V28.1224C55.9354 31.523 60.9614 41.4805 58.5316 51.4886L58.4373 51.8603C56.7887 58.3648 54.9753 65.5194 48.6065 65.625L22.194 65.6251C15.8084 65.526 13.9831 58.286 12.333 51.7407L12.2694 51.4886C9.84765 41.4506 14.8478 31.5476 23.2857 28.1214V23.5754C23.2894 22.329 23.7648 21.1302 24.6162 20.22C25.4676 19.3098 26.6321 18.7556 27.8754 18.6688V15.5753C27.8797 15.288 27.9968 15.0139 28.2014 14.8123C28.4061 14.6106 28.6819 14.4976 28.9692 14.4976C29.2565 14.4976 29.5322 14.6106 29.7369 14.8123C29.9415 15.0139 30.0587 15.288 30.0629 15.5753V18.6333H40.7377V7.89658C40.7373 7.54287 40.5966 7.20376 40.3465 6.95365C40.0964 6.70354 39.7573 6.56287 39.4036 6.5625H31.397C31.0433 6.56287 30.7042 6.70354 30.4541 6.95365C30.204 7.20376 30.0633 7.54287 30.0629 7.89658V11.1896C30.0629 11.4797 29.9477 11.7579 29.7426 11.963C29.5374 12.1681 29.2592 12.2833 28.9692 12.2833C28.6791 12.2833 28.4009 12.1681 28.1958 11.963C27.9907 11.7579 27.8754 11.4797 27.8754 11.1896V7.89658C27.8765 6.96292 28.2478 6.0678 28.908 5.40761C29.5682 4.74741 30.4633 4.37605 31.397 4.375H39.4036C40.3372 4.37605 41.2324 4.74741 41.8926 5.40761C42.5528 6.0678 42.9241 6.96292 42.9252 7.89658V18.6689C44.1685 18.7556 45.3329 19.3098 46.1844 20.2201C47.0358 21.1303 47.5112 22.3291 47.5148 23.5754ZM26.2807 21.6286C25.7643 22.145 25.474 22.8452 25.4732 23.5754V27.2705C28.6726 26.2109 32.0312 25.7132 35.4003 25.7993C38.7695 25.7119 42.1284 26.2098 45.3273 27.2709V23.5754C45.3266 22.8452 45.0362 22.145 44.5199 21.6286C44.0036 21.1122 43.3035 20.8216 42.5732 20.8208H28.2274C27.4971 20.8216 26.797 21.1122 26.2807 21.6286ZM56.5169 42.2951C53.2489 27.293 35.5624 25.6849 24.5882 29.8619C21.9791 30.9249 19.6732 32.6162 17.8755 34.7853C16.0777 36.9544 14.8439 39.5342 14.2837 42.2952H19.0421C20.4475 42.3119 21.8312 41.9483 23.0469 41.2428C24.2625 40.5374 25.2647 39.5163 25.9475 38.2878C26.8764 36.5928 28.244 35.1787 29.907 34.1937C31.5701 33.2087 33.4674 32.689 35.4002 32.6889C37.3331 32.6889 39.2304 33.2086 40.8935 34.1936C42.5565 35.1786 43.9242 36.5927 44.8531 38.2877C45.5358 39.5162 46.5381 40.5373 47.7537 41.2428C48.9693 41.9483 50.3531 42.3119 51.7585 42.2952L56.5169 42.2951ZM52.4485 61.4828C54.0693 59.1618 55.3607 55.7396 56.3952 51.0207C56.8755 48.8767 57.0277 46.6723 56.8464 44.4827H51.7585C49.9587 44.4998 48.1878 44.0297 46.6335 43.1223C45.0791 42.2148 43.7992 40.9037 42.9294 39.328C42.1965 37.9696 41.1097 36.8349 39.7842 36.044C38.4588 35.2531 36.944 34.8355 35.4006 34.8355C33.8571 34.8355 32.3423 35.2531 31.0169 36.044C29.6914 36.8349 28.6046 37.9696 27.8717 39.328C27.0017 40.9037 25.7217 42.2147 24.1673 43.1222C22.6129 44.0296 20.842 44.4997 19.0422 44.4827H13.9541C13.3809 49.796 15.9695 58.1661 18.3521 61.4828C18.7882 62.0935 19.3651 62.5901 20.0339 62.9303C20.7027 63.2706 21.4437 63.4446 22.1941 63.4375H48.6065C49.3568 63.4446 50.0978 63.2706 50.7667 62.9303C51.4355 62.5901 52.0124 62.0935 52.4485 61.4828ZM36.4941 9.56606V11.9191C36.4901 12.2065 36.373 12.4808 36.1684 12.6826C35.9637 12.8844 35.6878 12.9975 35.4004 12.9975C35.1129 12.9975 34.8371 12.8843 34.6324 12.6825C34.4277 12.4807 34.3107 12.2065 34.3066 11.9191V9.56606C34.3107 9.27866 34.4277 9.00441 34.6324 8.80261C34.8371 8.6008 35.113 8.48767 35.4004 8.48767C35.6878 8.48767 35.9637 8.6008 36.1684 8.80261C36.3731 9.00441 36.4901 9.27866 36.4941 9.56606ZM35.4005 40.2722C32.9357 40.2751 30.5727 41.2555 28.8298 42.9984C27.0869 44.7412 26.1065 47.1043 26.1037 49.5691C26.0569 57.9641 36.6556 62.0603 42.259 55.827C42.4475 55.6112 42.5439 55.3299 42.5272 55.0438C42.5106 54.7576 42.3823 54.4895 42.17 54.2969C41.9577 54.1044 41.6783 54.0028 41.3919 54.0142C41.1055 54.0255 40.835 54.1488 40.6385 54.3575C39.4757 55.6159 37.8964 56.4104 36.1929 56.5941C34.4894 56.7778 32.7771 56.3382 31.3727 55.3567C29.9683 54.3751 28.9671 52.9181 28.5542 51.2552C28.1414 49.5923 28.3448 47.8362 29.127 46.3118C29.9092 44.7873 31.2171 43.5979 32.8086 42.9634C34.4002 42.329 36.1677 42.2926 37.7841 42.8609C39.4005 43.4293 40.7562 44.5639 41.6005 46.0548C42.4448 47.5458 42.7204 49.292 42.3763 50.9705C42.3217 51.2553 42.3823 51.5502 42.5449 51.7904C42.7076 52.0305 42.9589 52.1962 43.2437 52.2511C44.6248 52.4438 44.6645 50.8549 44.6906 49.8096C44.6927 49.7255 44.6947 49.645 44.6974 49.5691C44.6945 47.1043 43.7141 44.7413 41.9713 42.9984C40.2284 41.2555 37.8654 40.2751 35.4005 40.2722ZM57.7781 6.26332C57.0617 7.93817 52.6705 8.62677 49.3017 8.3655C49.0149 8.3496 48.746 8.22157 48.5529 8.00907C48.3597 7.79656 48.2579 7.51663 48.2694 7.22971C48.2809 6.94279 48.4048 6.6719 48.6143 6.47553C48.8238 6.27917 49.1022 6.17308 49.3892 6.18017C53.6115 6.34466 55.5459 5.70379 55.9272 5.0971C56.0818 4.85166 56.3276 4.6777 56.6106 4.61349C56.8935 4.54929 57.1903 4.6001 57.4357 4.75475C57.6812 4.9094 57.8551 5.15522 57.9193 5.43813C57.9836 5.72104 57.9327 6.01787 57.7781 6.26332ZM45.6355 13.6932C49.854 13.5277 51.7926 14.1707 52.1734 14.7753C52.2498 14.8968 52.3495 15.0021 52.4666 15.0851C52.5838 15.1682 52.7161 15.2273 52.8561 15.2592C52.9961 15.2911 53.141 15.2951 53.2825 15.271C53.4241 15.2469 53.5595 15.1951 53.681 15.1187C53.8026 15.0422 53.9079 14.9426 53.9909 14.8254C54.0739 14.7083 54.1331 14.5759 54.165 14.436C54.1969 14.296 54.2009 14.151 54.1768 14.0095C54.1526 13.868 54.1009 13.7326 54.0244 13.611C53.0145 12.0056 50.2332 11.3156 45.5479 11.5079C45.261 11.5235 44.9917 11.6514 44.7984 11.864C44.605 12.0765 44.503 12.3566 44.5145 12.6437C44.5261 12.9308 44.6501 13.2019 44.8598 13.3983C45.0696 13.5947 45.3482 13.7006 45.6355 13.6932ZM52.3332 10.6436C52.2782 10.5109 52.25 10.3687 52.25 10.225C52.25 10.0814 52.2782 9.93915 52.3332 9.80643C52.3881 9.67372 52.4687 9.55313 52.5703 9.45156C52.6718 9.34998 52.7924 9.26942 52.9251 9.21447C53.0579 9.15951 53.2001 9.13125 53.3438 9.13129H58.0221C58.3122 9.13129 58.5904 9.24652 58.7955 9.45164C59.0006 9.65676 59.1158 9.93496 59.1158 10.225C59.1158 10.5151 59.0006 10.7933 58.7955 10.9984C58.5904 11.2036 58.3122 11.3188 58.0221 11.3188H53.3438C53.2001 11.3188 53.0579 11.2906 52.9251 11.2356C52.7924 11.1807 52.6718 11.1001 52.5703 10.9985C52.4687 10.8969 52.3881 10.7764 52.3332 10.6436Z" fill="#121926"/>
</svg>
