<svg width="300" height="300" viewBox="0 0 300 300" fill="none" xmlns="http://www.w3.org/2000/svg">
<path d="M240.162 56.9707C246.579 56.9707 251.779 62.1704 251.779 68.5875C251.779 75.0046 246.579 80.2043 240.162 80.2043C233.744 80.2043 228.545 75.0046 228.545 68.5875C228.545 62.1704 233.744 56.9707 240.162 56.9707Z" fill="white"/>
<path d="M184.942 108.869C183.557 107.601 181.717 106.829 179.691 106.829C175.392 106.829 171.907 110.314 171.907 114.612C171.907 118.915 175.392 122.4 179.691 122.4C183.994 122.4 187.479 118.915 187.479 114.612C187.479 112.336 186.503 110.286 184.942 108.869ZM119.372 89.6875H191.35H201.419C208.938 89.6875 215.271 95.3147 216.149 102.782L230.712 226.575H154.199H80.0098L94.5726 102.782C95.4508 95.3151 101.785 89.6875 109.303 89.6875H119.372ZM125.78 108.869C124.219 110.286 123.243 112.336 123.243 114.612C123.243 118.915 126.728 122.4 131.031 122.4C135.329 122.4 138.814 118.915 138.814 114.612C138.814 110.314 135.329 106.829 131.031 106.829C129.005 106.829 127.165 107.601 125.78 108.869ZM154.199 206.822C169.282 206.822 181.499 194.606 181.499 179.523C181.499 164.068 164.468 150.769 154.199 139.705C143.93 150.769 126.9 164.068 126.9 179.523C126.9 194.606 139.116 206.822 154.199 206.822Z" fill="white"/>
<path d="M61.2644 161.522C68.9633 161.522 75.2045 155.281 75.2045 147.582C75.2045 139.883 68.9633 133.642 61.2644 133.642C53.5654 133.642 47.3242 139.883 47.3242 147.582C47.3242 155.281 53.5654 161.522 61.2644 161.522Z" fill="white"/>
<path d="M125.777 108.87C127.162 107.602 129.002 106.83 131.028 106.83C135.326 106.83 138.811 110.315 138.811 114.613C138.811 118.916 135.326 122.401 131.028 122.401C126.725 122.401 123.24 118.916 123.24 114.613C123.24 112.337 124.216 110.288 125.777 108.87Z" fill="#EED9CB"/>
<path d="M184.943 108.87C186.504 110.288 187.48 112.337 187.48 114.613C187.48 118.916 183.995 122.401 179.691 122.401C175.393 122.401 171.908 118.916 171.908 114.613C171.908 110.315 175.393 106.83 179.691 106.83C181.718 106.831 183.558 107.602 184.943 108.87Z" fill="#EED9CB"/>
<path d="M231.246 231.112C232.282 239.927 225.391 247.677 216.515 247.677H94.2045C85.3293 247.677 78.4382 239.926 79.4744 231.112L80.0088 226.576H154.198H230.711L231.246 231.112Z" fill="#EED9CB"/>
<path d="M243.649 124.348C245.574 124.348 247.134 122.788 247.134 120.863C247.134 118.938 245.574 117.378 243.649 117.378C241.724 117.378 240.164 118.938 240.164 120.863C240.164 122.788 241.724 124.348 243.649 124.348Z" fill="#EED9CB"/>
<path d="M243.649 207.99C245.574 207.99 247.134 206.429 247.134 204.505C247.134 202.58 245.574 201.02 243.649 201.02C241.724 201.02 240.164 202.58 240.164 204.505C240.164 206.429 241.724 207.99 243.649 207.99Z" fill="#EED9CB"/>
<path d="M204.149 63.9408C206.074 63.9408 207.634 62.3805 207.634 60.4557C207.634 58.531 206.074 56.9707 204.149 56.9707C202.224 56.9707 200.664 58.531 200.664 60.4557C200.664 62.3805 202.224 63.9408 204.149 63.9408Z" fill="#EED9CB"/>
<path d="M101.923 59.2943C103.847 59.2943 105.408 57.734 105.408 55.8093C105.408 53.8845 103.847 52.3242 101.923 52.3242C99.9978 52.3242 98.4375 53.8845 98.4375 55.8093C98.4375 57.734 99.9978 59.2943 101.923 59.2943Z" fill="#EED9CB"/>
<path d="M67.0729 196.372C68.9977 196.372 70.558 194.812 70.558 192.887C70.558 190.963 68.9977 189.402 67.0729 189.402C65.1482 189.402 63.5879 190.963 63.5879 192.887C63.5879 194.812 65.1482 196.372 67.0729 196.372Z" fill="#EED9CB"/>
<path d="M64.7468 94.1449C66.6715 94.1449 68.2318 92.5846 68.2318 90.6598C68.2318 88.7351 66.6715 87.1748 64.7468 87.1748C62.822 87.1748 61.2617 88.7351 61.2617 90.6598C61.2617 92.5846 62.822 94.1449 64.7468 94.1449Z" fill="#EED9CB"/>
<path d="M131.027 124.724C125.452 124.724 120.916 120.188 120.916 114.612C120.916 111.773 122.118 109.052 124.215 107.149C126.073 105.447 128.495 104.506 131.027 104.506C136.601 104.506 141.134 109.04 141.134 114.612C141.134 120.189 136.6 124.724 131.027 124.724ZM131.027 109.153C129.66 109.153 128.353 109.661 127.346 110.583C126.21 111.614 125.563 113.08 125.563 114.613C125.563 117.626 128.014 120.078 131.028 120.078C134.038 120.078 136.488 117.627 136.488 114.613C136.487 111.602 134.038 109.153 131.027 109.153Z" fill="#334F3E"/>
<path d="M179.691 124.724C174.118 124.724 169.584 120.188 169.584 114.612C169.584 109.04 174.118 104.506 179.691 104.506C182.223 104.506 184.645 105.447 186.511 107.156C188.599 109.053 189.802 111.773 189.802 114.612C189.802 120.189 185.266 124.724 179.691 124.724ZM179.691 109.153C176.68 109.153 174.231 111.602 174.231 114.613C174.231 117.626 176.68 120.078 179.691 120.078C182.704 120.078 185.155 117.627 185.155 114.613C185.155 113.081 184.508 111.614 183.38 110.59C182.365 109.661 181.058 109.153 179.691 109.153Z" fill="#334F3E"/>
<path d="M230.711 228.899H80.0089C78.7259 228.899 77.6855 227.859 77.6855 226.575C77.6855 225.292 78.7259 224.252 80.0089 224.252H230.711C231.995 224.252 233.035 225.292 233.035 226.575C233.035 227.859 231.995 228.899 230.711 228.899Z" fill="#334F3E"/>
<path d="M216.516 250H94.2055C89.3135 250 84.6417 247.902 81.3885 244.245C78.1349 240.586 76.5963 235.7 77.1679 230.84L92.2651 102.511C93.2804 93.8762 100.605 87.3643 109.303 87.3643H201.419C210.116 87.3643 217.441 93.8762 218.457 102.511L233.02 226.304L233.554 230.839C234.125 235.7 232.587 240.586 229.333 244.245C226.08 247.902 221.409 250 216.516 250ZM109.303 92.0114C102.961 92.0114 97.6199 96.759 96.8802 103.054L81.783 231.383C81.3667 234.926 82.4884 238.489 84.861 241.157C87.2327 243.824 90.6392 245.353 94.2055 245.353H216.516C220.083 245.353 223.489 243.824 225.861 241.157C228.233 238.489 229.355 234.926 228.938 231.382L228.405 226.848L213.842 103.054C213.101 96.759 207.761 92.0114 201.419 92.0114H109.303Z" fill="#334F3E"/>
<path d="M240.161 82.5268C232.474 82.5268 226.221 76.2733 226.221 68.5866C226.221 60.9 232.474 54.6465 240.161 54.6465C247.847 54.6465 254.101 60.9 254.101 68.5866C254.101 76.2733 247.847 82.5268 240.161 82.5268ZM240.161 59.2932C235.036 59.2932 230.867 63.4627 230.867 68.5866C230.867 73.7111 235.036 77.8801 240.161 77.8801C245.285 77.8801 249.454 73.7111 249.454 68.5866C249.454 63.4627 245.285 59.2932 240.161 59.2932Z" fill="#EED9CB"/>
<path d="M61.2635 163.845C52.2958 163.845 45 156.55 45 147.582C45 138.614 52.2958 131.318 61.2635 131.318C70.2312 131.318 77.527 138.614 77.527 147.582C77.527 156.55 70.2312 163.845 61.2635 163.845ZM61.2635 135.965C54.858 135.965 49.6467 141.176 49.6467 147.582C49.6467 153.987 54.858 159.199 61.2635 159.199C67.669 159.199 72.8803 153.987 72.8803 147.582C72.8803 141.176 67.669 135.965 61.2635 135.965Z" fill="#EED9CB"/>
<path d="M155.154 144.193C170.023 144.193 182.077 156.247 182.077 171.116C182.077 185.986 170.023 198.04 155.154 198.04C140.284 198.04 128.23 185.986 128.23 171.116C128.23 156.247 140.284 144.193 155.154 144.193Z" fill="white"/>
<path d="M168.073 158.197C169.573 159.701 169.573 162.136 168.073 163.636L160.592 171.116L168.073 178.597C168.823 179.347 169.2 180.332 169.2 181.316C169.2 182.301 168.823 183.286 168.073 184.036C166.569 185.536 164.134 185.536 162.634 184.036L155.154 176.555L147.673 184.036C146.923 184.786 145.938 185.163 144.954 185.163C143.969 185.163 142.984 184.786 142.234 184.036C140.734 182.532 140.734 180.097 142.234 178.597L149.715 171.116L142.234 163.636C140.734 162.136 140.734 159.701 142.234 158.197C143.738 156.697 146.173 156.697 147.673 158.197L155.154 165.678L162.634 158.197C164.134 156.697 166.569 156.697 168.073 158.197Z" fill="#EED9CB"/>
<path d="M144.956 187.085C143.415 187.085 141.966 186.485 140.877 185.395C138.63 183.143 138.631 179.483 140.877 177.237L146.998 171.116L140.877 164.995C138.63 162.749 138.629 159.09 140.875 156.838C141.969 155.748 143.417 155.148 144.957 155.148C146.498 155.148 147.946 155.748 149.034 156.837L155.156 162.958L161.277 156.837C162.366 155.748 163.814 155.148 165.355 155.148C166.895 155.148 168.343 155.748 169.434 156.835C171.683 159.09 171.682 162.749 169.435 164.995L163.314 171.116L169.435 177.237C170.525 178.327 171.126 179.776 171.126 181.316C171.126 182.857 170.525 184.305 169.435 185.395C168.343 186.484 166.895 187.083 165.355 187.083C163.814 187.083 162.366 186.484 161.277 185.395L155.156 179.274L149.035 185.395C147.945 186.485 146.497 187.085 144.956 187.085ZM144.958 158.995C144.443 158.995 143.959 159.195 143.595 159.558C142.849 160.307 142.848 161.527 143.596 162.275L151.077 169.756C151.828 170.507 151.828 171.725 151.077 172.476L143.596 179.957C142.848 180.705 142.848 181.925 143.598 182.677C143.96 183.039 144.443 183.239 144.956 183.239C145.469 183.239 145.951 183.038 146.315 182.675L153.796 175.195C154.547 174.444 155.764 174.444 156.516 175.195L163.996 182.675C164.359 183.038 164.841 183.237 165.354 183.237C165.868 183.237 166.352 183.037 166.716 182.674C167.078 182.312 167.278 181.829 167.278 181.316C167.278 180.803 167.078 180.32 166.715 179.957L159.234 172.476C158.483 171.725 158.483 170.507 159.234 169.756L166.715 162.275C167.464 161.527 167.463 160.307 166.713 159.555C166.352 159.195 165.868 158.995 165.354 158.995C164.841 158.995 164.359 159.195 163.996 159.557L156.516 167.037C155.764 167.788 154.547 167.788 153.796 167.037L146.315 159.557C145.953 159.194 145.471 158.995 144.958 158.995Z" fill="#334F3E"/>
<path d="M155.155 199.962C139.249 199.962 126.309 187.021 126.309 171.116C126.309 155.21 139.249 142.27 155.155 142.27C171.061 142.27 184.001 155.21 184.001 171.116C184.001 187.021 171.061 199.962 155.155 199.962ZM155.155 146.116C141.37 146.116 130.155 157.331 130.155 171.116C130.155 184.901 141.37 196.116 155.155 196.116C168.94 196.116 180.155 184.901 180.155 171.116C180.155 157.331 168.94 146.116 155.155 146.116Z" fill="#334F3E"/>
<path d="M184.94 111.195C183.656 111.195 182.616 110.158 182.616 108.874V108.87C182.616 108.395 182.762 107.932 183.033 107.543C186.713 102.253 188.786 96.049 189.026 89.6022C189.039 89.1891 189.048 88.763 189.048 88.3359C189.048 69.7597 173.935 54.6472 155.359 54.6472C136.783 54.6472 121.67 69.7597 121.67 88.3359C121.67 88.763 121.679 89.19 121.692 89.617C121.932 96.049 124.004 102.253 127.685 107.543C127.956 107.933 128.101 108.395 128.101 108.87C128.101 110.153 127.061 111.195 125.778 111.195C124.947 111.195 124.218 110.761 123.808 110.106C119.657 104.104 117.32 97.0759 117.048 89.7745C117.033 89.2843 117.023 88.8104 117.023 88.3355C117.023 67.1975 134.22 50 155.359 50C176.497 50 193.694 67.1975 193.694 88.3355C193.694 88.8104 193.684 89.2852 193.67 89.7601C193.397 97.0936 191.049 104.137 186.879 110.149C186.464 110.78 185.75 111.195 184.94 111.195Z" fill="#334F3E"/>
</svg>
