<svg width="70" height="70" viewBox="0 0 70 70" fill="none" xmlns="http://www.w3.org/2000/svg">
<path d="M56.5185 29.1811L58.4744 22.7392L64.0834 17.8881C67.4445 14.5498 64.5464 10.0056 58.5084 8.29939C52.315 6.05174 46.981 7.4116 47.2035 12.6344L48.7534 19.8822L47.6491 25.0689C45.5751 24.4143 43.4505 23.9326 41.297 23.6288V21.5586C41.2951 21.011 41.1433 20.4742 40.858 20.0067C40.5727 19.5392 40.1649 19.1587 39.6787 18.9066V12.1931C38.8907 7.24501 31.8313 5.75246 31.5982 5.76641C31.441 5.73971 31.28 5.74748 31.1261 5.7892C30.9723 5.83091 30.8294 5.90555 30.7072 6.00797C30.5851 6.11039 30.4867 6.23813 30.4188 6.38235C30.3509 6.52657 30.3152 6.68382 30.3141 6.84321V10.1912C30.3182 10.4786 30.4352 10.7529 30.6399 10.9547C30.8446 11.1566 31.1205 11.2697 31.408 11.2697C31.6955 11.2697 31.9714 11.1566 32.1761 10.9547C32.3808 10.7529 32.4979 10.4786 32.5019 10.1912V8.25753C34.1428 8.78098 36.8456 9.98067 37.4908 12.3309V18.5504H32.5019V14.5668C32.4979 14.2793 32.3808 14.005 32.1761 13.8032C31.9714 13.6014 31.6955 13.4882 31.408 13.4882C31.1205 13.4883 30.8446 13.6014 30.6399 13.8032C30.4352 14.0051 30.3182 14.2794 30.3141 14.5668V18.9066C29.8279 19.1587 29.42 19.5392 29.1347 20.0067C28.8493 20.4742 28.6975 21.0109 28.6956 21.5586V23.6288C26.571 23.9307 24.4741 24.4025 22.4249 25.0397C22.1343 24.7402 21.7618 24.533 21.3542 24.4438C20.9465 24.3547 20.5215 24.3876 20.1324 24.5384C19.603 22.3657 19.407 20.3134 16.5809 21.2989L15.5816 17.4052L17.5759 16.8935C17.8532 16.8178 18.0896 16.6361 18.234 16.3876C18.3784 16.1391 18.4193 15.8437 18.3477 15.5653C18.2761 15.287 18.0979 15.0479 17.8515 14.8999C17.6052 14.7518 17.3105 14.7066 17.0311 14.7741L15.0376 15.2856L14.598 13.5723L16.5921 13.0604C16.8694 12.9848 17.1058 12.8031 17.2503 12.5545C17.3947 12.306 17.4355 12.0106 17.3639 11.7322C17.2924 11.4538 17.1141 11.2147 16.8677 11.0667C16.6213 10.9187 16.3265 10.8735 16.0471 10.941L14.054 11.4526L13.6865 10.0206L15.6797 9.50948C15.9569 9.43404 16.1933 9.25258 16.3379 9.00428C16.4824 8.75598 16.5235 8.46078 16.4522 8.18245C16.381 7.90412 16.2031 7.665 15.957 7.51674C15.7109 7.36848 15.4163 7.32298 15.137 7.39007L13.1426 7.9015L12.8007 6.56956C12.7248 6.29253 12.543 6.05645 12.2946 5.91227C12.0462 5.76808 11.751 5.72735 11.4728 5.79887C11.1946 5.87039 10.9557 6.04842 10.8076 6.29454C10.6595 6.54066 10.6141 6.83515 10.6812 7.11444L11.0228 8.44512L9.08845 8.94119C8.81108 9.01653 8.57449 9.19798 8.42982 9.44634C8.28516 9.69469 8.24404 9.99 8.31534 10.2684C8.38665 10.5469 8.56466 10.7861 8.8109 10.9343C9.05713 11.0825 9.35182 11.1279 9.63125 11.0607L11.5667 10.5643L11.9343 11.9967L9.99968 12.4932C9.86052 12.529 9.72977 12.5918 9.61489 12.6782C9.50001 12.7645 9.40326 12.8726 9.33015 12.9963C9.25705 13.12 9.20902 13.2568 9.18882 13.3991C9.16862 13.5414 9.17664 13.6862 9.21241 13.8254C9.24819 13.9645 9.31103 14.0953 9.39734 14.2102C9.48364 14.3251 9.59173 14.4218 9.71544 14.4949C9.83914 14.568 9.97603 14.616 10.1183 14.6362C10.2605 14.6564 10.4054 14.6484 10.5446 14.6126L12.4783 14.1163L12.918 15.8295L10.9826 16.3262C10.7287 16.3965 10.5086 16.5559 10.3626 16.7752C10.2166 16.9944 10.1544 17.2589 10.1873 17.5203C10.2202 17.7816 10.3461 18.0224 10.542 18.1986C10.7378 18.3748 10.9906 18.4746 11.2539 18.4798C11.459 18.51 13.2344 17.986 13.4621 17.9492L14.4614 21.8433L13.6693 22.0468C13.204 22.1679 12.8054 22.4679 12.5603 22.8815C12.3152 23.2951 12.2434 23.7887 12.3606 24.255L12.9095 26.3948C12.5643 26.4569 12.2376 26.596 11.9535 26.8018C11.6695 27.0076 11.4356 27.2747 11.2691 27.5834C11.1026 27.8921 11.0079 28.2344 10.9919 28.5848C10.976 28.9351 11.0392 29.2846 11.177 29.6071L11.5292 30.6362C4.56998 36.4093 4.47739 43.1607 4.49675 43.9961C4.00729 49.9093 4.61197 63.2045 13.6157 64.2537L56.3769 64.2534C57.2868 64.258 58.1834 64.0343 58.9846 63.6029C64.7168 60.4677 65.6044 52.0615 65.625 47.2935C65.3461 43.0806 66.5612 36.4963 56.5185 29.1811ZM62.777 40.6051C60.5052 38.2332 57.7538 36.3729 54.7064 35.1481L55.8525 31.3738C59.1391 33.5784 61.5803 36.8329 62.777 40.6051ZM50.37 10.1174C51.2919 9.4113 53.3355 8.88352 57.8159 10.3749C60.879 11.243 62.8101 12.6834 63.2598 14.4845C63.3291 14.8037 63.3091 15.1359 63.2018 15.4444C63.0946 15.7529 62.9043 16.0259 62.652 16.2333L57.2556 20.8995L50.8027 19.0063L49.3637 12.2721C49.3597 11.8606 49.448 11.4534 49.6222 11.0805C49.7963 10.7076 50.0518 10.3785 50.37 10.1174ZM50.6969 21.2553L56.1536 22.8566L52.6655 34.3356C51.2027 33.8052 49.7123 33.3546 48.2006 32.9859L50.6969 21.2553ZM41.2971 25.8386C43.2961 26.1378 45.2674 26.5992 47.1915 27.2182L46.0615 32.5257C44.5162 32.2122 42.9248 31.966 41.2971 31.7919L41.2971 25.8386ZM30.8835 21.5586C30.8822 21.4506 30.9026 21.3433 30.9434 21.2432C30.9842 21.1431 31.0446 21.0522 31.121 20.9758C31.1975 20.8994 31.2884 20.839 31.3885 20.7982C31.4886 20.7574 31.5958 20.737 31.7039 20.7383H38.2888C38.3969 20.737 38.5041 20.7574 38.6042 20.7982C38.7043 20.839 38.7952 20.8994 38.8717 20.9758C38.9481 21.0522 39.0085 21.1431 39.0493 21.2432C39.0901 21.3433 39.1105 21.4506 39.1092 21.5586V31.5874C36.3707 31.3941 33.622 31.394 30.8835 31.5872L30.8835 21.5586ZM28.6956 25.8386V31.7894C27.1693 31.9507 25.6789 32.1737 24.2245 32.4584L23.2917 27.0617C23.4246 27.0214 27.0032 26.098 28.6956 25.8386ZM17.5578 23.3074L18.0137 25.083L15.0282 25.8503L14.573 24.0734L17.5578 23.3074ZM20.8994 26.5999C20.9604 26.6582 22.0836 32.9155 22.0836 32.9155C19.7895 33.4591 17.546 34.1974 15.3774 35.1225C15.3691 35.0621 13.1211 28.7589 13.2174 28.574C14.0658 28.3539 20.8994 26.5999 20.8994 26.5999ZM12.2874 32.851L13.3823 36.05C11.0721 37.1768 8.98538 38.7134 7.22371 40.5852C8.15791 37.5857 9.91179 34.9069 12.2874 32.851ZM56.8416 56.6495H61.9382C60.9108 59.1425 59.2107 61.856 56.377 62.0658L13.6159 62.0657C10.7795 61.8565 9.08738 59.143 8.05531 56.6497L52.4659 56.6496C52.7534 56.6455 53.0277 56.5284 53.2295 56.3237C53.4313 56.119 53.5445 55.8431 53.5445 55.5556C53.5444 55.2681 53.4313 54.9922 53.2295 54.7875C53.0276 54.5828 52.7533 54.4658 52.4659 54.4617H7.36585C6.8196 52.1145 6.54774 49.7118 6.55575 47.3018C6.57537 43.7324 9.72424 40.1921 15.1969 37.5882C26.6212 32.4401 41.2258 32.3345 52.9659 36.7836C59.5041 39.4146 63.418 43.3463 63.4371 47.2974C63.4473 49.7089 63.1758 52.1132 62.6281 54.4617H56.8416C56.5542 54.4657 56.2799 54.5828 56.078 54.7875C55.8762 54.9922 55.7631 55.2681 55.7631 55.5556C55.7631 55.8431 55.8762 56.119 56.078 56.3237C56.2799 56.5284 56.5542 56.6454 56.8416 56.6495Z" fill="#121926"/>
<path d="M34.9959 38.1202C29.3266 38.1202 24.8857 40.7204 24.8857 44.0395C25.1731 51.8764 44.8219 51.8726 45.1061 44.0394C45.1061 40.7203 40.6653 38.1202 34.9959 38.1202ZM34.9959 47.771C30.3275 47.771 27.0736 45.8043 27.0736 44.0395C27.0736 42.2747 30.3275 40.308 34.9959 40.308C39.6643 40.308 42.9183 42.2747 42.9183 44.0395C42.9183 45.8043 39.6643 47.771 34.9959 47.771Z" fill="#121926"/>
</svg>
